IbarraRealNova-BoldItalic.ufo
<glyph name="exclam" format="2">
  <advance width="258"/>
  <unicode hex="0021"/>
  <guideline x="204" y="200" angle="68"/>
  <guideline x="49" y="200" angle="68"/>
  <outline>
    <contour>
      <point x="110" y="239" type="line"/>
      <point x="162" y="239" type="line"/>
      <point x="382" y="658" type="line"/>
      <point x="227" y="658" type="line"/>
    </contour>
    <contour>
      <point x="67" y="-11" type="curve" smooth="yes"/>
      <point x="110" y="-11"/>
      <point x="145" y="24"/>
      <point x="145" y="67" type="curve" smooth="yes"/>
      <point x="145" y="111"/>
      <point x="110" y="146"/>
      <point x="67" y="146" type="curve" smooth="yes"/>
      <point x="24" y="146"/>
      <point x="-11" y="111"/>
      <point x="-11" y="67" type="curve" smooth="yes"/>
      <point x="-11" y="24"/>
      <point x="24" y="-11"/>
    </contour>
  </outline>
</glyph>
<glyph name="numbersign" format="2">
  <advance width="560"/>
  <unicode hex="0023"/>
  <outline>
    <contour>
      <point x="12" y="-26" type="line"/>
      <point x="91" y="-26" type="line"/>
      <point x="197" y="166" type="line"/>
      <point x="298" y="166" type="line"/>
      <point x="193" y="-26" type="line"/>
      <point x="272" y="-26" type="line"/>
      <point x="378" y="166" type="line"/>
      <point x="449" y="166" type="line"/>
      <point x="487" y="235" type="line"/>
      <point x="416" y="235" type="line"/>
      <point x="504" y="396" type="line"/>
      <point x="575" y="396" type="line"/>
      <point x="613" y="465" type="line"/>
      <point x="542" y="465" type="line"/>
      <point x="657" y="674" type="line"/>
      <point x="574" y="674" type="line"/>
      <point x="460" y="465" type="line"/>
      <point x="361" y="465" type="line"/>
      <point x="476" y="674" type="line"/>
      <point x="393" y="674" type="line"/>
      <point x="279" y="465" type="line"/>
      <point x="209" y="465" type="line"/>
      <point x="171" y="396" type="line"/>
      <point x="242" y="396" type="line"/>
      <point x="154" y="235" type="line"/>
      <point x="83" y="235" type="line"/>
      <point x="45" y="166" type="line"/>
      <point x="117" y="166" type="line"/>
    </contour>
    <contour>
      <point x="235" y="235" type="line"/>
      <point x="323" y="396" type="line"/>
      <point x="423" y="396" type="line"/>
      <point x="335" y="235" type="line"/>
    </contour>
  </outline>
</glyph>
<glyph name="percent" format="2">
  <advance width="657"/>
  <unicode hex="0025"/>
  <outline>
    <contour>
      <point x="243" y="345" type="curve" smooth="yes"/>
      <point x="322" y="345"/>
      <point x="375" y="415"/>
      <point x="408" y="498" type="curve" smooth="yes"/>
      <point x="421" y="531"/>
      <point x="432" y="565"/>
      <point x="432" y="594" type="curve" smooth="yes"/>
      <point x="432" y="645"/>
      <point x="403" y="684"/>
      <point x="326" y="684" type="curve" smooth="yes"/>
      <point x="246" y="684"/>
      <point x="193" y="615"/>
      <point x="159" y="529" type="curve" smooth="yes"/>
      <point x="146" y="497"/>
      <point x="136" y="464"/>
      <point x="136" y="435" type="curve" smooth="yes"/>
      <point x="136" y="380"/>
      <point x="162" y="345"/>
    </contour>
    <contour>
      <point x="426" y="-8" type="curve" smooth="yes"/>
      <point x="505" y="-8"/>
      <point x="558" y="62"/>
      <point x="591" y="145" type="curve" smooth="yes"/>
      <point x="604" y="178"/>
      <point x="615" y="212"/>
      <point x="615" y="241" type="curve" smooth="yes"/>
      <point x="615" y="292"/>
      <point x="586" y="331"/>
      <point x="509" y="331" type="curve" smooth="yes"/>
      <point x="429" y="331"/>
      <point x="376" y="262"/>
      <point x="342" y="176" type="curve" smooth="yes"/>
      <point x="329" y="144"/>
      <point x="319" y="111"/>
      <point x="319" y="82" type="curve" smooth="yes"/>
      <point x="319" y="27"/>
      <point x="345" y="-8"/>
    </contour>
    <contour>
      <point x="412" y="15" type="curve" smooth="yes"/>
      <point x="391" y="15"/>
      <point x="384" y="30"/>
      <point x="384" y="53" type="curve" smooth="yes"/>
      <point x="384" y="84"/>
      <point x="399" y="130"/>
      <point x="412" y="164" type="curve" smooth="yes"/>
      <point x="440" y="239"/>
      <point x="482" y="307"/>
      <point x="520" y="307" type="curve" smooth="yes"/>
      <point x="541" y="307"/>
      <point x="548" y="291"/>
      <point x="548" y="268" type="curve" smooth="yes"/>
      <point x="548" y="236"/>
      <point x="533" y="189"/>
      <point x="520" y="155" type="curve" smooth="yes"/>
      <point x="492" y="80"/>
      <point x="450" y="15"/>
    </contour>
    <contour>
      <point x="229" y="368" type="curve" smooth="yes"/>
      <point x="208" y="368"/>
      <point x="201" y="383"/>
      <point x="201" y="406" type="curve" smooth="yes"/>
      <point x="201" y="437"/>
      <point x="216" y="483"/>
      <point x="229" y="517" type="curve" smooth="yes"/>
      <point x="257" y="592"/>
      <point x="299" y="660"/>
      <point x="337" y="660" type="curve" smooth="yes"/>
      <point x="358" y="660"/>
      <point x="365" y="644"/>
      <point x="365" y="621" type="curve" smooth="yes"/>
      <point x="365" y="589"/>
      <point x="350" y="542"/>
      <point x="337" y="508" type="curve" smooth="yes"/>
      <point x="309" y="433"/>
      <point x="267" y="368"/>
    </contour>
    <component base="fraction" xOffset="101"/>
  </outline>
</glyph>
<glyph name="ampersand" format="2">
  <advance width="918"/>
  <unicode hex="0026"/>
  <outline>
    <contour>
      <point x="315" y="-9" type="curve" smooth="yes"/>
      <point x="593" y="-9"/>
      <point x="771" y="228"/>
      <point x="771" y="365" type="curve" smooth="yes"/>
      <point x="771" y="421"/>
      <point x="739" y="460"/>
      <point x="666" y="460" type="curve" smooth="yes"/>
      <point x="573" y="460"/>
      <point x="435" y="376"/>
      <point x="435" y="251" type="curve" smooth="yes"/>
      <point x="435" y="213"/>
      <point x="457" y="194"/>
      <point x="521" y="194" type="curve" smooth="yes"/>
      <point x="560" y="194"/>
      <point x="624" y="202"/>
      <point x="686" y="218" type="curve" smooth="yes"/>
      <point x="745" y="233"/>
      <point x="783" y="236"/>
      <point x="823" y="236" type="curve" smooth="yes"/>
      <point x="845" y="236"/>
      <point x="849" y="224"/>
      <point x="847" y="198" type="curve" smooth="yes"/>
      <point x="847" y="192"/>
      <point x="845" y="185"/>
      <point x="844" y="177" type="curve"/>
      <point x="836" y="119" type="line"/>
      <point x="865" y="121" type="line"/>
      <point x="865" y="121"/>
      <point x="911" y="329"/>
      <point x="911" y="329" type="curve"/>
      <point x="902" y="332" type="line"/>
      <point x="855" y="332"/>
      <point x="809" y="325"/>
      <point x="750" y="313" type="curve" smooth="yes"/>
      <point x="688" y="300"/>
      <point x="611" y="287"/>
      <point x="547" y="287" type="curve" smooth="yes"/>
      <point x="518" y="287"/>
      <point x="507" y="299"/>
      <point x="508" y="316" type="curve" smooth="yes"/>
      <point x="513" y="371"/>
      <point x="555" y="414"/>
      <point x="619" y="414" type="curve" smooth="yes"/>
      <point x="660" y="414"/>
      <point x="678" y="388"/>
      <point x="678" y="349" type="curve" smooth="yes"/>
      <point x="678" y="218"/>
      <point x="555" y="46"/>
      <point x="376" y="46" type="curve" smooth="yes"/>
      <point x="266" y="46"/>
      <point x="179" y="113"/>
      <point x="179" y="236" type="curve" smooth="yes"/>
      <point x="179" y="369"/>
      <point x="242" y="540"/>
      <point x="338" y="540" type="curve" smooth="yes"/>
      <point x="361" y="540"/>
      <point x="372" y="527"/>
      <point x="372" y="508" type="curve" smooth="yes"/>
      <point x="372" y="458"/>
      <point x="313" y="363"/>
      <point x="226" y="327" type="curve"/>
      <point x="226" y="327"/>
      <point x="239" y="313"/>
      <point x="239" y="313" type="curve"/>
      <point x="323" y="334"/>
      <point x="463" y="464"/>
      <point x="463" y="547" type="curve" smooth="yes"/>
      <point x="463" y="588"/>
      <point x="435" y="608"/>
      <point x="393" y="608" type="curve" smooth="yes"/>
      <point x="308" y="608"/>
      <point x="214" y="543"/>
      <point x="155" y="459" type="curve" smooth="yes"/>
      <point x="96" y="375"/>
      <point x="53" y="286"/>
      <point x="53" y="191" type="curve" smooth="yes"/>
      <point x="53" y="60"/>
      <point x="140" y="-9"/>
    </contour>
    <contour>
      <point x="164" y="268" type="line"/>
      <point x="408" y="358"/>
      <point x="580" y="537"/>
      <point x="615" y="625" type="curve" smooth="yes"/>
      <point x="626" y="650"/>
      <point x="629" y="672"/>
      <point x="629" y="689" type="curve" smooth="yes"/>
      <point x="629" y="728"/>
      <point x="605" y="750"/>
      <point x="574" y="750" type="curve" smooth="yes"/>
      <point x="541" y="750"/>
      <point x="515" y="720"/>
      <point x="515" y="684" type="curve" smooth="yes"/>
      <point x="515" y="671"/>
      <point x="521" y="660"/>
      <point x="527" y="647" type="curve" smooth="yes"/>
      <point x="535" y="635"/>
      <point x="546" y="615"/>
      <point x="546" y="600" type="curve" smooth="yes"/>
      <point x="546" y="593"/>
      <point x="542" y="581"/>
      <point x="534" y="569" type="curve" smooth="yes"/>
      <point x="485" y="495"/>
      <point x="348" y="354"/>
      <point x="171" y="310" type="curve"/>
    </contour>
  </outline>
</glyph>
<glyph name="parenleft" format="2">
  <advance width="331"/>
  <unicode hex="0028"/>
  <outline>
    <contour>
      <point x="64" y="-240" type="curve"/>
      <point x="93" y="-224" type="line"/>
      <point x="82" y="-173"/>
      <point x="81" y="-117"/>
      <point x="82" y="-66" type="curve" smooth="yes"/>
      <point x="88" y="250"/>
      <point x="249" y="550"/>
      <point x="498" y="733" type="curve"/>
      <point x="478" y="754" type="line"/>
      <point x="250" y="614"/>
      <point x="7" y="351"/>
      <point x="1" y="32" type="curve" smooth="yes"/>
      <point x="-1" y="-81"/>
      <point x="15" y="-150"/>
    </contour>
  </outline>
</glyph>
<glyph name="parenright" format="2">
  <advance width="331"/>
  <unicode hex="0029"/>
  <outline>
    <contour>
      <point x="296" y="754" type="curve"/>
      <point x="267" y="738" type="line"/>
      <point x="278" y="687"/>
      <point x="279" y="631"/>
      <point x="278" y="580" type="curve" smooth="yes"/>
      <point x="272" y="264"/>
      <point x="111" y="-36"/>
      <point x="-138" y="-219" type="curve"/>
      <point x="-118" y="-240" type="line"/>
      <point x="110" y="-100"/>
      <point x="353" y="163"/>
      <point x="359" y="482" type="curve" smooth="yes"/>
      <point x="361" y="595"/>
      <point x="345" y="664"/>
    </contour>
  </outline>
</glyph>
<glyph name="asterisk" format="2">
  <advance width="471"/>
  <unicode hex="002A"/>
  <outline>
    <contour>
      <point x="477" y="339" type="curve" smooth="yes"/>
      <point x="488" y="347"/>
      <point x="505" y="373"/>
      <point x="488" y="395" type="curve" smooth="yes"/>
      <point x="475" y="412"/>
      <point x="456" y="423"/>
      <point x="434" y="439" type="curve" smooth="yes"/>
      <point x="410" y="455"/>
      <point x="385" y="472"/>
      <point x="362" y="502" type="curve" smooth="yes"/>
      <point x="352" y="514" type="line" smooth="yes"/>
      <point x="330" y="543"/>
      <point x="319" y="572"/>
      <point x="308" y="601" type="curve" smooth="yes"/>
      <point x="300" y="623"/>
      <point x="293" y="646"/>
      <point x="279" y="663" type="curve" smooth="yes"/>
      <point x="262" y="685"/>
      <point x="233" y="674"/>
      <point x="222" y="666" type="curve" smooth="yes"/>
      <point x="211" y="658"/>
      <point x="194" y="632"/>
      <point x="211" y="610" type="curve" smooth="yes"/>
      <point x="224" y="593"/>
      <point x="245" y="581"/>
      <point x="265" y="567" type="curve" smooth="yes"/>
      <point x="290" y="550"/>
      <point x="316" y="532"/>
      <point x="338" y="503" type="curve" smooth="yes"/>
      <point x="348" y="491" type="line" smooth="yes"/>
      <point x="371" y="461"/>
      <point x="381" y="433"/>
      <point x="392" y="405" type="curve" smooth="yes"/>
      <point x="401" y="381"/>
      <point x="406" y="359"/>
      <point x="420" y="342" type="curve" smooth="yes"/>
      <point x="437" y="320"/>
      <point x="466" y="331"/>
    </contour>
    <contour>
      <point x="272" y="310" type="curve" smooth="yes"/>
      <point x="284" y="305"/>
      <point x="316" y="303"/>
      <point x="326" y="329" type="curve" smooth="yes"/>
      <point x="334" y="349"/>
      <point x="335" y="371"/>
      <point x="337" y="397" type="curve" smooth="yes"/>
      <point x="339" y="426"/>
      <point x="341" y="457"/>
      <point x="355" y="492" type="curve" smooth="yes"/>
      <point x="361" y="506" type="line" smooth="yes"/>
      <point x="375" y="540"/>
      <point x="394" y="564"/>
      <point x="413" y="587" type="curve" smooth="yes"/>
      <point x="430" y="606"/>
      <point x="445" y="624"/>
      <point x="453" y="643" type="curve" smooth="yes"/>
      <point x="464" y="669"/>
      <point x="440" y="690"/>
      <point x="427" y="695" type="curve" smooth="yes"/>
      <point x="415" y="700"/>
      <point x="383" y="702"/>
      <point x="373" y="676" type="curve" smooth="yes"/>
      <point x="365" y="656"/>
      <point x="365" y="633"/>
      <point x="363" y="607" type="curve" smooth="yes"/>
      <point x="361" y="577"/>
      <point x="358" y="547"/>
      <point x="344" y="513" type="curve" smooth="yes"/>
      <point x="339" y="499" type="line" smooth="yes"/>
      <point x="325" y="463"/>
      <point x="305" y="440"/>
      <point x="287" y="417" type="curve" smooth="yes"/>
      <point x="270" y="397"/>
      <point x="254" y="381"/>
      <point x="246" y="362" type="curve" smooth="yes"/>
      <point x="235" y="336"/>
      <point x="259" y="315"/>
    </contour>
    <contour>
      <point x="187" y="436" type="curve" smooth="yes"/>
      <point x="209" y="438"/>
      <point x="229" y="451"/>
      <point x="252" y="462" type="curve" smooth="yes"/>
      <point x="279" y="474"/>
      <point x="307" y="488"/>
      <point x="343" y="494" type="curve" smooth="yes"/>
      <point x="359" y="495" type="line" smooth="yes"/>
      <point x="397" y="500"/>
      <point x="426" y="495"/>
      <point x="455" y="491" type="curve" smooth="yes"/>
      <point x="481" y="487"/>
      <point x="502" y="480"/>
      <point x="524" y="483" type="curve" smooth="yes"/>
      <point x="551" y="487"/>
      <point x="557" y="517"/>
      <point x="555" y="531" type="curve" smooth="yes"/>
      <point x="554" y="545"/>
      <point x="539" y="572"/>
      <point x="512" y="569" type="curve" smooth="yes"/>
      <point x="490" y="567"/>
      <point x="472" y="555"/>
      <point x="448" y="544" type="curve" smooth="yes"/>
      <point x="421" y="530"/>
      <point x="393" y="519"/>
      <point x="356" y="514" type="curve" smooth="yes"/>
      <point x="341" y="511" type="line" smooth="yes"/>
      <point x="304" y="506"/>
      <point x="275" y="511"/>
      <point x="243" y="516" type="curve" smooth="yes"/>
      <point x="220" y="520"/>
      <point x="197" y="525"/>
      <point x="175" y="522" type="curve" smooth="yes"/>
      <point x="148" y="518"/>
      <point x="142" y="488"/>
      <point x="144" y="474" type="curve" smooth="yes"/>
      <point x="145" y="460"/>
      <point x="160" y="433"/>
    </contour>
  </outline>
</glyph>
<glyph name="plus" format="2">
  <advance width="570"/>
  <unicode hex="002B"/>
  <outline>
    <contour>
      <point x="305" y="127" type="line"/>
      <point x="362" y="127" type="line"/>
      <point x="362" y="304" type="line"/>
      <point x="543" y="304" type="line"/>
      <point x="543" y="361" type="line"/>
      <point x="362" y="361" type="line"/>
      <point x="362" y="537" type="line"/>
      <point x="305" y="537" type="line"/>
      <point x="305" y="361" type="line"/>
      <point x="125" y="361" type="line"/>
      <point x="125" y="304" type="line"/>
      <point x="305" y="304" type="line"/>
    </contour>
  </outline>
</glyph>
<glyph name="comma" format="2">
  <advance width="285"/>
  <unicode hex="002C"/>
  <outline>
    <contour>
      <point x="-109" y="-158" type="line"/>
      <point x="35" y="-145"/>
      <point x="168" y="-48"/>
      <point x="168" y="67" type="curve" smooth="yes"/>
      <point x="168" y="111"/>
      <point x="142" y="152"/>
      <point x="101" y="164" type="curve"/>
      <point x="64" y="125"/>
      <point x="47" y="111"/>
      <point x="4" y="93" type="curve"/>
      <point x="-5" y="64" type="line"/>
      <point x="34" y="59"/>
      <point x="55" y="37"/>
      <point x="55" y="8" type="curve" smooth="yes"/>
      <point x="55" y="-65"/>
      <point x="-27" y="-120"/>
      <point x="-97" y="-130" type="curve"/>
    </contour>
  </outline>
</glyph>
<glyph name="slash" format="2">
  <advance width="464"/>
  <unicode hex="002F"/>
  <outline>
    <contour>
      <point x="-67" y="-7" type="line"/>
      <point x="-6" y="-7" type="line"/>
      <point x="637" y="710" type="line"/>
      <point x="576" y="710" type="line"/>
    </contour>
  </outline>
</glyph>
<glyph name="one" format="2">
  <advance width="396"/>
  <unicode hex="0031"/>
  <outline>
    <contour>
      <point x="-58" y="0" type="line"/>
      <point x="292" y="0" type="line"/>
      <point x="301" y="22" type="line"/>
      <point x="254" y="33" type="line" smooth="yes"/>
      <point x="212" y="43"/>
      <point x="209" y="56"/>
      <point x="226" y="98" type="curve" smooth="yes"/>
      <point x="461" y="680" type="line"/>
      <point x="200" y="640" type="line"/>
      <point x="188" y="611" type="line"/>
      <point x="262" y="614" type="line" smooth="yes"/>
      <point x="287" y="615"/>
      <point x="291" y="606"/>
      <point x="284" y="587" type="curve" smooth="yes"/>
      <point x="86" y="98" type="line" smooth="yes"/>
      <point x="69" y="56"/>
      <point x="56" y="43"/>
      <point x="6" y="33" type="curve" smooth="yes"/>
      <point x="-49" y="22" type="line"/>
    </contour>
  </outline>
</glyph>
<glyph name="two" format="2">
  <advance width="529"/>
  <unicode hex="0032"/>
  <outline>
    <contour>
      <point x="-59" y="0" type="line"/>
      <point x="362" y="0" type="line"/>
      <point x="478" y="193" type="line"/>
      <point x="456" y="193" type="line"/>
      <point x="443" y="177" type="line" smooth="yes"/>
      <point x="414" y="140"/>
      <point x="393" y="119"/>
      <point x="358" y="119" type="curve" smooth="yes"/>
      <point x="132" y="119" type="line"/>
      <point x="246" y="202" type="line" smooth="yes"/>
      <point x="366" y="289"/>
      <point x="580" y="421"/>
      <point x="580" y="560" type="curve" smooth="yes"/>
      <point x="580" y="645"/>
      <point x="499" y="683"/>
      <point x="408" y="683" type="curve" smooth="yes"/>
      <point x="291" y="683"/>
      <point x="158" y="626"/>
      <point x="158" y="529" type="curve" smooth="yes"/>
      <point x="158" y="488"/>
      <point x="187" y="475"/>
      <point x="214" y="475" type="curve" smooth="yes"/>
      <point x="250" y="475"/>
      <point x="285" y="495"/>
      <point x="285" y="529" type="curve" smooth="yes"/>
      <point x="285" y="559"/>
      <point x="270" y="565"/>
      <point x="270" y="595" type="curve" smooth="yes"/>
      <point x="270" y="618"/>
      <point x="317" y="643"/>
      <point x="362" y="643" type="curve" smooth="yes"/>
      <point x="414" y="643"/>
      <point x="443" y="623"/>
      <point x="443" y="560" type="curve" smooth="yes"/>
      <point x="443" y="446"/>
      <point x="272" y="289"/>
      <point x="181" y="214" type="curve" smooth="yes"/>
      <point x="-52" y="19" type="line"/>
    </contour>
  </outline>
</glyph>
<glyph name="four" format="2">
  <advance width="576"/>
  <unicode hex="0034"/>
  <outline>
    <contour>
      <point x="103" y="0" type="line"/>
      <point x="444" y="0" type="line"/>
      <point x="453" y="22" type="line"/>
      <point x="406" y="33" type="line" smooth="yes"/>
      <point x="364" y="43"/>
      <point x="362" y="56"/>
      <point x="379" y="98" type="curve" smooth="yes"/>
      <point x="615" y="683" type="line"/>
      <point x="582" y="683" type="line"/>
      <point x="9" y="206" type="line"/>
      <point x="-11" y="157" type="line"/>
      <point x="481" y="157" type="line"/>
      <point x="586" y="319" type="line"/>
      <point x="563" y="319" type="line"/>
      <point x="531" y="279" type="line" smooth="yes"/>
      <point x="511" y="255"/>
      <point x="493" y="244"/>
      <point x="469" y="244" type="curve" smooth="yes"/>
      <point x="85" y="244" type="line"/>
      <point x="77" y="221" type="line"/>
      <point x="438" y="520" type="line"/>
      <point x="422" y="529" type="line"/>
      <point x="248" y="98" type="line" smooth="yes"/>
      <point x="231" y="56"/>
      <point x="217" y="43"/>
      <point x="167" y="33" type="curve" smooth="yes"/>
      <point x="112" y="22" type="line"/>
    </contour>
  </outline>
</glyph>
<glyph name="five" format="2">
  <advance width="522"/>
  <unicode hex="0035"/>
  <outline>
    <contour>
      <point x="134" y="-9" type="curve" smooth="yes"/>
      <point x="349" y="-8"/>
      <point x="486" y="138"/>
      <point x="486" y="270" type="curve" smooth="yes"/>
      <point x="486" y="360"/>
      <point x="423" y="435"/>
      <point x="280" y="435" type="curve" smooth="yes"/>
      <point x="265" y="435"/>
      <point x="250" y="435"/>
      <point x="234" y="433" type="curve"/>
      <point x="311" y="581" type="line"/>
      <point x="569" y="581" type="line"/>
      <point x="669" y="749" type="line"/>
      <point x="642" y="749" type="line"/>
      <point x="619" y="719" type="line" smooth="yes"/>
      <point x="601" y="697"/>
      <point x="580" y="687"/>
      <point x="562" y="687" type="curve" smooth="yes"/>
      <point x="323" y="687" type="line"/>
      <point x="146" y="346" type="line"/>
      <point x="156" y="339" type="line"/>
      <point x="173" y="341"/>
      <point x="183" y="342"/>
      <point x="198" y="342" type="curve" smooth="yes"/>
      <point x="295" y="342"/>
      <point x="333" y="295"/>
      <point x="333" y="237" type="curve" smooth="yes"/>
      <point x="333" y="145"/>
      <point x="237" y="26"/>
      <point x="121" y="26" type="curve" smooth="yes"/>
      <point x="80" y="26"/>
      <point x="54" y="42"/>
      <point x="54" y="73" type="curve" smooth="yes"/>
      <point x="54" y="96"/>
      <point x="94" y="109"/>
      <point x="94" y="145" type="curve" smooth="yes"/>
      <point x="94" y="163"/>
      <point x="81" y="191"/>
      <point x="36" y="191" type="curve" smooth="yes"/>
      <point x="-3" y="191"/>
      <point x="-25" y="152"/>
      <point x="-25" y="118" type="curve" smooth="yes"/>
      <point x="-25" y="30"/>
      <point x="45" y="-9"/>
    </contour>
  </outline>
</glyph>
<glyph name="seven" format="2">
  <advance width="520"/>
  <unicode hex="0037"/>
  <outline>
    <contour>
      <point x="16" y="0" type="line"/>
      <point x="165" y="0" type="line"/>
      <point x="617" y="573" type="line"/>
      <point x="658" y="674" type="line"/>
      <point x="245" y="674" type="line"/>
      <point x="125" y="481" type="line"/>
      <point x="148" y="481" type="line"/>
      <point x="180" y="521" type="line" smooth="yes"/>
      <point x="200" y="545"/>
      <point x="223" y="556"/>
      <point x="242" y="556" type="curve" smooth="yes"/>
      <point x="537" y="556" type="line"/>
    </contour>
  </outline>
</glyph>
<glyph name="nine" format="2">
  <advance width="541"/>
  <unicode hex="0039"/>
  <outline>
    <contour>
      <point x="444" y="683" type="curve" smooth="yes"/>
      <point x="275" y="683"/>
      <point x="112" y="560"/>
      <point x="112" y="383" type="curve" smooth="yes"/>
      <point x="112" y="310"/>
      <point x="152" y="251"/>
      <point x="248" y="251" type="curve" smooth="yes"/>
      <point x="335" y="251"/>
      <point x="418" y="309"/>
      <point x="454" y="373" type="curve"/>
      <point x="470" y="474" type="line"/>
      <point x="429" y="374"/>
      <point x="369" y="302"/>
      <point x="295" y="302" type="curve" smooth="yes"/>
      <point x="258" y="302"/>
      <point x="242" y="331"/>
      <point x="242" y="377" type="curve" smooth="yes"/>
      <point x="242" y="477"/>
      <point x="325" y="642"/>
      <point x="425" y="642" type="curve" smooth="yes"/>
      <point x="458" y="642"/>
      <point x="482" y="622"/>
      <point x="482" y="583" type="curve" smooth="yes"/>
      <point x="482" y="546"/>
      <point x="473" y="492"/>
      <point x="444" y="420" type="curve" smooth="yes"/>
      <point x="369" y="235"/>
      <point x="244" y="33"/>
      <point x="17" y="13" type="curve"/>
      <point x="10" y="-9" type="line"/>
      <point x="244" y="-9"/>
      <point x="478" y="156"/>
      <point x="583" y="412" type="curve" smooth="yes"/>
      <point x="599" y="452"/>
      <point x="607" y="489"/>
      <point x="607" y="523" type="curve" smooth="yes"/>
      <point x="607" y="617"/>
      <point x="548" y="683"/>
    </contour>
  </outline>
</glyph>
<glyph name="less" format="2">
  <advance width="570"/>
  <unicode hex="003C"/>
  <outline>
    <contour>
      <point x="81" y="325" type="line"/>
      <point x="506" y="126" type="line"/>
      <point x="506" y="188" type="line"/>
      <point x="189" y="334" type="line"/>
      <point x="506" y="479" type="line"/>
      <point x="506" y="540" type="line"/>
      <point x="82" y="343" type="line"/>
    </contour>
  </outline>
</glyph>
<glyph name="greater" format="2">
  <advance width="570"/>
  <unicode hex="003E"/>
  <outline>
    <contour>
      <point x="586" y="325" type="line"/>
      <point x="585" y="343" type="line"/>
      <point x="161" y="540" type="line"/>
      <point x="161" y="479" type="line"/>
      <point x="478" y="334" type="line"/>
      <point x="161" y="188" type="line"/>
      <point x="161" y="126" type="line"/>
    </contour>
  </outline>
</glyph>
<glyph name="question" format="2">
  <advance width="387"/>
  <unicode hex="003F"/>
  <outline>
    <contour>
      <point x="80" y="193" type="curve"/>
      <point x="122" y="193" type="line"/>
      <point x="138" y="234"/>
      <point x="156" y="250"/>
      <point x="240" y="263" type="curve" smooth="yes"/>
      <point x="348" y="280"/>
      <point x="401" y="341"/>
      <point x="441" y="441" type="curve" smooth="yes"/>
      <point x="455" y="475"/>
      <point x="462" y="504"/>
      <point x="462" y="526" type="curve" smooth="yes"/>
      <point x="462" y="568"/>
      <point x="437" y="589"/>
      <point x="385" y="598" type="curve" smooth="yes"/>
      <point x="294" y="614" type="line" smooth="yes"/>
      <point x="276" y="617"/>
      <point x="261" y="625"/>
      <point x="264" y="643" type="curve" smooth="yes"/>
      <point x="268" y="673" type="line"/>
      <point x="249" y="673" type="line"/>
      <point x="180" y="504" type="line"/>
      <point x="345" y="485" type="line" smooth="yes"/>
      <point x="371" y="482"/>
      <point x="383" y="475"/>
      <point x="383" y="459" type="curve" smooth="yes"/>
      <point x="383" y="454"/>
      <point x="382" y="447"/>
      <point x="379" y="440" type="curve"/>
      <point x="367" y="408"/>
      <point x="356" y="402"/>
      <point x="289" y="392" type="curve" smooth="yes"/>
      <point x="179" y="375"/>
      <point x="137" y="337"/>
    </contour>
    <contour>
      <point x="54" y="-11" type="curve" smooth="yes"/>
      <point x="96" y="-11"/>
      <point x="130" y="23"/>
      <point x="130" y="65" type="curve" smooth="yes"/>
      <point x="130" y="108"/>
      <point x="96" y="142"/>
      <point x="54" y="142" type="curve" smooth="yes"/>
      <point x="12" y="142"/>
      <point x="-22" y="108"/>
      <point x="-22" y="65" type="curve" smooth="yes"/>
      <point x="-22" y="23"/>
      <point x="12" y="-11"/>
    </contour>
  </outline>
</glyph>
<glyph name="C" format="2">
  <advance width="777"/>
  <unicode hex="0043"/>
  <anchor x="395" y="-53" name="bottom"/>
  <anchor x="579" y="690" name="topcase"/>
  <outline>
    <contour>
      <point x="409" y="-8" type="curve" smooth="yes"/>
      <point x="474" y="-8"/>
      <point x="527" y="2"/>
      <point x="564" y="12" type="curve" smooth="yes"/>
      <point x="594" y="20"/>
      <point x="623" y="29"/>
      <point x="659" y="29" type="curve" smooth="yes"/>
      <point x="663" y="29"/>
      <point x="666" y="29"/>
      <point x="670" y="29" type="curve"/>
      <point x="684" y="92"/>
      <point x="708" y="160"/>
      <point x="753" y="224" type="curve"/>
      <point x="722" y="224" type="line"/>
      <point x="652" y="114"/>
      <point x="542" y="26"/>
      <point x="418" y="26" type="curve" smooth="yes"/>
      <point x="300" y="26"/>
      <point x="234" y="107"/>
      <point x="234" y="234" type="curve" smooth="yes"/>
      <point x="234" y="407"/>
      <point x="368" y="648"/>
      <point x="565" y="648" type="curve" smooth="yes"/>
      <point x="693" y="648"/>
      <point x="763" y="576"/>
      <point x="797" y="451" type="curve"/>
      <point x="822" y="451" type="line"/>
      <point x="817" y="514"/>
      <point x="816" y="585"/>
      <point x="842" y="640" type="curve"/>
      <point x="838" y="643" type="line"/>
      <point x="825" y="640"/>
      <point x="815" y="638"/>
      <point x="800" y="638" type="curve" smooth="yes"/>
      <point x="770" y="638"/>
      <point x="747" y="647"/>
      <point x="720" y="657" type="curve" smooth="yes"/>
      <point x="686" y="669"/>
      <point x="646" y="683"/>
      <point x="582" y="683" type="curve" smooth="yes"/>
      <point x="326" y="683"/>
      <point x="85" y="494"/>
      <point x="85" y="262" type="curve" smooth="yes"/>
      <point x="85" y="107"/>
      <point x="205" y="-8"/>
    </contour>
  </outline>
</glyph>
<glyph name="E" format="2">
  <advance width="671"/>
  <unicode hex="0045"/>
  <anchor x="516" y="690" name="topcase"/>
  <outline>
    <contour>
      <point x="-59" y="0" type="line"/>
      <point x="526" y="0" type="line"/>
      <point x="551" y="61"/>
      <point x="586" y="121"/>
      <point x="624" y="180" type="curve"/>
      <point x="602" y="180" type="line"/>
      <point x="535" y="120" type="line" smooth="yes"/>
      <point x="473" y="65"/>
      <point x="414" y="33"/>
      <point x="342" y="33" type="curve" smooth="yes"/>
      <point x="268" y="33" type="line" smooth="yes"/>
      <point x="199" y="33"/>
      <point x="210" y="60"/>
      <point x="234" y="119" type="curve" smooth="yes"/>
      <point x="323" y="339" type="line"/>
      <point x="453" y="339" type="line" smooth="yes"/>
      <point x="517" y="339"/>
      <point x="530" y="312"/>
      <point x="519" y="265" type="curve" smooth="yes"/>
      <point x="509" y="217" type="line"/>
      <point x="531" y="217" type="line"/>
      <point x="643" y="494" type="line"/>
      <point x="621" y="494" type="line"/>
      <point x="594" y="448" type="line" smooth="yes"/>
      <point x="567" y="400"/>
      <point x="531" y="372"/>
      <point x="464" y="372" type="curve" smooth="yes"/>
      <point x="336" y="372" type="line"/>
      <point x="445" y="640" type="line"/>
      <point x="578" y="640" type="line" smooth="yes"/>
      <point x="667" y="640"/>
      <point x="701" y="575"/>
      <point x="702" y="496" type="curve"/>
      <point x="724" y="496" type="line"/>
      <point x="735" y="539"/>
      <point x="742" y="577"/>
      <point x="759" y="618" type="curve" smooth="yes"/>
      <point x="766" y="636"/>
      <point x="774" y="654"/>
      <point x="786" y="673" type="curve"/>
      <point x="213" y="673" type="line"/>
      <point x="204" y="651" type="line"/>
      <point x="251" y="640" type="line" smooth="yes"/>
      <point x="293" y="630"/>
      <point x="298" y="623"/>
      <point x="281" y="581" type="curve" smooth="yes"/>
      <point x="83" y="92" type="line" smooth="yes"/>
      <point x="66" y="50"/>
      <point x="55" y="43"/>
      <point x="5" y="33" type="curve" smooth="yes"/>
      <point x="-50" y="22" type="line"/>
    </contour>
  </outline>
</glyph>
<glyph name="F" format="2">
  <advance width="647"/>
  <unicode hex="0046"/>
  <outline>
    <contour>
      <point x="-59" y="0" type="line"/>
      <point x="298" y="0" type="line"/>
      <point x="307" y="22" type="line"/>
      <point x="253" y="33" type="line" smooth="yes"/>
      <point x="211" y="42"/>
      <point x="206" y="50"/>
      <point x="223" y="92" type="curve" smooth="yes"/>
      <point x="315" y="319" type="line"/>
      <point x="445" y="319" type="line" smooth="yes"/>
      <point x="509" y="319"/>
      <point x="522" y="292"/>
      <point x="511" y="245" type="curve" smooth="yes"/>
      <point x="501" y="197" type="line"/>
      <point x="523" y="197" type="line"/>
      <point x="635" y="474" type="line"/>
      <point x="613" y="474" type="line"/>
      <point x="586" y="428" type="line" smooth="yes"/>
      <point x="559" y="380"/>
      <point x="523" y="352"/>
      <point x="456" y="352" type="curve" smooth="yes"/>
      <point x="328" y="352" type="line"/>
      <point x="445" y="640" type="line"/>
      <point x="577" y="640" type="line" smooth="yes"/>
      <point x="666" y="640"/>
      <point x="700" y="575"/>
      <point x="701" y="496" type="curve"/>
      <point x="723" y="496" type="line"/>
      <point x="734" y="539"/>
      <point x="741" y="577"/>
      <point x="758" y="618" type="curve" smooth="yes"/>
      <point x="765" y="636"/>
      <point x="773" y="654"/>
      <point x="785" y="673" type="curve"/>
      <point x="213" y="673" type="line"/>
      <point x="204" y="651" type="line"/>
      <point x="251" y="640" type="line" smooth="yes"/>
      <point x="293" y="630"/>
      <point x="298" y="623"/>
      <point x="281" y="581" type="curve" smooth="yes"/>
      <point x="83" y="92" type="line" smooth="yes"/>
      <point x="66" y="50"/>
      <point x="55" y="43"/>
      <point x="5" y="33" type="curve" smooth="yes"/>
      <point x="-50" y="22" type="line"/>
    </contour>
  </outline>
</glyph>
<glyph name="G" format="2">
  <advance width="852"/>
  <unicode hex="0047"/>
  <anchor x="596" y="690" name="topcase"/>
  <outline>
    <contour>
      <point x="390" y="-11" type="curve" smooth="yes"/>
      <point x="455" y="-11"/>
      <point x="512" y="4"/>
      <point x="551" y="16" type="curve" smooth="yes"/>
      <point x="577" y="24"/>
      <point x="603" y="33"/>
      <point x="627" y="33" type="curve" smooth="yes"/>
      <point x="650" y="33"/>
      <point x="655" y="31"/>
      <point x="672" y="27" type="curve"/>
      <point x="675" y="29" type="line"/>
      <point x="752" y="218" type="line" smooth="yes"/>
      <point x="769" y="260"/>
      <point x="778" y="267"/>
      <point x="824" y="277" type="curve" smooth="yes"/>
      <point x="874" y="288" type="line"/>
      <point x="883" y="310" type="line"/>
      <point x="544" y="310" type="line"/>
      <point x="535" y="288" type="line"/>
      <point x="582" y="277" type="line" smooth="yes"/>
      <point x="624" y="267"/>
      <point x="629" y="260"/>
      <point x="612" y="218" type="curve" smooth="yes"/>
      <point x="551" y="66" type="line"/>
      <point x="516" y="38"/>
      <point x="466" y="23"/>
      <point x="424" y="23" type="curve" smooth="yes"/>
      <point x="295" y="24"/>
      <point x="232" y="96"/>
      <point x="232" y="221" type="curve" smooth="yes"/>
      <point x="232" y="461"/>
      <point x="393" y="647"/>
      <point x="573" y="647" type="curve" smooth="yes"/>
      <point x="696" y="647"/>
      <point x="772" y="584"/>
      <point x="794" y="468" type="curve"/>
      <point x="829" y="468" type="line"/>
      <point x="827" y="485"/>
      <point x="825" y="504"/>
      <point x="825" y="524" type="curve" smooth="yes"/>
      <point x="825" y="564"/>
      <point x="832" y="606"/>
      <point x="851" y="637" type="curve"/>
      <point x="847" y="640" type="line"/>
      <point x="835" y="637"/>
      <point x="826" y="635"/>
      <point x="812" y="635" type="curve" smooth="yes"/>
      <point x="784" y="635"/>
      <point x="765" y="644"/>
      <point x="741" y="654" type="curve" smooth="yes"/>
      <point x="710" y="668"/>
      <point x="669" y="683"/>
      <point x="584" y="683" type="curve" smooth="yes"/>
      <point x="282" y="683"/>
      <point x="84" y="476"/>
      <point x="84" y="249" type="curve" smooth="yes"/>
      <point x="84" y="112"/>
      <point x="176" y="-11"/>
    </contour>
  </outline>
</glyph>
<glyph name="H" format="2">
  <advance width="876"/>
  <unicode hex="0048"/>
  <outline>
    <contour>
      <point x="407" y="0" type="line"/>
      <point x="757" y="0" type="line"/>
      <point x="766" y="22" type="line"/>
      <point x="719" y="33" type="line" smooth="yes"/>
      <point x="677" y="43"/>
      <point x="672" y="50"/>
      <point x="689" y="92" type="curve" smooth="yes"/>
      <point x="887" y="581" type="line" smooth="yes"/>
      <point x="904" y="623"/>
      <point x="915" y="630"/>
      <point x="965" y="640" type="curve" smooth="yes"/>
      <point x="1020" y="651" type="line"/>
      <point x="1029" y="673" type="line"/>
      <point x="679" y="673" type="line"/>
      <point x="670" y="651" type="line"/>
      <point x="717" y="640" type="line" smooth="yes"/>
      <point x="759" y="630"/>
      <point x="764" y="623"/>
      <point x="747" y="581" type="curve" smooth="yes"/>
      <point x="549" y="92" type="line" smooth="yes"/>
      <point x="532" y="50"/>
      <point x="521" y="43"/>
      <point x="471" y="33" type="curve" smooth="yes"/>
      <point x="416" y="22" type="line"/>
    </contour>
    <contour>
      <point x="-59" y="0" type="line"/>
      <point x="291" y="0" type="line"/>
      <point x="300" y="22" type="line"/>
      <point x="253" y="33" type="line" smooth="yes"/>
      <point x="211" y="43"/>
      <point x="206" y="50"/>
      <point x="223" y="92" type="curve" smooth="yes"/>
      <point x="421" y="581" type="line" smooth="yes"/>
      <point x="438" y="623"/>
      <point x="449" y="630"/>
      <point x="499" y="640" type="curve" smooth="yes"/>
      <point x="554" y="651" type="line"/>
      <point x="563" y="673" type="line"/>
      <point x="213" y="673" type="line"/>
      <point x="204" y="651" type="line"/>
      <point x="251" y="640" type="line" smooth="yes"/>
      <point x="293" y="630"/>
      <point x="298" y="623"/>
      <point x="281" y="581" type="curve" smooth="yes"/>
      <point x="83" y="92" type="line" smooth="yes"/>
      <point x="66" y="50"/>
      <point x="55" y="43"/>
      <point x="5" y="33" type="curve" smooth="yes"/>
      <point x="-50" y="22" type="line"/>
    </contour>
    <contour>
      <point x="306" y="341" type="line"/>
      <point x="690" y="341" type="line"/>
      <point x="703" y="374" type="line"/>
      <point x="319" y="374" type="line"/>
    </contour>
  </outline>
</glyph>
<glyph name="I" format="2">
  <advance width="410"/>
  <unicode hex="0049"/>
  <anchor x="392" y="690" name="topcase"/>
  <outline>
    <contour>
      <point x="-59" y="0" type="line"/>
      <point x="291" y="0" type="line"/>
      <point x="300" y="22" type="line"/>
      <point x="253" y="33" type="line" smooth="yes"/>
      <point x="211" y="43"/>
      <point x="206" y="50"/>
      <point x="223" y="92" type="curve" smooth="yes"/>
      <point x="421" y="581" type="line" smooth="yes"/>
      <point x="438" y="623"/>
      <point x="449" y="630"/>
      <point x="499" y="640" type="curve" smooth="yes"/>
      <point x="554" y="651" type="line"/>
      <point x="563" y="673" type="line"/>
      <point x="213" y="673" type="line"/>
      <point x="204" y="651" type="line"/>
      <point x="251" y="640" type="line" smooth="yes"/>
      <point x="293" y="630"/>
      <point x="298" y="623"/>
      <point x="281" y="581" type="curve" smooth="yes"/>
      <point x="83" y="92" type="line" smooth="yes"/>
      <point x="66" y="50"/>
      <point x="55" y="43"/>
      <point x="5" y="33" type="curve" smooth="yes"/>
      <point x="-50" y="22" type="line"/>
    </contour>
  </outline>
</glyph>
<glyph name="K" format="2">
  <advance width="789"/>
  <unicode hex="004B"/>
  <outline>
    <contour>
      <point x="624" y="0" type="curve" smooth="yes"/>
      <point x="690" y="0" type="line"/>
      <point x="699" y="23" type="line"/>
      <point x="663" y="23"/>
      <point x="650" y="37"/>
      <point x="634" y="64" type="curve" smooth="yes"/>
      <point x="454" y="373" type="line"/>
      <point x="743" y="582" type="line" smooth="yes"/>
      <point x="802" y="625"/>
      <point x="832" y="635"/>
      <point x="874" y="644" type="curve" smooth="yes"/>
      <point x="907" y="651" type="line"/>
      <point x="916" y="673" type="line"/>
      <point x="647" y="673" type="line"/>
      <point x="638" y="651" type="line"/>
      <point x="711" y="636" type="line" smooth="yes"/>
      <point x="723" y="634"/>
      <point x="728" y="629"/>
      <point x="728" y="622" type="curve" smooth="yes"/>
      <point x="728" y="614"/>
      <point x="720" y="605"/>
      <point x="709" y="597" type="curve" smooth="yes"/>
      <point x="339" y="333" type="line"/>
      <point x="335" y="324" type="line"/>
      <point x="485" y="71" type="line" smooth="yes"/>
      <point x="511" y="28"/>
      <point x="552" y="0"/>
    </contour>
    <contour>
      <point x="-59" y="0" type="line"/>
      <point x="291" y="0" type="line"/>
      <point x="300" y="22" type="line"/>
      <point x="253" y="33" type="line" smooth="yes"/>
      <point x="213" y="43"/>
      <point x="205" y="48"/>
      <point x="223" y="92" type="curve" smooth="yes"/>
      <point x="421" y="581" type="line" smooth="yes"/>
      <point x="438" y="623"/>
      <point x="449" y="630"/>
      <point x="499" y="640" type="curve" smooth="yes"/>
      <point x="554" y="651" type="line"/>
      <point x="563" y="673" type="line"/>
      <point x="213" y="673" type="line"/>
      <point x="204" y="651" type="line"/>
      <point x="251" y="640" type="line" smooth="yes"/>
      <point x="291" y="630"/>
      <point x="299" y="625"/>
      <point x="281" y="581" type="curve" smooth="yes"/>
      <point x="83" y="92" type="line" smooth="yes"/>
      <point x="66" y="50"/>
      <point x="55" y="43"/>
      <point x="5" y="33" type="curve" smooth="yes"/>
      <point x="-50" y="22" type="line"/>
    </contour>
  </outline>
</glyph>
<glyph name="L" format="2">
  <advance width="702"/>
  <unicode hex="004C"/>
  <anchor x="392" y="690" name="topcase"/>
  <outline>
    <contour>
      <point x="-59" y="0" type="line"/>
      <point x="578" y="0" type="line"/>
      <point x="603" y="61"/>
      <point x="649" y="138"/>
      <point x="687" y="197" type="curve"/>
      <point x="665" y="197" type="line"/>
      <point x="587" y="120" type="line" smooth="yes"/>
      <point x="528" y="62"/>
      <point x="470" y="33"/>
      <point x="394" y="33" type="curve" smooth="yes"/>
      <point x="268" y="33" type="line" smooth="yes"/>
      <point x="215" y="33"/>
      <point x="209" y="56"/>
      <point x="223" y="92" type="curve" smooth="yes"/>
      <point x="421" y="581" type="line" smooth="yes"/>
      <point x="438" y="623"/>
      <point x="449" y="630"/>
      <point x="499" y="640" type="curve" smooth="yes"/>
      <point x="554" y="651" type="line"/>
      <point x="563" y="673" type="line"/>
      <point x="213" y="673" type="line"/>
      <point x="204" y="651" type="line"/>
      <point x="251" y="640" type="line" smooth="yes"/>
      <point x="293" y="630"/>
      <point x="298" y="623"/>
      <point x="281" y="581" type="curve" smooth="yes"/>
      <point x="83" y="92" type="line" smooth="yes"/>
      <point x="66" y="50"/>
      <point x="55" y="43"/>
      <point x="5" y="33" type="curve" smooth="yes"/>
      <point x="-50" y="22" type="line"/>
    </contour>
  </outline>
</glyph>
<glyph name="M" format="2">
  <advance width="979"/>
  <unicode hex="004D"/>
  <outline>
    <contour>
      <point x="350" y="-6" type="line"/>
      <point x="365" y="-6" type="line"/>
      <point x="825" y="561" type="line"/>
      <point x="654" y="92" type="line" smooth="yes"/>
      <point x="639" y="50"/>
      <point x="626" y="43"/>
      <point x="576" y="33" type="curve" smooth="yes"/>
      <point x="521" y="22" type="line"/>
      <point x="512" y="0" type="line"/>
      <point x="860" y="0" type="line"/>
      <point x="869" y="22" type="line"/>
      <point x="822" y="33" type="line" smooth="yes"/>
      <point x="780" y="43"/>
      <point x="777" y="50"/>
      <point x="792" y="92" type="curve" smooth="yes"/>
      <point x="971" y="581" type="line" smooth="yes"/>
      <point x="986" y="623"/>
      <point x="999" y="630"/>
      <point x="1049" y="640" type="curve" smooth="yes"/>
      <point x="1105" y="651" type="line"/>
      <point x="1114" y="673" type="line"/>
      <point x="872" y="673" type="line"/>
      <point x="478" y="185" type="line"/>
      <point x="472" y="673" type="line"/>
      <point x="239" y="673" type="line"/>
      <point x="230" y="651" type="line"/>
      <point x="274" y="640" type="line" smooth="yes"/>
      <point x="316" y="630"/>
      <point x="323" y="623"/>
      <point x="304" y="581" type="curve" smooth="yes"/>
      <point x="89" y="92" type="line" smooth="yes"/>
      <point x="73" y="56"/>
      <point x="51" y="43"/>
      <point x="13" y="35" type="curve" smooth="yes"/>
      <point x="-50" y="22" type="line"/>
      <point x="-59" y="0" type="line"/>
      <point x="215" y="0" type="line"/>
      <point x="224" y="22" type="line"/>
      <point x="157" y="37" type="line" smooth="yes"/>
      <point x="124" y="44"/>
      <point x="110" y="59"/>
      <point x="125" y="92" type="curve" smooth="yes"/>
      <point x="342" y="578" type="line"/>
    </contour>
  </outline>
</glyph>
<glyph name="N" format="2">
  <advance width="832"/>
  <unicode hex="004E"/>
  <anchor x="613" y="690" name="topcase"/>
  <outline>
    <contour>
      <point x="598" y="-16" type="line"/>
      <point x="610" y="-16" type="line"/>
      <point x="850" y="581" type="line" smooth="yes"/>
      <point x="865" y="617"/>
      <point x="888" y="630"/>
      <point x="927" y="638" type="curve" smooth="yes"/>
      <point x="991" y="651" type="line"/>
      <point x="999" y="673" type="line"/>
      <point x="724" y="673" type="line"/>
      <point x="716" y="651" type="line"/>
      <point x="782" y="636" type="line" smooth="yes"/>
      <point x="816" y="629"/>
      <point x="827" y="614"/>
      <point x="814" y="581" type="curve" smooth="yes"/>
      <point x="654" y="177" type="line"/>
      <point x="410" y="673" type="line"/>
      <point x="220" y="673" type="line"/>
      <point x="212" y="651" type="line"/>
      <point x="258" y="640" type="line" smooth="yes"/>
      <point x="300" y="630"/>
      <point x="305" y="623"/>
      <point x="288" y="581" type="curve" smooth="yes"/>
      <point x="91" y="92" type="line" smooth="yes"/>
      <point x="76" y="56"/>
      <point x="53" y="43"/>
      <point x="14" y="35" type="curve" smooth="yes"/>
      <point x="-50" y="22" type="line"/>
      <point x="-59" y="0" type="line"/>
      <point x="216" y="0" type="line"/>
      <point x="225" y="22" type="line"/>
      <point x="158" y="37" type="line" smooth="yes"/>
      <point x="125" y="44"/>
      <point x="114" y="59"/>
      <point x="127" y="92" type="curve" smooth="yes"/>
      <point x="319" y="567" type="line"/>
    </contour>
  </outline>
</glyph>
<glyph name="O" format="2">
  <advance width="825"/>
  <unicode hex="004F"/>
  <guideline x="520" y="659" angle="90"/>
  <anchor x="549" y="690" name="topcase"/>
  <outline>
    <contour>
      <point x="388" y="-8" type="curve" smooth="yes"/>
      <point x="626" y="-8"/>
      <point x="850" y="181"/>
      <point x="850" y="413" type="curve" smooth="yes"/>
      <point x="850" y="568"/>
      <point x="739" y="683"/>
      <point x="549" y="683" type="curve" smooth="yes"/>
      <point x="311" y="683"/>
      <point x="87" y="494"/>
      <point x="87" y="262" type="curve" smooth="yes"/>
      <point x="87" y="107"/>
      <point x="198" y="-8"/>
    </contour>
    <contour>
      <point x="409" y="27" type="curve" smooth="yes"/>
      <point x="295" y="27"/>
      <point x="237" y="107"/>
      <point x="237" y="234" type="curve" smooth="yes"/>
      <point x="237" y="408"/>
      <point x="356" y="649"/>
      <point x="534" y="649" type="curve" smooth="yes"/>
      <point x="648" y="649"/>
      <point x="706" y="569"/>
      <point x="706" y="442" type="curve" smooth="yes"/>
      <point x="706" y="268"/>
      <point x="587" y="27"/>
    </contour>
  </outline>
</glyph>
<glyph name="P" format="2">
  <advance width="665"/>
  <unicode hex="0050"/>
  <outline>
    <contour>
      <point x="-59" y="0" type="line"/>
      <point x="300" y="0" type="line"/>
      <point x="309" y="22" type="line"/>
      <point x="253" y="33" type="line" smooth="yes"/>
      <point x="210" y="41"/>
      <point x="207" y="51"/>
      <point x="223" y="92" type="curve" smooth="yes"/>
      <point x="445" y="640" type="line"/>
      <point x="481" y="640" type="line" smooth="yes"/>
      <point x="560" y="640"/>
      <point x="608" y="612"/>
      <point x="608" y="541" type="curve" smooth="yes"/>
      <point x="608" y="407"/>
      <point x="487" y="290"/>
      <point x="347" y="281" type="curve"/>
      <point x="345" y="274" type="line"/>
      <point x="361" y="269"/>
      <point x="381" y="266"/>
      <point x="403" y="266" type="curve" smooth="yes"/>
      <point x="559" y="266"/>
      <point x="748" y="374"/>
      <point x="748" y="523" type="curve" smooth="yes"/>
      <point x="748" y="624"/>
      <point x="653" y="673"/>
      <point x="507" y="673" type="curve" smooth="yes"/>
      <point x="213" y="673" type="line"/>
      <point x="204" y="651" type="line"/>
      <point x="251" y="640" type="line" smooth="yes"/>
      <point x="291" y="630"/>
      <point x="299" y="625"/>
      <point x="281" y="581" type="curve" smooth="yes"/>
      <point x="83" y="92" type="line" smooth="yes"/>
      <point x="66" y="50"/>
      <point x="55" y="43"/>
      <point x="5" y="33" type="curve" smooth="yes"/>
      <point x="-50" y="22" type="line"/>
    </contour>
  </outline>
</glyph>
<glyph name="Q" format="2">
  <advance width="825"/>
  <unicode hex="0051"/>
  <guideline x="62" y="94" angle="68"/>
  <guideline x="817" y="82" angle="68"/>
  <outline>
    <contour>
      <point x="557" y="-259" type="curve" smooth="yes"/>
      <point x="643" y="-259"/>
      <point x="706" y="-219"/>
      <point x="735" y="-118" type="curve"/>
      <point x="708" y="-111" type="line"/>
      <point x="692" y="-138"/>
      <point x="669" y="-166"/>
      <point x="617" y="-166" type="curve" smooth="yes"/>
      <point x="555" y="-166"/>
      <point x="489" y="-129"/>
      <point x="422" y="-89" type="curve" smooth="yes"/>
      <point x="348" y="-44"/>
      <point x="261" y="3"/>
      <point x="149" y="3" type="curve" smooth="yes"/>
      <point x="51" y="3"/>
      <point x="-5" y="-36"/>
      <point x="-5" y="-89" type="curve" smooth="yes"/>
      <point x="-5" y="-124"/>
      <point x="18" y="-142"/>
      <point x="44" y="-142" type="curve" smooth="yes"/>
      <point x="84" y="-142"/>
      <point x="90" y="-114"/>
      <point x="96" y="-87" type="curve" smooth="yes"/>
      <point x="103" y="-58"/>
      <point x="102" y="-30"/>
      <point x="146" y="-30" type="curve" smooth="yes"/>
      <point x="191" y="-30"/>
      <point x="248" y="-72"/>
      <point x="310" y="-121" type="curve" smooth="yes"/>
      <point x="388" y="-183"/>
      <point x="478" y="-259"/>
    </contour>
    <component base="O"/>
  </outline>
</glyph>
<glyph name="R" format="2">
  <advance width="839"/>
  <unicode hex="0052"/>
  <anchor x="536" y="690" name="topcase"/>
  <outline>
    <contour>
      <point x="665" y="-16" type="curve" smooth="yes"/>
      <point x="692" y="-16"/>
      <point x="714" y="-14"/>
      <point x="743" y="-5" type="curve"/>
      <point x="752" y="19" type="line"/>
      <point x="687" y="19"/>
      <point x="657" y="88"/>
      <point x="622" y="159" type="curve" smooth="yes"/>
      <point x="584" y="235"/>
      <point x="542" y="314"/>
      <point x="460" y="314" type="curve"/>
      <point x="461" y="316" type="line"/>
      <point x="597" y="329"/>
      <point x="750" y="423"/>
      <point x="750" y="545" type="curve" smooth="yes"/>
      <point x="750" y="627"/>
      <point x="659" y="673"/>
      <point x="480" y="673" type="curve" smooth="yes"/>
      <point x="213" y="673" type="line"/>
      <point x="205" y="651" type="line"/>
      <point x="251" y="640" type="line" smooth="yes"/>
      <point x="293" y="630"/>
      <point x="298" y="623"/>
      <point x="281" y="581" type="curve" smooth="yes"/>
      <point x="84" y="92" type="line" smooth="yes"/>
      <point x="67" y="50"/>
      <point x="56" y="43"/>
      <point x="7" y="33" type="curve" smooth="yes"/>
      <point x="-49" y="22" type="line"/>
      <point x="-57" y="0" type="line"/>
      <point x="292" y="0" type="line"/>
      <point x="300" y="22" type="line"/>
      <point x="254" y="33" type="line" smooth="yes"/>
      <point x="212" y="43"/>
      <point x="207" y="50"/>
      <point x="224" y="92" type="curve" smooth="yes"/>
      <point x="305" y="294" type="line"/>
      <point x="336" y="294" type="line" smooth="yes"/>
      <point x="411" y="294"/>
      <point x="443" y="221"/>
      <point x="482" y="146" type="curve" smooth="yes"/>
      <point x="537" y="41"/>
      <point x="580" y="-16"/>
    </contour>
    <contour>
      <point x="319" y="327" type="line"/>
      <point x="445" y="640" type="line"/>
      <point x="467" y="640" type="line" smooth="yes"/>
      <point x="558" y="640"/>
      <point x="608" y="604"/>
      <point x="608" y="543" type="curve" smooth="yes"/>
      <point x="608" y="413"/>
      <point x="486" y="327"/>
      <point x="354" y="327" type="curve" smooth="yes"/>
    </contour>
  </outline>
</glyph>
<glyph name="T" format="2">
  <advance width="704"/>
  <unicode hex="0054"/>
  <anchor x="543" y="690" name="topcase"/>
  <outline>
    <contour>
      <point x="88" y="0" type="line"/>
      <point x="438" y="0" type="line"/>
      <point x="447" y="22" type="line"/>
      <point x="400" y="33" type="line" smooth="yes"/>
      <point x="358" y="43"/>
      <point x="353" y="50"/>
      <point x="370" y="92" type="curve" smooth="yes"/>
      <point x="592" y="640" type="line"/>
      <point x="665" y="640" type="line" smooth="yes"/>
      <point x="752" y="640"/>
      <point x="784" y="564"/>
      <point x="770" y="476" type="curve"/>
      <point x="797" y="476" type="line"/>
      <point x="808" y="530"/>
      <point x="831" y="613"/>
      <point x="865" y="673" type="curve"/>
      <point x="205" y="673" type="line"/>
      <point x="191" y="613"/>
      <point x="146" y="530"/>
      <point x="113" y="476" type="curve"/>
      <point x="140" y="476" type="line"/>
      <point x="198" y="564"/>
      <point x="292" y="640"/>
      <point x="379" y="640" type="curve"/>
      <point x="452" y="640" type="line"/>
      <point x="230" y="92" type="line" smooth="yes"/>
      <point x="213" y="50"/>
      <point x="202" y="43"/>
      <point x="152" y="33" type="curve" smooth="yes"/>
      <point x="97" y="22" type="line"/>
    </contour>
  </outline>
</glyph>
<glyph name="U" format="2">
  <advance width="765"/>
  <unicode hex="0055"/>
  <anchor x="600" y="690" name="topcase"/>
  <outline>
    <contour>
      <point x="290" y="-11" type="curve" smooth="yes"/>
      <point x="398" y="-11"/>
      <point x="463" y="30"/>
      <point x="509" y="65" type="curve" smooth="yes"/>
      <point x="542" y="89"/>
      <point x="565" y="109"/>
      <point x="587" y="109" type="curve"/>
      <point x="779" y="581" type="line" smooth="yes"/>
      <point x="794" y="617"/>
      <point x="816" y="630"/>
      <point x="856" y="638" type="curve" smooth="yes"/>
      <point x="919" y="651" type="line"/>
      <point x="928" y="673" type="line"/>
      <point x="653" y="673" type="line"/>
      <point x="644" y="651" type="line"/>
      <point x="711" y="636" type="line" smooth="yes"/>
      <point x="744" y="629"/>
      <point x="756" y="614"/>
      <point x="743" y="581" type="curve" smooth="yes"/>
      <point x="595" y="216" type="line" smooth="yes"/>
      <point x="558" y="124"/>
      <point x="458" y="57"/>
      <point x="361" y="57" type="curve" smooth="yes"/>
      <point x="251" y="57"/>
      <point x="219" y="120"/>
      <point x="260" y="220" type="curve" smooth="yes"/>
      <point x="406" y="581" type="line" smooth="yes"/>
      <point x="423" y="623"/>
      <point x="433" y="630"/>
      <point x="483" y="640" type="curve" smooth="yes"/>
      <point x="539" y="651" type="line"/>
      <point x="548" y="673" type="line"/>
      <point x="198" y="673" type="line"/>
      <point x="189" y="651" type="line"/>
      <point x="235" y="640" type="line" smooth="yes"/>
      <point x="277" y="630"/>
      <point x="283" y="623"/>
      <point x="266" y="581" type="curve" smooth="yes"/>
      <point x="133" y="252" type="line" smooth="yes"/>
      <point x="73" y="105"/>
      <point x="146" y="-11"/>
    </contour>
  </outline>
</glyph>
<glyph name="V" format="2">
  <advance width="769"/>
  <unicode hex="0056"/>
  <outline>
    <contour>
      <point x="261" y="-15" type="line"/>
      <point x="304" y="-15" type="line"/>
      <point x="803" y="602" type="line" smooth="yes"/>
      <point x="822" y="625"/>
      <point x="842" y="633"/>
      <point x="870" y="638" type="curve" smooth="yes"/>
      <point x="938" y="651" type="line"/>
      <point x="947" y="673" type="line"/>
      <point x="666" y="673" type="line"/>
      <point x="657" y="651" type="line"/>
      <point x="725" y="634" type="line" smooth="yes"/>
      <point x="752" y="628"/>
      <point x="763" y="619"/>
      <point x="756" y="602" type="curve" smooth="yes"/>
      <point x="754" y="597"/>
      <point x="750" y="591"/>
      <point x="745" y="585" type="curve" smooth="yes"/>
      <point x="371" y="121" type="line"/>
      <point x="391" y="121" type="line"/>
      <point x="395" y="582" type="line" smooth="yes"/>
      <point x="395" y="590"/>
      <point x="397" y="598"/>
      <point x="399" y="604" type="curve" smooth="yes"/>
      <point x="407" y="623"/>
      <point x="427" y="633"/>
      <point x="463" y="640" type="curve" smooth="yes"/>
      <point x="518" y="651" type="line"/>
      <point x="527" y="673" type="line"/>
      <point x="188" y="673" type="line"/>
      <point x="179" y="651" type="line"/>
      <point x="229" y="639" type="line" smooth="yes"/>
      <point x="244" y="636"/>
      <point x="256" y="629"/>
      <point x="256" y="614" type="curve" smooth="yes"/>
    </contour>
  </outline>
</glyph>
<glyph name="W" format="2">
  <advance width="1123"/>
  <unicode hex="0057"/>
  <anchor x="763" y="690" name="topcase"/>
  <outline>
    <contour>
      <point x="246" y="-15" type="line"/>
      <point x="294" y="-15" type="line"/>
      <point x="643" y="481" type="line"/>
      <point x="632" y="-15" type="line"/>
      <point x="680" y="-15" type="line"/>
      <point x="1151" y="597" type="line" smooth="yes"/>
      <point x="1168" y="620"/>
      <point x="1192" y="632"/>
      <point x="1220" y="637" type="curve" smooth="yes"/>
      <point x="1289" y="651" type="line"/>
      <point x="1297" y="673" type="line"/>
      <point x="1018" y="673" type="line"/>
      <point x="1010" y="651" type="line"/>
      <point x="1066" y="637" type="line" smooth="yes"/>
      <point x="1118" y="624"/>
      <point x="1123" y="618"/>
      <point x="1106" y="595" type="curve" smooth="yes"/>
      <point x="740" y="117" type="line"/>
      <point x="765" y="107" type="line"/>
      <point x="772" y="591" type="line" smooth="yes"/>
      <point x="772" y="620"/>
      <point x="797" y="633"/>
      <point x="823" y="638" type="curve" smooth="yes"/>
      <point x="892" y="651" type="line"/>
      <point x="900" y="673" type="line"/>
      <point x="603" y="673" type="line"/>
      <point x="595" y="651" type="line"/>
      <point x="659" y="638" type="line" smooth="yes"/>
      <point x="683" y="633"/>
      <point x="690" y="618"/>
      <point x="672" y="591" type="curve" smooth="yes"/>
      <point x="355" y="123" type="line"/>
      <point x="380" y="115" type="line"/>
      <point x="387" y="582" type="line" smooth="yes"/>
      <point x="387" y="616"/>
      <point x="406" y="631"/>
      <point x="454" y="640" type="curve" smooth="yes"/>
      <point x="510" y="651" type="line"/>
      <point x="518" y="673" type="line"/>
      <point x="191" y="673" type="line"/>
      <point x="183" y="651" type="line"/>
      <point x="233" y="639" type="line" smooth="yes"/>
      <point x="257" y="634"/>
      <point x="261" y="624"/>
      <point x="260" y="597" type="curve" smooth="yes"/>
    </contour>
  </outline>
</glyph>
<glyph name="X" format="2">
  <advance width="803"/>
  <unicode hex="0058"/>
  <outline>
    <contour>
      <point x="356" y="0" type="line"/>
      <point x="704" y="0" type="line"/>
      <point x="712" y="22" type="line"/>
      <point x="669" y="32" type="line" smooth="yes"/>
      <point x="651" y="36"/>
      <point x="642" y="46"/>
      <point x="632" y="70" type="curve" smooth="yes"/>
      <point x="507" y="365" type="line"/>
      <point x="500" y="375" type="line"/>
      <point x="410" y="597" type="line" smooth="yes"/>
      <point x="404" y="613"/>
      <point x="412" y="627"/>
      <point x="439" y="632" type="curve" smooth="yes"/>
      <point x="532" y="651" type="line"/>
      <point x="540" y="673" type="line"/>
      <point x="198" y="673" type="line"/>
      <point x="190" y="651" type="line"/>
      <point x="234" y="641" type="line" smooth="yes"/>
      <point x="257" y="635"/>
      <point x="263" y="626"/>
      <point x="270" y="607" type="curve" smooth="yes"/>
      <point x="390" y="310" type="line"/>
      <point x="402" y="300" type="line"/>
      <point x="487" y="91" type="line" smooth="yes"/>
      <point x="497" y="66"/>
      <point x="486" y="46"/>
      <point x="420" y="33" type="curve" smooth="yes"/>
      <point x="364" y="22" type="line"/>
    </contour>
    <contour>
      <point x="-78" y="0" type="line"/>
      <point x="203" y="0" type="line"/>
      <point x="211" y="22" type="line"/>
      <point x="143" y="39" type="line" smooth="yes"/>
      <point x="120" y="45"/>
      <point x="122" y="63"/>
      <point x="150" y="85" type="curve" smooth="yes"/>
      <point x="415" y="300" type="line"/>
      <point x="395" y="332" type="line"/>
      <point x="79" y="71" type="line" smooth="yes"/>
      <point x="56" y="52"/>
      <point x="27" y="40"/>
      <point x="-1" y="35" type="curve" smooth="yes"/>
      <point x="-70" y="22" type="line"/>
    </contour>
    <contour>
      <point x="491" y="336" type="line"/>
      <point x="796" y="602" type="line" smooth="yes"/>
      <point x="819" y="622"/>
      <point x="849" y="633"/>
      <point x="877" y="638" type="curve" smooth="yes"/>
      <point x="946" y="651" type="line"/>
      <point x="954" y="673" type="line"/>
      <point x="672" y="673" type="line"/>
      <point x="664" y="651" type="line"/>
      <point x="732" y="634" type="line" smooth="yes"/>
      <point x="755" y="628"/>
      <point x="752" y="611"/>
      <point x="725" y="588" type="curve" smooth="yes"/>
      <point x="470" y="369" type="line"/>
    </contour>
  </outline>
</glyph>
<glyph name="Y" format="2">
  <advance width="732"/>
  <unicode hex="0059"/>
  <anchor x="576" y="690" name="topcase"/>
  <outline>
    <contour>
      <point x="351" y="250" type="line"/>
      <point x="381" y="257" type="line"/>
      <point x="756" y="602" type="line" smooth="yes"/>
      <point x="778" y="623"/>
      <point x="803" y="633"/>
      <point x="831" y="639" type="curve" smooth="yes"/>
      <point x="891" y="651" type="line"/>
      <point x="900" y="673" type="line"/>
      <point x="621" y="673" type="line"/>
      <point x="612" y="651" type="line"/>
      <point x="689" y="632" type="line" smooth="yes"/>
      <point x="716" y="625"/>
      <point x="714" y="611"/>
      <point x="698" y="596" type="curve" smooth="yes"/>
      <point x="453" y="373" type="line"/>
      <point x="455" y="373" type="line"/>
      <point x="407" y="585" type="line" smooth="yes"/>
      <point x="400" y="614"/>
      <point x="416" y="631"/>
      <point x="463" y="640" type="curve" smooth="yes"/>
      <point x="518" y="651" type="line"/>
      <point x="527" y="673" type="line"/>
      <point x="198" y="673" type="line"/>
      <point x="189" y="651" type="line"/>
      <point x="237" y="639" type="line" smooth="yes"/>
      <point x="252" y="636"/>
      <point x="260" y="629"/>
      <point x="264" y="614" type="curve" smooth="yes"/>
    </contour>
    <contour>
      <point x="84" y="0" type="line"/>
      <point x="434" y="0" type="line"/>
      <point x="443" y="22" type="line"/>
      <point x="396" y="33" type="line" smooth="yes"/>
      <point x="354" y="43"/>
      <point x="349" y="50"/>
      <point x="366" y="92" type="curve" smooth="yes"/>
      <point x="475" y="361" type="line"/>
      <point x="332" y="353" type="line"/>
      <point x="226" y="92" type="line" smooth="yes"/>
      <point x="209" y="50"/>
      <point x="198" y="43"/>
      <point x="148" y="33" type="curve" smooth="yes"/>
      <point x="93" y="22" type="line"/>
    </contour>
  </outline>
</glyph>
<glyph name="Z" format="2">
  <advance width="666"/>
  <unicode hex="005A"/>
  <anchor x="523" y="690" name="topcase"/>
  <outline>
    <contour>
      <point x="-64" y="0" type="line"/>
      <point x="535" y="0" type="line"/>
      <point x="563" y="69"/>
      <point x="599" y="133"/>
      <point x="644" y="204" type="curve"/>
      <point x="622" y="204" type="line"/>
      <point x="547" y="106"/>
      <point x="427" y="33"/>
      <point x="313" y="33" type="curve" smooth="yes"/>
      <point x="149" y="33" type="line"/>
      <point x="799" y="652" type="line"/>
      <point x="808" y="673" type="line"/>
      <point x="253" y="673" type="line"/>
      <point x="247" y="653"/>
      <point x="243" y="635"/>
      <point x="235" y="616" type="curve" smooth="yes"/>
      <point x="216" y="568"/>
      <point x="189" y="516"/>
      <point x="160" y="471" type="curve"/>
      <point x="182" y="471" type="line"/>
      <point x="260" y="568"/>
      <point x="350" y="640"/>
      <point x="481" y="640" type="curve" smooth="yes"/>
      <point x="606" y="640" type="line"/>
      <point x="-57" y="18" type="line"/>
    </contour>
  </outline>
</glyph>
<glyph name="bracketleft" format="2">
  <advance width="261"/>
  <unicode hex="005B"/>
  <outline>
    <contour>
      <point x="-146" y="-214" type="line"/>
      <point x="59" y="-214" type="line"/>
      <point x="80" y="-164" type="line"/>
      <point x="-30" y="-164" type="line"/>
      <point x="316" y="694" type="line"/>
      <point x="426" y="694" type="line"/>
      <point x="447" y="744" type="line"/>
      <point x="242" y="744" type="line"/>
    </contour>
  </outline>
</glyph>
<glyph name="bracketright" format="2">
  <advance width="261"/>
  <unicode hex="005D"/>
  <outline>
    <contour>
      <point x="442" y="744" type="line"/>
      <point x="237" y="744" type="line"/>
      <point x="216" y="694" type="line"/>
      <point x="326" y="694" type="line"/>
      <point x="-20" y="-164" type="line"/>
      <point x="-130" y="-164" type="line"/>
      <point x="-151" y="-214" type="line"/>
      <point x="54" y="-214" type="line"/>
    </contour>
  </outline>
</glyph>
<glyph name="asciicircum" format="2">
  <advance width="576"/>
  <unicode hex="005E"/>
  <outline>
    <contour>
      <point x="57" y="289" type="line"/>
      <point x="145" y="289" type="line"/>
      <point x="477" y="622" type="line"/>
      <point x="421" y="622" type="line"/>
      <point x="485" y="289" type="line"/>
      <point x="573" y="289" type="line"/>
      <point x="509" y="677" type="line"/>
      <point x="433" y="677" type="line"/>
    </contour>
  </outline>
</glyph>
<glyph name="b" format="2">
  <advance width="475"/>
  <unicode hex="0062"/>
  <outline>
    <contour>
      <point x="137" y="-8" type="curve" smooth="yes"/>
      <point x="271" y="-8"/>
      <point x="489" y="243"/>
      <point x="489" y="376" type="curve" smooth="yes"/>
      <point x="489" y="435"/>
      <point x="458" y="451"/>
      <point x="420" y="451" type="curve" smooth="yes"/>
      <point x="351" y="451"/>
      <point x="276" y="398"/>
      <point x="215" y="316" type="curve"/>
      <point x="213" y="316" type="line"/>
      <point x="332" y="609" type="line" smooth="yes"/>
      <point x="344" y="639"/>
      <point x="359" y="675"/>
      <point x="377" y="705" type="curve"/>
      <point x="363" y="712" type="line"/>
      <point x="308" y="689"/>
      <point x="263" y="685"/>
      <point x="193" y="673" type="curve"/>
      <point x="188" y="655" type="line"/>
      <point x="213" y="648" type="line" smooth="yes"/>
      <point x="229" y="644"/>
      <point x="240" y="633"/>
      <point x="230" y="608" type="curve" smooth="yes"/>
      <point x="55" y="161" type="line" smooth="yes"/>
      <point x="43" y="130"/>
      <point x="37" y="107"/>
      <point x="37" y="84" type="curve" smooth="yes"/>
      <point x="37" y="28"/>
      <point x="76" y="-8"/>
    </contour>
    <contour>
      <point x="186" y="54" type="curve" smooth="yes"/>
      <point x="159" y="54"/>
      <point x="144" y="66"/>
      <point x="144" y="97" type="curve" smooth="yes"/>
      <point x="144" y="186"/>
      <point x="252" y="360"/>
      <point x="338" y="360" type="curve" smooth="yes"/>
      <point x="376" y="360"/>
      <point x="390" y="335"/>
      <point x="390" y="300" type="curve" smooth="yes"/>
      <point x="390" y="246"/>
      <point x="352" y="166"/>
      <point x="302" y="116" type="curve" smooth="yes"/>
      <point x="266" y="78"/>
      <point x="219" y="54"/>
    </contour>
  </outline>
</glyph>
<glyph name="c" format="2">
  <advance width="366"/>
  <unicode hex="0063"/>
  <anchor x="311" y="470" name="top"/>
  <outline>
    <contour>
      <point x="104" y="-8" type="curve" smooth="yes"/>
      <point x="194" y="-8"/>
      <point x="274" y="81"/>
      <point x="326" y="171" type="curve"/>
      <point x="306" y="183" type="line"/>
      <point x="257" y="113"/>
      <point x="214" y="81"/>
      <point x="172" y="81" type="curve" smooth="yes"/>
      <point x="140" y="81"/>
      <point x="110" y="95"/>
      <point x="110" y="158" type="curve" smooth="yes"/>
      <point x="110" y="290"/>
      <point x="203" y="393"/>
      <point x="272" y="393" type="curve" smooth="yes"/>
      <point x="293" y="393"/>
      <point x="296" y="381"/>
      <point x="299" y="363" type="curve" smooth="yes"/>
      <point x="303" y="342"/>
      <point x="307" y="322"/>
      <point x="339" y="322" type="curve" smooth="yes"/>
      <point x="371" y="322"/>
      <point x="385" y="344"/>
      <point x="385" y="375" type="curve" smooth="yes"/>
      <point x="385" y="415"/>
      <point x="358" y="451"/>
      <point x="305" y="451" type="curve" smooth="yes"/>
      <point x="263" y="451"/>
      <point x="213" y="422"/>
      <point x="163" y="377" type="curve" smooth="yes"/>
      <point x="82" y="304"/>
      <point x="10" y="197"/>
      <point x="10" y="92" type="curve" smooth="yes"/>
      <point x="10" y="25"/>
      <point x="50" y="-8"/>
    </contour>
  </outline>
</glyph>
<glyph name="d" format="2">
  <advance width="509"/>
  <unicode hex="0064"/>
  <outline>
    <contour>
      <point x="58" y="-8" type="curve" smooth="yes"/>
      <point x="122" y="-8"/>
      <point x="211" y="51"/>
      <point x="257" y="126" type="curve"/>
      <point x="262" y="126" type="line"/>
      <point x="242" y="76" type="line" smooth="yes"/>
      <point x="224" y="32"/>
      <point x="240" y="-8"/>
      <point x="293" y="-8" type="curve"/>
      <point x="343" y="-8"/>
      <point x="399" y="48"/>
      <point x="479" y="167" type="curve"/>
      <point x="459" y="180" type="line"/>
      <point x="427" y="131"/>
      <point x="370" y="63"/>
      <point x="352" y="63" type="curve" smooth="yes"/>
      <point x="337" y="63"/>
      <point x="334" y="81"/>
      <point x="344" y="105" type="curve" smooth="yes"/>
      <point x="544" y="609" type="line" smooth="yes"/>
      <point x="556" y="640"/>
      <point x="571" y="675"/>
      <point x="589" y="705" type="curve"/>
      <point x="575" y="712" type="line"/>
      <point x="520" y="689"/>
      <point x="477" y="685"/>
      <point x="407" y="673" type="curve"/>
      <point x="402" y="655" type="line"/>
      <point x="427" y="648" type="line" smooth="yes"/>
      <point x="443" y="644"/>
      <point x="454" y="634"/>
      <point x="444" y="608" type="curve" smooth="yes"/>
      <point x="375" y="438" type="line"/>
      <point x="364" y="446"/>
      <point x="349" y="451"/>
      <point x="331" y="451" type="curve"/>
      <point x="272" y="451"/>
      <point x="210" y="405"/>
      <point x="145" y="344" type="curve" smooth="yes"/>
      <point x="54" y="258"/>
      <point x="-14" y="141"/>
      <point x="-14" y="64" type="curve" smooth="yes"/>
      <point x="-14" y="17"/>
      <point x="8" y="-8"/>
    </contour>
    <contour>
      <point x="137" y="81" type="curve" smooth="yes"/>
      <point x="105" y="81"/>
      <point x="86" y="100"/>
      <point x="86" y="145" type="curve" smooth="yes"/>
      <point x="86" y="208"/>
      <point x="124" y="277"/>
      <point x="173" y="327" type="curve" smooth="yes"/>
      <point x="209" y="365"/>
      <point x="256" y="389"/>
      <point x="289" y="389" type="curve" smooth="yes"/>
      <point x="316" y="389"/>
      <point x="331" y="377"/>
      <point x="331" y="346" type="curve" smooth="yes"/>
      <point x="331" y="257"/>
      <point x="223" y="81"/>
    </contour>
  </outline>
</glyph>
<glyph name="e" format="2">
  <advance width="360"/>
  <unicode hex="0065"/>
  <guideline x="179" y="418" angle="90"/>
  <anchor x="312" y="470" name="top"/>
  <outline>
    <contour>
      <point x="100" y="-8" type="curve" smooth="yes"/>
      <point x="172" y="-8"/>
      <point x="270" y="75"/>
      <point x="326" y="173" type="curve"/>
      <point x="307" y="185" type="line"/>
      <point x="264" y="113"/>
      <point x="216" y="80"/>
      <point x="175" y="80" type="curve" smooth="yes"/>
      <point x="135" y="80"/>
      <point x="114" y="106"/>
      <point x="114" y="158" type="curve" smooth="yes"/>
      <point x="114" y="264"/>
      <point x="187" y="393"/>
      <point x="258" y="393" type="curve" smooth="yes"/>
      <point x="277" y="393"/>
      <point x="284" y="382"/>
      <point x="284" y="366" type="curve" smooth="yes"/>
      <point x="284" y="321"/>
      <point x="219" y="250"/>
      <point x="87" y="241" type="curve"/>
      <point x="85" y="212" type="line"/>
      <point x="308" y="241"/>
      <point x="384" y="320"/>
      <point x="384" y="392" type="curve" smooth="yes"/>
      <point x="384" y="425"/>
      <point x="359" y="451"/>
      <point x="309" y="451" type="curve" smooth="yes"/>
      <point x="272" y="451"/>
      <point x="223" y="430"/>
      <point x="179" y="393" type="curve" smooth="yes"/>
      <point x="99" y="325"/>
      <point x="14" y="220"/>
      <point x="14" y="94" type="curve" smooth="yes"/>
      <point x="14" y="37"/>
      <point x="41" y="-8"/>
    </contour>
  </outline>
</glyph>
<glyph name="g" format="2">
  <advance width="523"/>
  <unicode hex="0067"/>
  <anchor x="278" y="470" name="top"/>
  <outline>
    <contour>
      <point x="78" y="-259" type="curve" smooth="yes"/>
      <point x="271" y="-259"/>
      <point x="426" y="-187"/>
      <point x="426" y="-88" type="curve" smooth="yes"/>
      <point x="426" y="-28"/>
      <point x="375" y="5"/>
      <point x="227" y="30" type="curve" smooth="yes"/>
      <point x="98" y="52"/>
      <point x="85" y="59"/>
      <point x="85" y="76" type="curve" smooth="yes"/>
      <point x="85" y="97"/>
      <point x="136" y="105"/>
      <point x="200" y="107" type="curve"/>
      <point x="157" y="124" type="line"/>
      <point x="58" y="123"/>
      <point x="-14" y="91"/>
      <point x="-14" y="56" type="curve" smooth="yes"/>
      <point x="-14" y="4"/>
      <point x="40" y="-22"/>
      <point x="165" y="-44" type="curve" smooth="yes"/>
      <point x="296" y="-67"/>
      <point x="321" y="-87"/>
      <point x="321" y="-121" type="curve" smooth="yes"/>
      <point x="321" y="-178"/>
      <point x="236" y="-219"/>
      <point x="107" y="-219" type="curve" smooth="yes"/>
      <point x="38" y="-219"/>
      <point x="-19" y="-197"/>
      <point x="-19" y="-142" type="curve" smooth="yes"/>
      <point x="-19" y="-71"/>
      <point x="62" y="-31"/>
      <point x="162" y="-3" type="curve"/>
      <point x="114" y="7" type="line"/>
      <point x="-7" y="-20"/>
      <point x="-112" y="-65"/>
      <point x="-112" y="-150" type="curve" smooth="yes"/>
      <point x="-112" y="-221"/>
      <point x="-21" y="-259"/>
    </contour>
    <contour>
      <point x="161" y="-1" type="line"/>
      <point x="226" y="18"/>
      <point x="299" y="34"/>
      <point x="365" y="46" type="curve"/>
      <point x="361" y="68" type="line"/>
      <point x="276" y="55"/>
      <point x="189" y="41"/>
      <point x="111" y="20" type="curve"/>
    </contour>
    <contour>
      <point x="204" y="140" type="curve" smooth="yes"/>
      <point x="163" y="140"/>
      <point x="151" y="173"/>
      <point x="153" y="219" type="curve" smooth="yes"/>
      <point x="156" y="294"/>
      <point x="210" y="419"/>
      <point x="289" y="419" type="curve" smooth="yes"/>
      <point x="305" y="419"/>
      <point x="320" y="415"/>
      <point x="328" y="407" type="curve"/>
      <point x="336" y="390"/>
      <point x="340" y="369"/>
      <point x="340" y="346" type="curve" smooth="yes"/>
      <point x="340" y="256"/>
      <point x="281" y="140"/>
    </contour>
    <contour>
      <point x="212" y="106" type="curve" smooth="yes"/>
      <point x="353" y="106"/>
      <point x="426" y="223"/>
      <point x="426" y="309" type="curve" smooth="yes"/>
      <point x="426" y="338"/>
      <point x="420" y="360"/>
      <point x="406" y="377" type="curve"/>
      <point x="408" y="383" type="line"/>
      <point x="420" y="377"/>
      <point x="428" y="374"/>
      <point x="442" y="374" type="curve" smooth="yes"/>
      <point x="514" y="374"/>
      <point x="563" y="446"/>
      <point x="563" y="497" type="curve" smooth="yes"/>
      <point x="563" y="522"/>
      <point x="549" y="541"/>
      <point x="520" y="541" type="curve" smooth="yes"/>
      <point x="493" y="541"/>
      <point x="470" y="522"/>
      <point x="470" y="483" type="curve" smooth="yes"/>
      <point x="470" y="471"/>
      <point x="479" y="458"/>
      <point x="479" y="448" type="curve" smooth="yes"/>
      <point x="479" y="423"/>
      <point x="461" y="412"/>
      <point x="439" y="412" type="curve" smooth="yes"/>
      <point x="416" y="412"/>
      <point x="395" y="422"/>
      <point x="373" y="430" type="curve" smooth="yes"/>
      <point x="348" y="440"/>
      <point x="320" y="451"/>
      <point x="282" y="451" type="curve" smooth="yes"/>
      <point x="138" y="451"/>
      <point x="65" y="326"/>
      <point x="65" y="233" type="curve" smooth="yes"/>
      <point x="65" y="150"/>
      <point x="139" y="106"/>
    </contour>
  </outline>
</glyph>
<glyph name="l" format="2">
  <advance width="296"/>
  <unicode hex="006C"/>
  <outline>
    <contour>
      <point x="74" y="-8" type="curve" smooth="yes"/>
      <point x="127" y="-8"/>
      <point x="182" y="48"/>
      <point x="266" y="167" type="curve"/>
      <point x="246" y="180" type="line"/>
      <point x="188" y="101"/>
      <point x="157" y="63"/>
      <point x="139" y="63" type="curve" smooth="yes"/>
      <point x="127" y="63"/>
      <point x="119" y="75"/>
      <point x="128" y="99" type="curve" smooth="yes"/>
      <point x="330" y="609" type="line" smooth="yes"/>
      <point x="342" y="640"/>
      <point x="357" y="675"/>
      <point x="375" y="705" type="curve"/>
      <point x="361" y="712" type="line"/>
      <point x="306" y="689"/>
      <point x="263" y="685"/>
      <point x="193" y="673" type="curve"/>
      <point x="188" y="655" type="line"/>
      <point x="213" y="648" type="line" smooth="yes"/>
      <point x="229" y="644"/>
      <point x="240" y="634"/>
      <point x="230" y="608" type="curve" smooth="yes"/>
      <point x="19" y="76" type="line" smooth="yes"/>
      <point x="0" y="28"/>
      <point x="27" y="-8"/>
    </contour>
  </outline>
</glyph>
<glyph name="m" format="2">
  <advance width="836"/>
  <unicode hex="006D"/>
  <outline>
    <contour>
      <point x="17" y="-12" type="line"/>
      <point x="123" y="0" type="line"/>
      <point x="198" y="195"/>
      <point x="355" y="368"/>
      <point x="402" y="368" type="curve" smooth="yes"/>
      <point x="418" y="368"/>
      <point x="422" y="356"/>
      <point x="414" y="336" type="curve" smooth="yes"/>
      <point x="276" y="-12" type="line"/>
      <point x="382" y="0" type="line"/>
      <point x="457" y="195"/>
      <point x="614" y="368"/>
      <point x="661" y="368" type="curve" smooth="yes"/>
      <point x="677" y="368"/>
      <point x="681" y="356"/>
      <point x="673" y="336" type="curve" smooth="yes"/>
      <point x="575" y="86" type="line" smooth="yes"/>
      <point x="554" y="33"/>
      <point x="572" y="-8"/>
      <point x="624" y="-8" type="curve" smooth="yes"/>
      <point x="675" y="-8"/>
      <point x="728" y="48"/>
      <point x="809" y="167" type="curve"/>
      <point x="789" y="180" type="line"/>
      <point x="757" y="131"/>
      <point x="700" y="63"/>
      <point x="682" y="63" type="curve" smooth="yes"/>
      <point x="668" y="63"/>
      <point x="662" y="75"/>
      <point x="672" y="100" type="curve" smooth="yes"/>
      <point x="775" y="362" type="line" smooth="yes"/>
      <point x="795" y="412"/>
      <point x="780" y="451"/>
      <point x="733" y="451" type="curve" smooth="yes"/>
      <point x="628" y="451"/>
      <point x="515" y="286"/>
      <point x="452" y="184" type="curve"/>
      <point x="450" y="184" type="line"/>
      <point x="523" y="356" type="line" smooth="yes"/>
      <point x="545" y="409"/>
      <point x="536" y="451"/>
      <point x="482" y="451" type="curve" smooth="yes"/>
      <point x="374" y="451"/>
      <point x="258" y="286"/>
      <point x="193" y="184" type="curve"/>
      <point x="191" y="184" type="line"/>
      <point x="266" y="361" type="line" smooth="yes"/>
      <point x="288" y="414"/>
      <point x="268" y="450"/>
      <point x="222" y="450" type="curve" smooth="yes"/>
      <point x="169" y="450"/>
      <point x="114" y="394"/>
      <point x="30" y="275" type="curve"/>
      <point x="50" y="262" type="line"/>
      <point x="82" y="311"/>
      <point x="138" y="379"/>
      <point x="156" y="379" type="curve" smooth="yes"/>
      <point x="167" y="379"/>
      <point x="169" y="370"/>
      <point x="161" y="350" type="curve" smooth="yes"/>
    </contour>
  </outline>
</glyph>
<glyph name="o" format="2">
  <advance width="473"/>
  <unicode hex="006F"/>
  <anchor x="332" y="470" name="top"/>
  <outline>
    <contour>
      <point x="188" y="-9" type="curve" smooth="yes"/>
      <point x="325" y="-9"/>
      <point x="440" y="139"/>
      <point x="440" y="310" type="curve" smooth="yes"/>
      <point x="440" y="391"/>
      <point x="385" y="451"/>
      <point x="292" y="451" type="curve" smooth="yes"/>
      <point x="160" y="451"/>
      <point x="34" y="306"/>
      <point x="34" y="131" type="curve" smooth="yes"/>
      <point x="34" y="39"/>
      <point x="97" y="-9"/>
    </contour>
    <contour>
      <point x="168" y="23" type="curve" smooth="yes"/>
      <point x="142" y="23"/>
      <point x="127" y="46"/>
      <point x="127" y="88" type="curve" smooth="yes"/>
      <point x="127" y="192"/>
      <point x="226" y="418"/>
      <point x="306" y="418" type="curve" smooth="yes"/>
      <point x="334" y="418"/>
      <point x="348" y="396"/>
      <point x="348" y="354" type="curve" smooth="yes"/>
      <point x="348" y="250"/>
      <point x="248" y="23"/>
    </contour>
  </outline>
</glyph>
<glyph name="q" format="2">
  <advance width="455"/>
  <unicode hex="0071"/>
  <outline>
    <contour>
      <point x="31" y="-250" type="line"/>
      <point x="260" y="-250" type="line"/>
      <point x="267" y="-233" type="line"/>
      <point x="240" y="-221" type="line" smooth="yes"/>
      <point x="223" y="-213"/>
      <point x="220" y="-202"/>
      <point x="229" y="-181" type="curve" smooth="yes"/>
      <point x="483" y="456" type="line"/>
      <point x="470" y="456" type="line"/>
      <point x="400" y="412" type="line"/>
      <point x="397" y="412" type="line"/>
      <point x="385" y="435"/>
      <point x="364" y="451"/>
      <point x="331" y="451" type="curve" smooth="yes"/>
      <point x="272" y="451"/>
      <point x="210" y="405"/>
      <point x="145" y="344" type="curve" smooth="yes"/>
      <point x="54" y="258"/>
      <point x="-14" y="141"/>
      <point x="-14" y="64" type="curve" smooth="yes"/>
      <point x="-14" y="17"/>
      <point x="8" y="-8"/>
      <point x="58" y="-8" type="curve" smooth="yes"/>
      <point x="114" y="-8"/>
      <point x="188" y="37"/>
      <point x="237" y="98" type="curve"/>
      <point x="240" y="98" type="line"/>
      <point x="125" y="-188" type="line" smooth="yes"/>
      <point x="119" y="-203"/>
      <point x="105" y="-213"/>
      <point x="80" y="-221" type="curve" smooth="yes"/>
      <point x="38" y="-233" type="line"/>
    </contour>
    <contour>
      <point x="137" y="81" type="curve" smooth="yes"/>
      <point x="105" y="81"/>
      <point x="86" y="100"/>
      <point x="86" y="145" type="curve" smooth="yes"/>
      <point x="86" y="208"/>
      <point x="124" y="277"/>
      <point x="173" y="327" type="curve" smooth="yes"/>
      <point x="209" y="365"/>
      <point x="256" y="389"/>
      <point x="289" y="389" type="curve" smooth="yes"/>
      <point x="316" y="389"/>
      <point x="331" y="377"/>
      <point x="331" y="346" type="curve" smooth="yes"/>
      <point x="331" y="257"/>
      <point x="223" y="81"/>
    </contour>
  </outline>
</glyph>
<glyph name="s" format="2">
  <advance width="375"/>
  <unicode hex="0073"/>
  <anchor x="254" y="470" name="top"/>
  <outline>
    <contour>
      <point x="137" y="-8" type="curve" smooth="yes"/>
      <point x="213" y="-8"/>
      <point x="291" y="37"/>
      <point x="291" y="129" type="curve" smooth="yes"/>
      <point x="291" y="189"/>
      <point x="267" y="219"/>
      <point x="236" y="260" type="curve" smooth="yes"/>
      <point x="212" y="293"/>
      <point x="185" y="332"/>
      <point x="185" y="365" type="curve" smooth="yes"/>
      <point x="185" y="408"/>
      <point x="208" y="425"/>
      <point x="234" y="425" type="curve" smooth="yes"/>
      <point x="260" y="425"/>
      <point x="278" y="410"/>
      <point x="278" y="390" type="curve" smooth="yes"/>
      <point x="278" y="386"/>
      <point x="276" y="377"/>
      <point x="275" y="371" type="curve" smooth="yes"/>
      <point x="274" y="365"/>
      <point x="273" y="359"/>
      <point x="273" y="355" type="curve" smooth="yes"/>
      <point x="273" y="330"/>
      <point x="287" y="310"/>
      <point x="319" y="310" type="curve" smooth="yes"/>
      <point x="349" y="310"/>
      <point x="366" y="332"/>
      <point x="366" y="358" type="curve" smooth="yes"/>
      <point x="366" y="420"/>
      <point x="307" y="452"/>
      <point x="241" y="452" type="curve" smooth="yes"/>
      <point x="154" y="452"/>
      <point x="100" y="399"/>
      <point x="100" y="334" type="curve" smooth="yes"/>
      <point x="100" y="279"/>
      <point x="131" y="237"/>
      <point x="161" y="195" type="curve" smooth="yes"/>
      <point x="185" y="161"/>
      <point x="203" y="131"/>
      <point x="203" y="100" type="curve" smooth="yes"/>
      <point x="203" y="46"/>
      <point x="173" y="21"/>
      <point x="133" y="21" type="curve" smooth="yes"/>
      <point x="100" y="21"/>
      <point x="70" y="39"/>
      <point x="70" y="59" type="curve" smooth="yes"/>
      <point x="70" y="74"/>
      <point x="80" y="83"/>
      <point x="89" y="94" type="curve" smooth="yes"/>
      <point x="96" y="103"/>
      <point x="104" y="114"/>
      <point x="104" y="130" type="curve" smooth="yes"/>
      <point x="104" y="158"/>
      <point x="79" y="176"/>
      <point x="53" y="176" type="curve" smooth="yes"/>
      <point x="26" y="176"/>
      <point x="-3" y="154"/>
      <point x="-3" y="109" type="curve" smooth="yes"/>
      <point x="-3" y="32"/>
      <point x="61" y="-8"/>
    </contour>
  </outline>
</glyph>
<glyph name="t" format="2">
  <advance width="325"/>
  <unicode hex="0074"/>
  <outline>
    <contour>
      <point x="86" y="-8" type="curve" smooth="yes"/>
      <point x="137" y="-8"/>
      <point x="192" y="47"/>
      <point x="273" y="167" type="curve"/>
      <point x="253" y="180" type="line"/>
      <point x="223" y="131"/>
      <point x="170" y="63"/>
      <point x="154" y="63" type="curve" smooth="yes"/>
      <point x="141" y="63"/>
      <point x="134" y="75"/>
      <point x="144" y="100" type="curve" smooth="yes"/>
      <point x="265" y="407" type="line"/>
      <point x="347" y="407" type="line"/>
      <point x="361" y="442" type="line"/>
      <point x="279" y="442" type="line"/>
      <point x="315" y="531" type="line"/>
      <point x="210" y="521" type="line"/>
      <point x="178" y="441" type="line"/>
      <point x="109" y="441" type="line"/>
      <point x="95" y="406" type="line"/>
      <point x="162" y="406" type="line"/>
      <point x="37" y="85" type="line" smooth="yes"/>
      <point x="16" y="31"/>
      <point x="33" y="-8"/>
    </contour>
  </outline>
</glyph>
<glyph name="u" format="2">
  <advance width="575"/>
  <unicode hex="0075"/>
  <anchor x="356" y="470" name="top"/>
  <outline>
    <contour>
      <point x="92" y="-8" type="curve" smooth="yes"/>
      <point x="199" y="-8"/>
      <point x="319" y="157"/>
      <point x="383" y="259" type="curve"/>
      <point x="385" y="259" type="line"/>
      <point x="309" y="81" type="line" smooth="yes"/>
      <point x="286" y="28"/>
      <point x="307" y="-8"/>
      <point x="353" y="-8" type="curve" smooth="yes"/>
      <point x="406" y="-8"/>
      <point x="461" y="48"/>
      <point x="545" y="167" type="curve"/>
      <point x="525" y="180" type="line"/>
      <point x="493" y="131"/>
      <point x="437" y="63"/>
      <point x="419" y="63" type="curve" smooth="yes"/>
      <point x="408" y="63"/>
      <point x="406" y="72"/>
      <point x="414" y="92" type="curve" smooth="yes"/>
      <point x="558" y="454" type="line"/>
      <point x="453" y="443" type="line"/>
      <point x="378" y="248"/>
      <point x="218" y="75"/>
      <point x="171" y="75" type="curve" smooth="yes"/>
      <point x="155" y="75"/>
      <point x="150" y="87"/>
      <point x="159" y="107" type="curve" smooth="yes"/>
      <point x="269" y="357" type="line" smooth="yes"/>
      <point x="292" y="409"/>
      <point x="272" y="450"/>
      <point x="219" y="450" type="curve" smooth="yes"/>
      <point x="166" y="450"/>
      <point x="111" y="394"/>
      <point x="27" y="276" type="curve"/>
      <point x="47" y="263" type="line"/>
      <point x="79" y="312"/>
      <point x="136" y="380"/>
      <point x="154" y="380" type="curve" smooth="yes"/>
      <point x="168" y="380"/>
      <point x="175" y="368"/>
      <point x="164" y="343" type="curve" smooth="yes"/>
      <point x="49" y="81" type="line" smooth="yes"/>
      <point x="27" y="32"/>
      <point x="44" y="-8"/>
    </contour>
  </outline>
</glyph>
<glyph name="w" format="2">
  <advance width="744"/>
  <unicode hex="0077"/>
  <anchor x="491" y="470" name="top"/>
  <outline>
    <contour>
      <point x="233" y="-6" type="curve" smooth="yes"/>
      <point x="382" y="-6"/>
      <point x="552" y="228"/>
      <point x="552" y="354" type="curve" smooth="yes"/>
      <point x="552" y="389"/>
      <point x="534" y="411"/>
      <point x="503" y="411" type="curve" smooth="yes"/>
      <point x="436" y="411"/>
      <point x="348" y="288"/>
      <point x="348" y="143" type="curve" smooth="yes"/>
      <point x="348" y="35"/>
      <point x="387" y="-8"/>
      <point x="451" y="-8" type="curve" smooth="yes"/>
      <point x="609" y="-8"/>
      <point x="725" y="199"/>
      <point x="725" y="371" type="curve" smooth="yes"/>
      <point x="725" y="420"/>
      <point x="702" y="468"/>
      <point x="659" y="468" type="curve" smooth="yes"/>
      <point x="637" y="468"/>
      <point x="601" y="454"/>
      <point x="601" y="408" type="curve" smooth="yes"/>
      <point x="601" y="380"/>
      <point x="616" y="370"/>
      <point x="632" y="355" type="curve" smooth="yes"/>
      <point x="649" y="340"/>
      <point x="666" y="322"/>
      <point x="666" y="279" type="curve" smooth="yes"/>
      <point x="666" y="178"/>
      <point x="599" y="79"/>
      <point x="488" y="79" type="curve" smooth="yes"/>
      <point x="421" y="79"/>
      <point x="404" y="105"/>
      <point x="404" y="179" type="curve" smooth="yes"/>
      <point x="404" y="273"/>
      <point x="449" y="371"/>
      <point x="495" y="371" type="curve" smooth="yes"/>
      <point x="510" y="371"/>
      <point x="517" y="360"/>
      <point x="517" y="334" type="curve" smooth="yes"/>
      <point x="517" y="260"/>
      <point x="415" y="79"/>
      <point x="298" y="79" type="curve" smooth="yes"/>
      <point x="256" y="79"/>
      <point x="231" y="100"/>
      <point x="231" y="165" type="curve" smooth="yes"/>
      <point x="231" y="275"/>
      <point x="274" y="340"/>
      <point x="341" y="418" type="curve" smooth="yes"/>
      <point x="348" y="426"/>
      <point x="360" y="436"/>
      <point x="360" y="446" type="curve" smooth="yes"/>
      <point x="360" y="452"/>
      <point x="356" y="458"/>
      <point x="348" y="458" type="curve" smooth="yes"/>
      <point x="336" y="458"/>
      <point x="333" y="453"/>
      <point x="322" y="445" type="curve"/>
      <point x="307" y="436"/>
      <point x="288" y="433"/>
      <point x="268" y="433" type="curve" smooth="yes"/>
      <point x="249" y="433"/>
      <point x="231" y="439"/>
      <point x="214" y="444" type="curve" smooth="yes"/>
      <point x="199" y="448"/>
      <point x="183" y="452"/>
      <point x="167" y="452" type="curve" smooth="yes"/>
      <point x="98" y="452"/>
      <point x="41" y="394"/>
      <point x="41" y="319" type="curve" smooth="yes"/>
      <point x="41" y="277"/>
      <point x="66" y="241"/>
      <point x="100" y="241" type="curve" smooth="yes"/>
      <point x="131" y="241"/>
      <point x="148" y="258"/>
      <point x="148" y="284" type="curve" smooth="yes"/>
      <point x="148" y="305"/>
      <point x="133" y="317"/>
      <point x="109" y="325" type="curve" smooth="yes"/>
      <point x="95" y="330"/>
      <point x="81" y="336"/>
      <point x="81" y="349" type="curve" smooth="yes"/>
      <point x="81" y="366"/>
      <point x="101" y="374"/>
      <point x="125" y="374" type="curve" smooth="yes"/>
      <point x="139" y="374"/>
      <point x="158" y="370"/>
      <point x="177" y="364" type="curve"/>
      <point x="195" y="359"/>
      <point x="208" y="356"/>
      <point x="228" y="356" type="curve" smooth="yes"/>
      <point x="235" y="356"/>
      <point x="247" y="357"/>
      <point x="256" y="359" type="curve"/>
      <point x="258" y="356" type="line"/>
      <point x="193" y="285"/>
      <point x="132" y="228"/>
      <point x="132" y="96" type="curve" smooth="yes"/>
      <point x="132" y="29"/>
      <point x="178" y="-6"/>
    </contour>
  </outline>
</glyph>
<glyph name="y" format="2">
  <advance width="501"/>
  <unicode hex="0079"/>
  <anchor x="259" y="470" name="top"/>
  <outline>
    <contour>
      <point x="-58" y="-284" type="curve" smooth="yes"/>
      <point x="62" y="-284"/>
      <point x="227" y="-150"/>
      <point x="338" y="3" type="curve" smooth="yes"/>
      <point x="433" y="136"/>
      <point x="478" y="282"/>
      <point x="478" y="375" type="curve" smooth="yes"/>
      <point x="478" y="435"/>
      <point x="454" y="467"/>
      <point x="417" y="467" type="curve" smooth="yes"/>
      <point x="389" y="467"/>
      <point x="354" y="452"/>
      <point x="354" y="411" type="curve" smooth="yes"/>
      <point x="354" y="385"/>
      <point x="370" y="370"/>
      <point x="386" y="360" type="curve" smooth="yes"/>
      <point x="407" y="345"/>
      <point x="429" y="332"/>
      <point x="429" y="289" type="curve" smooth="yes"/>
      <point x="429" y="214"/>
      <point x="353" y="73"/>
      <point x="300" y="18" type="curve"/>
      <point x="296" y="20" type="line"/>
      <point x="316" y="66"/>
      <point x="329" y="130"/>
      <point x="329" y="195" type="curve" smooth="yes"/>
      <point x="329" y="322"/>
      <point x="279" y="452"/>
      <point x="145" y="452" type="curve" smooth="yes"/>
      <point x="68" y="452"/>
      <point x="28" y="398"/>
      <point x="28" y="342" type="curve" smooth="yes"/>
      <point x="28" y="309"/>
      <point x="45" y="272"/>
      <point x="78" y="251" type="curve"/>
      <point x="90" y="265" type="line"/>
      <point x="67" y="284"/>
      <point x="58" y="310"/>
      <point x="58" y="333" type="curve" smooth="yes"/>
      <point x="58" y="373"/>
      <point x="82" y="408"/>
      <point x="129" y="408" type="curve" smooth="yes"/>
      <point x="195" y="408"/>
      <point x="238" y="336"/>
      <point x="238" y="195" type="curve" smooth="yes"/>
      <point x="238" y="-6"/>
      <point x="94" y="-256"/>
      <point x="-50" y="-256" type="curve" smooth="yes"/>
      <point x="-78" y="-256"/>
      <point x="-83" y="-229"/>
      <point x="-89" y="-201" type="curve" smooth="yes"/>
      <point x="-95" y="-170"/>
      <point x="-103" y="-139"/>
      <point x="-142" y="-139" type="curve" smooth="yes"/>
      <point x="-170" y="-139"/>
      <point x="-196" y="-158"/>
      <point x="-196" y="-200" type="curve" smooth="yes"/>
      <point x="-196" y="-250"/>
      <point x="-140" y="-284"/>
    </contour>
  </outline>
</glyph>
<glyph name="z" format="2">
  <advance width="437"/>
  <unicode hex="007A"/>
  <anchor x="282" y="470" name="top"/>
  <outline>
    <contour>
      <point x="-23" y="-5" type="curve" smooth="yes"/>
      <point x="-18" y="-5"/>
      <point x="-14" y="-3"/>
      <point x="-10" y="1" type="curve" smooth="yes"/>
      <point x="3" y="14"/>
      <point x="26" y="35"/>
      <point x="62" y="35" type="curve" smooth="yes"/>
      <point x="88" y="35"/>
      <point x="112" y="27"/>
      <point x="138" y="18" type="curve" smooth="yes"/>
      <point x="169" y="8"/>
      <point x="202" y="-3"/>
      <point x="244" y="-3" type="curve" smooth="yes"/>
      <point x="296" y="-3"/>
      <point x="316" y="7"/>
      <point x="344" y="37" type="curve" smooth="yes"/>
      <point x="370" y="63"/>
      <point x="384" y="92"/>
      <point x="384" y="121" type="curve" smooth="yes"/>
      <point x="384" y="150"/>
      <point x="367" y="185"/>
      <point x="330" y="185" type="curve" smooth="yes"/>
      <point x="291" y="185"/>
      <point x="274" y="159"/>
      <point x="274" y="132" type="curve" smooth="yes"/>
      <point x="274" y="107"/>
      <point x="286" y="95"/>
      <point x="298" y="84" type="curve" smooth="yes"/>
      <point x="308" y="75"/>
      <point x="317" y="67"/>
      <point x="317" y="53" type="curve" smooth="yes"/>
      <point x="317" y="44"/>
      <point x="309" y="40"/>
      <point x="300" y="40" type="curve" smooth="yes"/>
      <point x="271" y="40"/>
      <point x="252" y="61"/>
      <point x="224" y="82" type="curve" smooth="yes"/>
      <point x="196" y="103"/>
      <point x="165" y="122"/>
      <point x="135" y="122" type="curve" smooth="yes"/>
      <point x="108" y="122"/>
      <point x="81" y="106"/>
      <point x="59" y="82" type="curve" smooth="yes"/>
      <point x="-14" y="0" type="line"/>
      <point x="444" y="427" type="line"/>
      <point x="421" y="450" type="line"/>
      <point x="-6" y="51" type="line" smooth="yes"/>
      <point x="-30" y="28"/>
      <point x="-43" y="24"/>
      <point x="-43" y="14" type="curve" smooth="yes"/>
      <point x="-43" y="8"/>
      <point x="-34" y="-5"/>
    </contour>
    <contour>
      <point x="117" y="276" type="curve" smooth="yes"/>
      <point x="142" y="276"/>
      <point x="161" y="296"/>
      <point x="161" y="323" type="curve" smooth="yes"/>
      <point x="161" y="342"/>
      <point x="144" y="351"/>
      <point x="129" y="359" type="curve"/>
      <point x="116" y="365"/>
      <point x="109" y="370"/>
      <point x="109" y="380" type="curve" smooth="yes"/>
      <point x="109" y="387"/>
      <point x="117" y="394"/>
      <point x="131" y="394" type="curve" smooth="yes"/>
      <point x="158" y="394"/>
      <point x="175" y="372"/>
      <point x="197" y="356" type="curve" smooth="yes"/>
      <point x="223" y="337"/>
      <point x="244" y="328"/>
      <point x="266" y="328" type="curve" smooth="yes"/>
      <point x="291" y="328"/>
      <point x="322" y="346"/>
      <point x="350" y="365" type="curve"/>
      <point x="405" y="389" type="line"/>
      <point x="417" y="401"/>
      <point x="431" y="412"/>
      <point x="446" y="423" type="curve" smooth="yes"/>
      <point x="459" y="433"/>
      <point x="433" y="452"/>
      <point x="425" y="452" type="curve" smooth="yes"/>
      <point x="417" y="452"/>
      <point x="413" y="446"/>
      <point x="403" y="437" type="curve" smooth="yes"/>
      <point x="384" y="420"/>
      <point x="366" y="416"/>
      <point x="346" y="416" type="curve" smooth="yes"/>
      <point x="323" y="416"/>
      <point x="299" y="422"/>
      <point x="271" y="433" type="curve" smooth="yes"/>
      <point x="247" y="442"/>
      <point x="215" y="452"/>
      <point x="179" y="452" type="curve" smooth="yes"/>
      <point x="152" y="452"/>
      <point x="119" y="436"/>
      <point x="94" y="411" type="curve" smooth="yes"/>
      <point x="74" y="392"/>
      <point x="60" y="367"/>
      <point x="60" y="343" type="curve" smooth="yes"/>
      <point x="60" y="300"/>
      <point x="80" y="276"/>
    </contour>
  </outline>
</glyph>
<glyph name="braceleft" format="2">
  <advance width="348"/>
  <unicode hex="007B"/>
  <outline>
    <contour>
      <point x="150" y="-217" type="curve"/>
      <point x="166" y="-179" type="line"/>
      <point x="94" y="-177"/>
      <point x="46" y="-158"/>
      <point x="46" y="-105" type="curve" smooth="yes"/>
      <point x="46" y="-69"/>
      <point x="75" y="-18"/>
      <point x="105" y="34" type="curve" smooth="yes"/>
      <point x="135" y="86"/>
      <point x="166" y="139"/>
      <point x="166" y="172" type="curve" smooth="yes"/>
      <point x="166" y="216"/>
      <point x="167" y="247"/>
      <point x="103" y="262" type="curve"/>
      <point x="104" y="265" type="line"/>
      <point x="241" y="265"/>
      <point x="253" y="362"/>
      <point x="283" y="465" type="curve" smooth="yes"/>
      <point x="317" y="582"/>
      <point x="347" y="706"/>
      <point x="523" y="706" type="curve"/>
      <point x="534" y="744" type="line"/>
      <point x="237" y="744"/>
      <point x="223" y="646"/>
      <point x="196" y="496" type="curve" smooth="yes"/>
      <point x="176" y="387"/>
      <point x="161" y="282"/>
      <point x="42" y="282" type="curve"/>
      <point x="27" y="245" type="line"/>
      <point x="78" y="245"/>
      <point x="89" y="231"/>
      <point x="89" y="204" type="curve" smooth="yes"/>
      <point x="89" y="159"/>
      <point x="57" y="111"/>
      <point x="24" y="60" type="curve" smooth="yes"/>
      <point x="-13" y="3"/>
      <point x="-52" y="-56"/>
      <point x="-52" y="-116" type="curve" smooth="yes"/>
      <point x="-52" y="-203"/>
      <point x="52" y="-217"/>
    </contour>
  </outline>
</glyph>
<glyph name="bar" format="2">
  <advance width="282"/>
  <unicode hex="007C"/>
  <outline>
    <contour>
      <point x="122" y="687" type="line"/>
      <point x="121" y="-259" type="line"/>
      <point x="196" y="-259" type="line"/>
      <point x="196" y="687" type="line"/>
    </contour>
  </outline>
</glyph>
<glyph name="braceright" format="2">
  <advance width="347"/>
  <unicode hex="007D"/>
  <outline>
    <contour>
      <point x="232" y="744" type="curve"/>
      <point x="216" y="706" type="line"/>
      <point x="288" y="704"/>
      <point x="336" y="685"/>
      <point x="336" y="632" type="curve" smooth="yes"/>
      <point x="336" y="596"/>
      <point x="307" y="545"/>
      <point x="277" y="493" type="curve" smooth="yes"/>
      <point x="247" y="441"/>
      <point x="216" y="388"/>
      <point x="216" y="355" type="curve" smooth="yes"/>
      <point x="216" y="311"/>
      <point x="215" y="280"/>
      <point x="279" y="265" type="curve"/>
      <point x="278" y="262" type="line"/>
      <point x="141" y="262"/>
      <point x="129" y="165"/>
      <point x="99" y="62" type="curve" smooth="yes"/>
      <point x="65" y="-55"/>
      <point x="35" y="-179"/>
      <point x="-141" y="-179" type="curve"/>
      <point x="-152" y="-217" type="line"/>
      <point x="145" y="-217"/>
      <point x="159" y="-119"/>
      <point x="186" y="31" type="curve" smooth="yes"/>
      <point x="206" y="140"/>
      <point x="221" y="245"/>
      <point x="340" y="245" type="curve"/>
      <point x="355" y="282" type="line"/>
      <point x="304" y="282"/>
      <point x="293" y="296"/>
      <point x="293" y="323" type="curve" smooth="yes"/>
      <point x="293" y="368"/>
      <point x="325" y="416"/>
      <point x="358" y="467" type="curve" smooth="yes"/>
      <point x="395" y="524"/>
      <point x="434" y="583"/>
      <point x="434" y="643" type="curve" smooth="yes"/>
      <point x="434" y="730"/>
      <point x="330" y="744"/>
    </contour>
  </outline>
</glyph>
<glyph name="asciitilde" format="2">
  <advance width="570"/>
  <unicode hex="007E"/>
  <outline>
    <contour>
      <point x="154" y="276" type="line"/>
      <point x="167" y="316"/>
      <point x="188" y="329"/>
      <point x="224" y="329" type="curve" smooth="yes"/>
      <point x="254" y="329"/>
      <point x="291" y="316"/>
      <point x="328" y="303" type="curve" smooth="yes"/>
      <point x="366" y="290"/>
      <point x="408" y="277"/>
      <point x="447" y="277" type="curve" smooth="yes"/>
      <point x="494" y="277"/>
      <point x="537" y="303"/>
      <point x="551" y="373" type="curve"/>
      <point x="510" y="382" type="line"/>
      <point x="497" y="342"/>
      <point x="476" y="329"/>
      <point x="440" y="329" type="curve" smooth="yes"/>
      <point x="410" y="329"/>
      <point x="373" y="342"/>
      <point x="336" y="355" type="curve" smooth="yes"/>
      <point x="298" y="368"/>
      <point x="256" y="382"/>
      <point x="217" y="382" type="curve" smooth="yes"/>
      <point x="170" y="382"/>
      <point x="127" y="355"/>
      <point x="113" y="285" type="curve"/>
    </contour>
  </outline>
</glyph>
<glyph name="exclamdown" format="2">
  <advance width="259"/>
  <unicode hex="00A1"/>
  <outline>
    <contour>
      <point x="167" y="249" type="line"/>
      <point x="115" y="249" type="line"/>
      <point x="-105" y="-170" type="line"/>
      <point x="50" y="-170" type="line"/>
    </contour>
    <contour>
      <point x="210" y="499" type="curve" smooth="yes"/>
      <point x="167" y="499"/>
      <point x="132" y="464"/>
      <point x="132" y="421" type="curve" smooth="yes"/>
      <point x="132" y="377"/>
      <point x="167" y="342"/>
      <point x="210" y="342" type="curve" smooth="yes"/>
      <point x="253" y="342"/>
      <point x="288" y="377"/>
      <point x="288" y="421" type="curve" smooth="yes"/>
      <point x="288" y="464"/>
      <point x="253" y="499"/>
    </contour>
  </outline>
</glyph>
<glyph name="sterling" format="2">
  <advance width="643"/>
  <unicode hex="00A3"/>
  <outline>
    <contour>
      <point x="-72" y="-100" type="curve" smooth="yes"/>
      <point x="-23" y="-100"/>
      <point x="75" y="-19"/>
      <point x="178" y="94" type="curve" smooth="yes"/>
      <point x="266" y="188"/>
      <point x="357" y="306"/>
      <point x="426" y="415" type="curve" smooth="yes"/>
      <point x="540" y="596"/>
      <point x="601" y="649"/>
      <point x="659" y="649" type="curve" smooth="yes"/>
      <point x="675" y="649"/>
      <point x="694" y="645"/>
      <point x="694" y="633" type="curve" smooth="yes"/>
      <point x="694" y="619"/>
      <point x="685" y="612"/>
      <point x="675" y="605" type="curve" smooth="yes"/>
      <point x="664" y="596"/>
      <point x="653" y="587"/>
      <point x="653" y="564" type="curve" smooth="yes"/>
      <point x="653" y="540"/>
      <point x="671" y="529"/>
      <point x="694" y="529" type="curve" smooth="yes"/>
      <point x="731" y="529"/>
      <point x="780" y="559"/>
      <point x="780" y="616" type="curve" smooth="yes"/>
      <point x="780" y="657"/>
      <point x="734" y="682"/>
      <point x="672" y="682" type="curve" smooth="yes"/>
      <point x="566" y="682"/>
      <point x="421" y="624"/>
      <point x="278" y="412" type="curve" smooth="yes"/>
      <point x="214" y="317"/>
      <point x="185" y="256"/>
      <point x="151" y="199" type="curve" smooth="yes"/>
      <point x="115" y="137"/>
      <point x="83" y="77"/>
      <point x="-6" y="-28" type="curve"/>
      <point x="0" y="-27" type="line"/>
      <point x="13" y="-9"/>
      <point x="82" y="85"/>
      <point x="146" y="85" type="curve" smooth="yes"/>
      <point x="174" y="85"/>
      <point x="188" y="52"/>
      <point x="208" y="15" type="curve" smooth="yes"/>
      <point x="234" y="-34"/>
      <point x="269" y="-91"/>
      <point x="360" y="-91" type="curve" smooth="yes"/>
      <point x="475" y="-91"/>
      <point x="571" y="14"/>
      <point x="571" y="111" type="curve" smooth="yes"/>
      <point x="571" y="134"/>
      <point x="555" y="150"/>
      <point x="529" y="150" type="curve" smooth="yes"/>
      <point x="497" y="150"/>
      <point x="458" y="132"/>
      <point x="458" y="86" type="curve" smooth="yes"/>
      <point x="458" y="77"/>
      <point x="460" y="67"/>
      <point x="462" y="56" type="curve" smooth="yes"/>
      <point x="464" y="43"/>
      <point x="467" y="30"/>
      <point x="467" y="19" type="curve" smooth="yes"/>
      <point x="467" y="-27"/>
      <point x="436" y="-47"/>
      <point x="403" y="-47" type="curve" smooth="yes"/>
      <point x="382" y="-47"/>
      <point x="368" y="-19"/>
      <point x="347" y="13" type="curve" smooth="yes"/>
      <point x="318" y="58"/>
      <point x="274" y="112"/>
      <point x="178" y="112" type="curve" smooth="yes"/>
      <point x="33" y="112"/>
      <point x="-99" y="-13"/>
      <point x="-99" y="-70" type="curve" smooth="yes"/>
      <point x="-99" y="-91"/>
      <point x="-87" y="-100"/>
    </contour>
    <contour>
      <point x="51" y="243" type="line"/>
      <point x="432" y="243" type="line"/>
      <point x="458" y="283" type="line"/>
      <point x="76" y="283" type="line"/>
    </contour>
  </outline>
</glyph>
<glyph name="currency" format="2">
  <advance width="764"/>
  <unicode hex="00A4"/>
  <outline>
    <contour>
      <point x="221" y="87" type="line"/>
      <point x="317" y="183" type="line"/>
      <point x="348" y="163"/>
      <point x="387" y="151"/>
      <point x="432" y="151" type="curve" smooth="yes"/>
      <point x="477" y="151"/>
      <point x="515" y="163"/>
      <point x="546" y="183" type="curve"/>
      <point x="642" y="87" type="line"/>
      <point x="688" y="133" type="line"/>
      <point x="593" y="228" type="line"/>
      <point x="616" y="261"/>
      <point x="628" y="301"/>
      <point x="628" y="344" type="curve" smooth="yes"/>
      <point x="628" y="387"/>
      <point x="616" y="427"/>
      <point x="593" y="459" type="curve"/>
      <point x="688" y="554" type="line"/>
      <point x="642" y="600" type="line"/>
      <point x="546" y="504" type="line"/>
      <point x="516" y="525"/>
      <point x="477" y="537"/>
      <point x="432" y="537" type="curve" smooth="yes"/>
      <point x="387" y="537"/>
      <point x="348" y="525"/>
      <point x="317" y="504" type="curve"/>
      <point x="221" y="600" type="line"/>
      <point x="175" y="554" type="line"/>
      <point x="270" y="459" type="line"/>
      <point x="247" y="427"/>
      <point x="235" y="387"/>
      <point x="235" y="344" type="curve" smooth="yes"/>
      <point x="235" y="301"/>
      <point x="247" y="261"/>
      <point x="270" y="228" type="curve"/>
      <point x="175" y="133" type="line"/>
    </contour>
    <contour>
      <point x="432" y="205" type="curve" smooth="yes"/>
      <point x="362" y="205"/>
      <point x="313" y="257"/>
      <point x="313" y="344" type="curve" smooth="yes"/>
      <point x="313" y="431"/>
      <point x="362" y="483"/>
      <point x="432" y="483" type="curve" smooth="yes"/>
      <point x="501" y="483"/>
      <point x="550" y="431"/>
      <point x="550" y="344" type="curve" smooth="yes"/>
      <point x="550" y="257"/>
      <point x="501" y="205"/>
    </contour>
  </outline>
</glyph>
<glyph name="yen" format="2">
  <advance width="732"/>
  <unicode hex="00A5"/>
  <outline>
    <contour>
      <point x="162" y="322" type="line"/>
      <point x="604" y="322" type="line"/>
      <point x="619" y="358" type="line"/>
      <point x="177" y="358" type="line"/>
    </contour>
    <contour>
      <point x="112" y="199" type="line"/>
      <point x="554" y="199" type="line"/>
      <point x="569" y="235" type="line"/>
      <point x="127" y="235" type="line"/>
    </contour>
    <component base="Y"/>
  </outline>
</glyph>
<glyph name="section" format="2">
  <advance width="525"/>
  <unicode hex="00A7"/>
  <outline>
    <contour>
      <point x="177" y="84" type="line"/>
      <point x="300" y="89"/>
      <point x="429" y="165"/>
      <point x="429" y="289" type="curve" smooth="yes"/>
      <point x="429" y="342"/>
      <point x="401" y="384"/>
      <point x="373" y="421" type="curve" smooth="yes"/>
      <point x="343" y="460"/>
      <point x="316" y="505"/>
      <point x="316" y="552" type="curve" smooth="yes"/>
      <point x="316" y="616"/>
      <point x="369" y="680"/>
      <point x="433" y="680" type="curve" smooth="yes"/>
      <point x="456" y="680"/>
      <point x="470" y="672"/>
      <point x="470" y="658" type="curve" smooth="yes"/>
      <point x="470" y="646"/>
      <point x="459" y="634"/>
      <point x="454" y="626" type="curve"/>
      <point x="444" y="612"/>
      <point x="436" y="598"/>
      <point x="436" y="583" type="curve" smooth="yes"/>
      <point x="436" y="564"/>
      <point x="452" y="548"/>
      <point x="481" y="548" type="curve" smooth="yes"/>
      <point x="530" y="548"/>
      <point x="572" y="592"/>
      <point x="572" y="638" type="curve" smooth="yes"/>
      <point x="572" y="680"/>
      <point x="532" y="712"/>
      <point x="440" y="712" type="curve" smooth="yes"/>
      <point x="324" y="712"/>
      <point x="206" y="638"/>
      <point x="206" y="534" type="curve" smooth="yes"/>
      <point x="206" y="476"/>
      <point x="230" y="433"/>
      <point x="258" y="397" type="curve" smooth="yes"/>
      <point x="288" y="358"/>
      <point x="321" y="313"/>
      <point x="321" y="261" type="curve" smooth="yes"/>
      <point x="321" y="190"/>
      <point x="266" y="121"/>
      <point x="199" y="121" type="curve"/>
    </contour>
    <contour>
      <point x="22" y="-232" type="curve" smooth="yes"/>
      <point x="142" y="-232"/>
      <point x="270" y="-135"/>
      <point x="270" y="-15" type="curve" smooth="yes"/>
      <point x="270" y="38"/>
      <point x="241" y="78"/>
      <point x="212" y="120" type="curve" smooth="yes"/>
      <point x="182" y="162"/>
      <point x="157" y="200"/>
      <point x="157" y="248" type="curve" smooth="yes"/>
      <point x="157" y="311"/>
      <point x="210" y="375"/>
      <point x="286" y="375" type="curve"/>
      <point x="277" y="408" type="line"/>
      <point x="162" y="403"/>
      <point x="49" y="340"/>
      <point x="49" y="223" type="curve" smooth="yes"/>
      <point x="49" y="167"/>
      <point x="87" y="111"/>
      <point x="116" y="70" type="curve" smooth="yes"/>
      <point x="143" y="32"/>
      <point x="163" y="-3"/>
      <point x="163" y="-48" type="curve" smooth="yes"/>
      <point x="163" y="-124"/>
      <point x="111" y="-191"/>
      <point x="36" y="-191" type="curve" smooth="yes"/>
      <point x="8" y="-191"/>
      <point x="-13" y="-184"/>
      <point x="-13" y="-166" type="curve" smooth="yes"/>
      <point x="-13" y="-152"/>
      <point x="-4" y="-140"/>
      <point x="2" y="-129" type="curve" smooth="yes"/>
      <point x="10" y="-114"/>
      <point x="22" y="-101"/>
      <point x="22" y="-85" type="curve" smooth="yes"/>
      <point x="22" y="-69"/>
      <point x="10" y="-55"/>
      <point x="-12" y="-55" type="curve" smooth="yes"/>
      <point x="-64" y="-55"/>
      <point x="-101" y="-104"/>
      <point x="-101" y="-151" type="curve" smooth="yes"/>
      <point x="-101" y="-197"/>
      <point x="-63" y="-232"/>
    </contour>
  </outline>
</glyph>
<glyph name="copyright" format="2">
  <advance width="804"/>
  <unicode hex="00A9"/>
  <outline>
    <contour>
      <point x="451" y="3" type="curve" smooth="yes"/>
      <point x="665" y="3"/>
      <point x="793" y="173"/>
      <point x="793" y="353" type="curve" smooth="yes"/>
      <point x="793" y="531"/>
      <point x="660" y="680"/>
      <point x="451" y="680" type="curve" smooth="yes"/>
      <point x="239" y="680"/>
      <point x="108" y="510"/>
      <point x="108" y="332" type="curve" smooth="yes"/>
      <point x="108" y="153"/>
      <point x="231" y="3"/>
    </contour>
    <contour>
      <point x="468" y="153" type="curve" smooth="yes"/>
      <point x="499" y="153"/>
      <point x="521" y="159"/>
      <point x="542" y="165" type="curve" smooth="yes"/>
      <point x="559" y="168"/>
      <point x="578" y="173"/>
      <point x="598" y="173" type="curve" smooth="yes"/>
      <point x="602" y="173" type="line"/>
      <point x="602" y="209"/>
      <point x="609" y="247"/>
      <point x="619" y="284" type="curve"/>
      <point x="593" y="284" type="line"/>
      <point x="569" y="222"/>
      <point x="530" y="186"/>
      <point x="466" y="186" type="curve" smooth="yes"/>
      <point x="396" y="186"/>
      <point x="351" y="241"/>
      <point x="351" y="342" type="curve" smooth="yes"/>
      <point x="351" y="446"/>
      <point x="403" y="510"/>
      <point x="474" y="510" type="curve" smooth="yes"/>
      <point x="527" y="510"/>
      <point x="561" y="476"/>
      <point x="588" y="411" type="curve"/>
      <point x="613" y="411" type="line"/>
      <point x="605" y="447"/>
      <point x="597" y="484"/>
      <point x="606" y="516" type="curve"/>
      <point x="604" y="517" type="line"/>
      <point x="597" y="516"/>
      <point x="591" y="514"/>
      <point x="582" y="514" type="curve" smooth="yes"/>
      <point x="565" y="514"/>
      <point x="554" y="520"/>
      <point x="542" y="526" type="curve" smooth="yes"/>
      <point x="524" y="533"/>
      <point x="503" y="541"/>
      <point x="466" y="541" type="curve" smooth="yes"/>
      <point x="345" y="541"/>
      <point x="258" y="457"/>
      <point x="258" y="342" type="curve" smooth="yes"/>
      <point x="258" y="236"/>
      <point x="343" y="153"/>
    </contour>
    <contour>
      <point x="453" y="56" type="curve" smooth="yes"/>
      <point x="293" y="56"/>
      <point x="171" y="165"/>
      <point x="171" y="336" type="curve" smooth="yes"/>
      <point x="171" y="486"/>
      <point x="291" y="628"/>
      <point x="450" y="628" type="curve" smooth="yes"/>
      <point x="609" y="628"/>
      <point x="731" y="507"/>
      <point x="731" y="348" type="curve" smooth="yes"/>
      <point x="731" y="180"/>
      <point x="610" y="56"/>
    </contour>
  </outline>
</glyph>
<glyph name="logicalnot" format="2">
  <advance width="570"/>
  <unicode hex="00AC"/>
  <outline>
    <contour>
      <point x="498" y="209" type="line"/>
      <point x="553" y="209" type="line"/>
      <point x="553" y="437" type="line"/>
      <point x="105" y="437" type="line"/>
      <point x="105" y="380" type="line"/>
      <point x="498" y="380" type="line"/>
    </contour>
  </outline>
</glyph>
<glyph name="registered" format="2">
  <advance width="580"/>
  <unicode hex="00AE"/>
  <outline>
    <contour>
      <point x="374" y="178" type="curve" smooth="yes"/>
      <point x="535" y="178"/>
      <point x="631" y="305"/>
      <point x="631" y="440" type="curve" smooth="yes"/>
      <point x="631" y="573"/>
      <point x="531" y="685"/>
      <point x="374" y="685" type="curve" smooth="yes"/>
      <point x="216" y="685"/>
      <point x="118" y="557"/>
      <point x="118" y="424" type="curve" smooth="yes"/>
      <point x="118" y="291"/>
      <point x="211" y="178"/>
    </contour>
    <contour>
      <point x="377" y="222" type="curve" smooth="yes"/>
      <point x="242" y="222"/>
      <point x="172" y="327"/>
      <point x="172" y="432" type="curve" smooth="yes"/>
      <point x="172" y="537"/>
      <point x="242" y="642"/>
      <point x="374" y="642" type="curve" smooth="yes"/>
      <point x="490" y="642"/>
      <point x="580" y="553"/>
      <point x="580" y="437" type="curve" smooth="yes"/>
      <point x="580" y="313"/>
      <point x="491" y="222"/>
    </contour>
    <contour>
      <point x="494" y="313" type="curve" smooth="yes"/>
      <point x="504" y="313"/>
      <point x="513" y="314"/>
      <point x="523" y="317" type="curve"/>
      <point x="523" y="326" type="line"/>
      <point x="502" y="326"/>
      <point x="488" y="349"/>
      <point x="469" y="378" type="curve" smooth="yes"/>
      <point x="448" y="406"/>
      <point x="431" y="432"/>
      <point x="388" y="433" type="curve"/>
      <point x="388" y="437" type="line"/>
      <point x="430" y="442"/>
      <point x="465" y="466"/>
      <point x="465" y="500" type="curve" smooth="yes"/>
      <point x="465" y="544"/>
      <point x="421" y="568"/>
      <point x="346" y="568" type="curve" smooth="yes"/>
      <point x="243" y="568" type="line"/>
      <point x="243" y="556" type="line"/>
      <point x="257" y="551" type="line" smooth="yes"/>
      <point x="274" y="545"/>
      <point x="276" y="544"/>
      <point x="276" y="529" type="curve" smooth="yes"/>
      <point x="276" y="357" type="line" smooth="yes"/>
      <point x="276" y="342"/>
      <point x="273" y="344"/>
      <point x="257" y="337" type="curve" smooth="yes"/>
      <point x="243" y="331" type="line"/>
      <point x="243" y="319" type="line"/>
      <point x="372" y="319" type="line"/>
      <point x="372" y="331" type="line"/>
      <point x="359" y="337" type="line" smooth="yes"/>
      <point x="343" y="344"/>
      <point x="338" y="346"/>
      <point x="338" y="357" type="curve" smooth="yes"/>
      <point x="338" y="422" type="line"/>
      <point x="343" y="422" type="line" smooth="yes"/>
      <point x="375" y="422"/>
      <point x="390" y="396"/>
      <point x="410" y="368" type="curve" smooth="yes"/>
      <point x="437" y="329"/>
      <point x="463" y="313"/>
    </contour>
    <contour>
      <point x="338" y="445" type="line"/>
      <point x="338" y="550" type="line"/>
      <point x="342" y="550" type="line" smooth="yes"/>
      <point x="380" y="550"/>
      <point x="406" y="534"/>
      <point x="406" y="496" type="curve" smooth="yes"/>
      <point x="406" y="457"/>
      <point x="377" y="445"/>
      <point x="346" y="445" type="curve" smooth="yes"/>
    </contour>
  </outline>
</glyph>
<glyph name="degree" format="2">
  <advance width="399"/>
  <unicode hex="00B0"/>
  <outline>
    <contour>
      <point x="322" y="368" type="curve" smooth="yes"/>
      <point x="409" y="368"/>
      <point x="480" y="439"/>
      <point x="480" y="526" type="curve" smooth="yes"/>
      <point x="480" y="612"/>
      <point x="409" y="683"/>
      <point x="322" y="683" type="curve" smooth="yes"/>
      <point x="236" y="683"/>
      <point x="165" y="612"/>
      <point x="165" y="526" type="curve" smooth="yes"/>
      <point x="165" y="439"/>
      <point x="236" y="368"/>
    </contour>
    <contour>
      <point x="321" y="443" type="curve" smooth="yes"/>
      <point x="274" y="443"/>
      <point x="235" y="480"/>
      <point x="235" y="527" type="curve" smooth="yes"/>
      <point x="235" y="574"/>
      <point x="274" y="613"/>
      <point x="321" y="613" type="curve" smooth="yes"/>
      <point x="368" y="613"/>
      <point x="405" y="574"/>
      <point x="405" y="527" type="curve" smooth="yes"/>
      <point x="405" y="480"/>
      <point x="368" y="443"/>
    </contour>
  </outline>
</glyph>
<glyph name="plusminus" format="2">
  <advance width="560"/>
  <unicode hex="00B1"/>
  <outline>
    <contour>
      <point x="274" y="217" type="line"/>
      <point x="331" y="217" type="line"/>
      <point x="331" y="364" type="line"/>
      <point x="512" y="364" type="line"/>
      <point x="512" y="421" type="line"/>
      <point x="331" y="421" type="line"/>
      <point x="331" y="567" type="line"/>
      <point x="274" y="567" type="line"/>
      <point x="274" y="421" type="line"/>
      <point x="94" y="421" type="line"/>
      <point x="94" y="364" type="line"/>
      <point x="274" y="364" type="line"/>
    </contour>
    <component base="minus" xOffset="-30" yOffset="-185"/>
  </outline>
</glyph>
<glyph name="threesuperior" format="2">
  <advance width="320"/>
  <unicode hex="00B3"/>
  <outline>
    <contour>
      <point x="194" y="343" type="curve" smooth="yes"/>
      <point x="279" y="343"/>
      <point x="393" y="396"/>
      <point x="393" y="482" type="curve" smooth="yes"/>
      <point x="393" y="519"/>
      <point x="370" y="543"/>
      <point x="322" y="548" type="curve"/>
      <point x="322" y="549" type="line"/>
      <point x="364" y="562"/>
      <point x="426" y="581"/>
      <point x="426" y="630" type="curve" smooth="yes"/>
      <point x="426" y="667"/>
      <point x="384" y="686"/>
      <point x="326" y="686" type="curve" smooth="yes"/>
      <point x="259" y="686"/>
      <point x="190" y="656"/>
      <point x="190" y="613" type="curve" smooth="yes"/>
      <point x="190" y="592"/>
      <point x="207" y="582"/>
      <point x="223" y="582" type="curve" smooth="yes"/>
      <point x="243" y="582"/>
      <point x="261" y="594"/>
      <point x="261" y="611" type="curve" smooth="yes"/>
      <point x="261" y="627"/>
      <point x="257" y="627"/>
      <point x="257" y="640" type="curve" smooth="yes"/>
      <point x="257" y="650"/>
      <point x="276" y="662"/>
      <point x="309" y="662" type="curve" smooth="yes"/>
      <point x="335" y="662"/>
      <point x="345" y="648"/>
      <point x="345" y="630" type="curve" smooth="yes"/>
      <point x="345" y="579"/>
      <point x="272" y="544"/>
      <point x="229" y="530" type="curve" smooth="yes"/>
      <point x="214" y="525" type="line"/>
      <point x="216" y="506" type="line"/>
      <point x="253" y="515" type="line"/>
      <point x="287" y="514"/>
      <point x="300" y="501"/>
      <point x="300" y="480" type="curve" smooth="yes"/>
      <point x="300" y="416"/>
      <point x="243" y="369"/>
      <point x="190" y="369" type="curve" smooth="yes"/>
      <point x="165" y="369"/>
      <point x="151" y="378"/>
      <point x="151" y="394" type="curve" smooth="yes"/>
      <point x="151" y="406"/>
      <point x="168" y="409"/>
      <point x="168" y="429" type="curve" smooth="yes"/>
      <point x="168" y="439"/>
      <point x="160" y="454"/>
      <point x="136" y="454" type="curve" smooth="yes"/>
      <point x="114" y="454"/>
      <point x="102" y="433"/>
      <point x="102" y="413" type="curve" smooth="yes"/>
      <point x="102" y="364"/>
      <point x="143" y="343"/>
    </contour>
  </outline>
</glyph>
<glyph name="micro" format="2">
  <advance width="570"/>
  <unicode hex="00B5"/>
  <outline>
    <contour>
      <point x="-77" y="-260" type="line"/>
      <point x="42" y="-242" type="line"/>
      <point x="120" y="-3" type="line"/>
      <point x="112" y="-5"/>
      <point x="104" y="-6"/>
      <point x="96" y="-8" type="curve"/>
      <point x="202" y="-16"/>
      <point x="319" y="154"/>
      <point x="385" y="259" type="curve"/>
      <point x="387" y="259" type="line"/>
      <point x="362" y="200"/>
      <point x="338" y="140"/>
      <point x="313" y="81" type="curve" smooth="yes"/>
      <point x="291" y="28"/>
      <point x="311" y="-8"/>
      <point x="355" y="-8" type="curve" smooth="yes"/>
      <point x="406" y="-8"/>
      <point x="459" y="48"/>
      <point x="540" y="167" type="curve"/>
      <point x="520" y="180" type="line"/>
      <point x="488" y="131"/>
      <point x="432" y="63"/>
      <point x="414" y="63" type="curve" smooth="yes"/>
      <point x="403" y="63"/>
      <point x="401" y="72"/>
      <point x="409" y="92" type="curve"/>
      <point x="553" y="454" type="line"/>
      <point x="457" y="443" type="line"/>
      <point x="382" y="248"/>
      <point x="222" y="75"/>
      <point x="175" y="75" type="curve" smooth="yes"/>
      <point x="159" y="75"/>
      <point x="155" y="87"/>
      <point x="163" y="107" type="curve" smooth="yes"/>
      <point x="261" y="357" type="line" smooth="yes"/>
      <point x="282" y="410"/>
      <point x="264" y="451"/>
      <point x="212" y="451" type="curve" smooth="yes"/>
      <point x="161" y="451"/>
      <point x="108" y="395"/>
      <point x="27" y="276" type="curve"/>
      <point x="47" y="263" type="line"/>
      <point x="79" y="312"/>
      <point x="136" y="380"/>
      <point x="154" y="380" type="curve" smooth="yes"/>
      <point x="168" y="380"/>
      <point x="174" y="368"/>
      <point x="164" y="343" type="curve" smooth="yes"/>
    </contour>
  </outline>
</glyph>
<glyph name="onesuperior" format="2">
  <advance width="247"/>
  <unicode hex="00B9"/>
  <outline>
    <contour>
      <point x="77" y="350" type="line"/>
      <point x="279" y="350" type="line"/>
      <point x="287" y="369" type="line"/>
      <point x="259" y="374" type="line" smooth="yes"/>
      <point x="235" y="379"/>
      <point x="233" y="386"/>
      <point x="241" y="407" type="curve" smooth="yes"/>
      <point x="356" y="690" type="line"/>
      <point x="207" y="670" type="line"/>
      <point x="197" y="647" type="line"/>
      <point x="239" y="649" type="line" smooth="yes"/>
      <point x="254" y="649"/>
      <point x="258" y="645"/>
      <point x="253" y="635" type="curve" smooth="yes"/>
      <point x="161" y="407" type="line" smooth="yes"/>
      <point x="153" y="386"/>
      <point x="145" y="379"/>
      <point x="117" y="374" type="curve" smooth="yes"/>
      <point x="85" y="369" type="line"/>
    </contour>
  </outline>
</glyph>
<glyph name="onequarter" format="2">
  <advance width="623"/>
  <unicode hex="00BC"/>
  <outline>
    <contour>
      <point x="372" y="0" type="line"/>
      <point x="447" y="0" type="line"/>
      <point x="583" y="335" type="line"/>
      <point x="560" y="335" type="line"/>
      <point x="267" y="95" type="line"/>
      <point x="252" y="58" type="line"/>
      <point x="512" y="58" type="line"/>
      <point x="572" y="157" type="line"/>
      <point x="561" y="157" type="line"/>
      <point x="544" y="137" type="line" smooth="yes"/>
      <point x="534" y="125"/>
      <point x="525" y="120"/>
      <point x="512" y="120" type="curve" smooth="yes"/>
      <point x="315" y="120" type="line"/>
      <point x="311" y="108" type="line"/>
      <point x="494" y="257" type="line"/>
      <point x="477" y="260" type="line"/>
    </contour>
    <component base="onesuperior"/>
    <component base="fraction" xOffset="105"/>
  </outline>
</glyph>
<glyph name="questiondown" format="2">
  <advance width="388"/>
  <unicode hex="00BF"/>
  <outline>
    <contour>
      <point x="328" y="300" type="curve"/>
      <point x="286" y="300" type="line"/>
      <point x="270" y="259"/>
      <point x="252" y="243"/>
      <point x="168" y="230" type="curve" smooth="yes"/>
      <point x="60" y="213"/>
      <point x="7" y="152"/>
      <point x="-33" y="52" type="curve" smooth="yes"/>
      <point x="-47" y="18"/>
      <point x="-54" y="-11"/>
      <point x="-54" y="-33" type="curve" smooth="yes"/>
      <point x="-54" y="-75"/>
      <point x="-29" y="-96"/>
      <point x="23" y="-105" type="curve" smooth="yes"/>
      <point x="114" y="-121" type="line" smooth="yes"/>
      <point x="132" y="-124"/>
      <point x="147" y="-132"/>
      <point x="144" y="-150" type="curve" smooth="yes"/>
      <point x="140" y="-180" type="line"/>
      <point x="159" y="-180" type="line"/>
      <point x="228" y="-11" type="line"/>
      <point x="63" y="8" type="line" smooth="yes"/>
      <point x="37" y="11"/>
      <point x="25" y="18"/>
      <point x="25" y="34" type="curve" smooth="yes"/>
      <point x="25" y="39"/>
      <point x="26" y="46"/>
      <point x="29" y="53" type="curve"/>
      <point x="41" y="85"/>
      <point x="52" y="91"/>
      <point x="119" y="101" type="curve" smooth="yes"/>
      <point x="229" y="118"/>
      <point x="271" y="156"/>
    </contour>
    <contour>
      <point x="354" y="504" type="curve" smooth="yes"/>
      <point x="312" y="504"/>
      <point x="278" y="470"/>
      <point x="278" y="428" type="curve" smooth="yes"/>
      <point x="278" y="385"/>
      <point x="312" y="351"/>
      <point x="354" y="351" type="curve" smooth="yes"/>
      <point x="396" y="351"/>
      <point x="430" y="385"/>
      <point x="430" y="428" type="curve" smooth="yes"/>
      <point x="430" y="470"/>
      <point x="396" y="504"/>
    </contour>
  </outline>
</glyph>
<glyph name="AE" format="2">
  <advance width="1049"/>
  <unicode hex="00C6"/>
  <outline>
    <contour>
      <point x="-49" y="0" type="line"/>
      <point x="215" y="0" type="line"/>
      <point x="224" y="22" type="line"/>
      <point x="150" y="37" type="line" smooth="yes"/>
      <point x="124" y="42"/>
      <point x="119" y="58"/>
      <point x="137" y="74" type="curve" smooth="yes"/>
      <point x="687" y="567" type="line"/>
      <point x="668" y="597" type="line"/>
      <point x="87" y="75" type="line" smooth="yes"/>
      <point x="65" y="55"/>
      <point x="51" y="42"/>
      <point x="19" y="35" type="curve" smooth="yes"/>
      <point x="-40" y="22" type="line"/>
    </contour>
    <contour>
      <point x="278" y="226" type="line"/>
      <point x="553" y="226" type="line"/>
      <point x="567" y="259" type="line"/>
      <point x="296" y="259" type="line"/>
    </contour>
    <component base="E" xOffset="378"/>
  </outline>
</glyph>
<glyph name="Eth" format="2">
  <advance width="791"/>
  <unicode hex="00D0"/>
  <guideline x="145" y="503" angle="68"/>
  <outline>
    <contour>
      <point x="72" y="323" type="line"/>
      <point x="429" y="323" type="line"/>
      <point x="451" y="378" type="line"/>
      <point x="94" y="378" type="line"/>
    </contour>
    <component base="D"/>
  </outline>
</glyph>
<glyph name="multiply" format="2">
  <advance width="570"/>
  <unicode hex="00D7"/>
  <outline>
    <contour>
      <point x="197" y="155" type="line"/>
      <point x="333" y="292" type="line"/>
      <point x="468" y="157" type="line"/>
      <point x="508" y="198" type="line"/>
      <point x="374" y="332" type="line"/>
      <point x="511" y="469" type="line"/>
      <point x="470" y="509" type="line"/>
      <point x="333" y="372" type="line"/>
      <point x="200" y="506" type="line"/>
      <point x="159" y="466" type="line"/>
      <point x="293" y="332" type="line"/>
      <point x="157" y="196" type="line"/>
    </contour>
  </outline>
</glyph>
<glyph name="Oslash" format="2">
  <advance width="825"/>
  <unicode hex="00D8"/>
  <guideline x="937" y="606" angle="68"/>
  <guideline x="799" y="683" angle="0"/>
  <outline>
    <contour>
      <point x="-12" y="-10" type="line"/>
      <point x="954" y="648" type="line"/>
      <point x="928" y="684" type="line"/>
      <point x="-34" y="30" type="line"/>
    </contour>
    <component base="O"/>
  </outline>
</glyph>
<glyph name="Thorn" format="2">
  <advance width="655"/>
  <unicode hex="00DE"/>
  <outline>
    <contour>
      <point x="-59" y="0" type="line"/>
      <point x="291" y="0" type="line"/>
      <point x="300" y="22" type="line"/>
      <point x="253" y="33" type="line" smooth="yes"/>
      <point x="211" y="43"/>
      <point x="206" y="50"/>
      <point x="223" y="92" type="curve" smooth="yes"/>
      <point x="395" y="516" type="line"/>
      <point x="431" y="516" type="line" smooth="yes"/>
      <point x="510" y="516"/>
      <point x="558" y="488"/>
      <point x="558" y="417" type="curve" smooth="yes"/>
      <point x="558" y="283"/>
      <point x="437" y="166"/>
      <point x="297" y="157" type="curve"/>
      <point x="295" y="150" type="line"/>
      <point x="311" y="145"/>
      <point x="331" y="142"/>
      <point x="353" y="142" type="curve" smooth="yes"/>
      <point x="509" y="142"/>
      <point x="698" y="250"/>
      <point x="698" y="399" type="curve" smooth="yes"/>
      <point x="698" y="500"/>
      <point x="603" y="549"/>
      <point x="457" y="549" type="curve" smooth="yes"/>
      <point x="408" y="549" type="line"/>
      <point x="421" y="581" type="line" smooth="yes"/>
      <point x="438" y="623"/>
      <point x="449" y="630"/>
      <point x="499" y="640" type="curve" smooth="yes"/>
      <point x="554" y="651" type="line"/>
      <point x="563" y="673" type="line"/>
      <point x="213" y="673" type="line"/>
      <point x="204" y="651" type="line"/>
      <point x="251" y="640" type="line" smooth="yes"/>
      <point x="293" y="630"/>
      <point x="298" y="623"/>
      <point x="281" y="581" type="curve" smooth="yes"/>
      <point x="83" y="92" type="line" smooth="yes"/>
      <point x="66" y="50"/>
      <point x="55" y="43"/>
      <point x="5" y="33" type="curve" smooth="yes"/>
      <point x="-50" y="22" type="line"/>
    </contour>
  </outline>
</glyph>
<glyph name="ae" format="2">
  <advance width="632"/>
  <unicode hex="00E6"/>
  <outline>
    <contour>
      <point x="57" y="-8" type="curve" smooth="yes"/>
      <point x="156" y="-8"/>
      <point x="252" y="100"/>
      <point x="307" y="198" type="curve"/>
      <point x="374" y="189" type="line"/>
      <point x="480" y="456" type="line"/>
      <point x="467" y="456" type="line"/>
      <point x="400" y="412" type="line"/>
      <point x="397" y="412" type="line"/>
      <point x="385" y="435"/>
      <point x="365" y="451"/>
      <point x="331" y="451" type="curve" smooth="yes"/>
      <point x="272" y="451"/>
      <point x="210" y="405"/>
      <point x="145" y="344" type="curve" smooth="yes"/>
      <point x="54" y="258"/>
      <point x="-14" y="141"/>
      <point x="-14" y="64" type="curve" smooth="yes"/>
      <point x="-14" y="17"/>
      <point x="7" y="-8"/>
    </contour>
    <contour>
      <point x="137" y="81" type="curve" smooth="yes"/>
      <point x="105" y="81"/>
      <point x="86" y="100"/>
      <point x="86" y="145" type="curve" smooth="yes"/>
      <point x="86" y="208"/>
      <point x="124" y="277"/>
      <point x="173" y="327" type="curve" smooth="yes"/>
      <point x="209" y="365"/>
      <point x="256" y="389"/>
      <point x="289" y="389" type="curve" smooth="yes"/>
      <point x="316" y="389"/>
      <point x="331" y="377"/>
      <point x="331" y="346" type="curve" smooth="yes"/>
      <point x="331" y="257"/>
      <point x="223" y="81"/>
    </contour>
    <component base="e" xOffset="272"/>
  </outline>
</glyph>
<glyph name="eth" format="2">
  <advance width="578"/>
  <unicode hex="00F0"/>
  <outline>
    <contour>
      <point x="384" y="465" type="line"/>
      <point x="723" y="593" type="line"/>
      <point x="710" y="626" type="line"/>
      <point x="372" y="499" type="line"/>
    </contour>
    <component base="partialdiff"/>
  </outline>
</glyph>
<glyph name="oslash" format="2">
  <advance width="474"/>
  <unicode hex="00F8"/>
  <guideline x="62" y="270" angle="68"/>
  <guideline x="452" y="270" angle="68"/>
  <outline>
    <contour>
      <point x="-15" y="-9" type="line"/>
      <point x="511" y="419" type="line"/>
      <point x="486" y="451" type="line"/>
      <point x="-39" y="21" type="line"/>
    </contour>
    <component base="o" xOffset="1"/>
  </outline>
</glyph>
<glyph name="dcroat" format="2">
  <advance width="508"/>
  <unicode hex="0111"/>
  <outline>
    <contour>
      <point x="57" y="-8" type="curve" smooth="yes"/>
      <point x="121" y="-8"/>
      <point x="210" y="51"/>
      <point x="256" y="126" type="curve"/>
      <point x="261" y="126" type="line"/>
      <point x="241" y="76" type="line" smooth="yes"/>
      <point x="223" y="32"/>
      <point x="239" y="-8"/>
      <point x="292" y="-8" type="curve" smooth="yes"/>
      <point x="342" y="-8"/>
      <point x="398" y="48"/>
      <point x="478" y="167" type="curve"/>
      <point x="458" y="180" type="line"/>
      <point x="426" y="131"/>
      <point x="369" y="63"/>
      <point x="351" y="63" type="curve" smooth="yes"/>
      <point x="336" y="63"/>
      <point x="333" y="81"/>
      <point x="343" y="105" type="curve" smooth="yes"/>
      <point x="543" y="609" type="line" smooth="yes"/>
      <point x="555" y="640"/>
      <point x="570" y="675"/>
      <point x="588" y="705" type="curve"/>
      <point x="574" y="712" type="line"/>
      <point x="519" y="689"/>
      <point x="476" y="685"/>
      <point x="406" y="673" type="curve"/>
      <point x="401" y="655" type="line"/>
      <point x="426" y="648" type="line" smooth="yes"/>
      <point x="442" y="644"/>
      <point x="453" y="634"/>
      <point x="443" y="608" type="curve" smooth="yes"/>
      <point x="370" y="429" type="line"/>
      <point x="359" y="437"/>
      <point x="344" y="442"/>
      <point x="326" y="442" type="curve" smooth="yes"/>
      <point x="268" y="442"/>
      <point x="206" y="397"/>
      <point x="142" y="337" type="curve" smooth="yes"/>
      <point x="52" y="253"/>
      <point x="-15" y="139"/>
      <point x="-15" y="64" type="curve" smooth="yes"/>
      <point x="-15" y="18"/>
      <point x="7" y="-8"/>
    </contour>
    <contour>
      <point x="136" y="81" type="curve" smooth="yes"/>
      <point x="105" y="81"/>
      <point x="85" y="99"/>
      <point x="85" y="143" type="curve" smooth="yes"/>
      <point x="85" y="204"/>
      <point x="123" y="271"/>
      <point x="171" y="319" type="curve" smooth="yes"/>
      <point x="207" y="356"/>
      <point x="253" y="379"/>
      <point x="286" y="379" type="curve" smooth="yes"/>
      <point x="312" y="379"/>
      <point x="327" y="367"/>
      <point x="327" y="337" type="curve" smooth="yes"/>
      <point x="327" y="251"/>
      <point x="221" y="81"/>
    </contour>
    <contour>
      <point x="232" y="526" type="line"/>
      <point x="570" y="526" type="line"/>
      <point x="589" y="573" type="line"/>
      <point x="251" y="573" type="line"/>
    </contour>
  </outline>
</glyph>
<glyph name="Hbar" format="2">
  <advance width="876"/>
  <unicode hex="0126"/>
  <outline>
    <contour>
      <point x="169" y="478" type="line"/>
      <point x="915" y="478" type="line"/>
      <point x="937" y="533" type="line"/>
      <point x="191" y="533" type="line"/>
    </contour>
    <component base="H"/>
  </outline>
</glyph>
<glyph name="lslash" format="2">
  <advance width="296"/>
  <unicode hex="0142"/>
  <guideline x="59" y="338" angle="68"/>
  <guideline x="335" y="338" angle="68"/>
  <outline>
    <contour>
      <point x="172" y="327" type="line"/>
      <point x="153" y="272" type="line"/>
      <point x="301" y="319" type="line"/>
      <point x="324" y="375" type="line"/>
    </contour>
    <contour>
      <point x="153" y="285" type="line"/>
      <point x="172" y="340" type="line"/>
      <point x="54" y="302" type="line"/>
      <point x="31" y="246" type="line"/>
    </contour>
    <component base="l"/>
  </outline>
</glyph>
<glyph name="Eng" format="2">
  <advance width="831"/>
  <unicode hex="014A"/>
  <outline>
    <contour>
      <point x="400" y="-228" type="curve" smooth="yes"/>
      <point x="455" y="-228"/>
      <point x="490" y="-204"/>
      <point x="514" y="-182" type="curve" smooth="yes"/>
      <point x="529" y="-168"/>
      <point x="542" y="-157"/>
      <point x="552" y="-157" type="curve"/>
      <point x="850" y="581" type="line" smooth="yes"/>
      <point x="864" y="617"/>
      <point x="888" y="630"/>
      <point x="927" y="638" type="curve" smooth="yes"/>
      <point x="990" y="651" type="line"/>
      <point x="999" y="673" type="line"/>
      <point x="724" y="673" type="line"/>
      <point x="715" y="651" type="line"/>
      <point x="782" y="636" type="line" smooth="yes"/>
      <point x="815" y="629"/>
      <point x="827" y="614"/>
      <point x="814" y="581" type="curve" smooth="yes"/>
      <point x="664" y="211" type="line"/>
      <point x="432" y="673" type="line"/>
      <point x="220" y="673" type="line"/>
      <point x="211" y="651" type="line"/>
      <point x="258" y="640" type="line" smooth="yes"/>
      <point x="300" y="630"/>
      <point x="305" y="623"/>
      <point x="288" y="581" type="curve" smooth="yes"/>
      <point x="90" y="92" type="line" smooth="yes"/>
      <point x="76" y="56"/>
      <point x="52" y="43"/>
      <point x="13" y="35" type="curve" smooth="yes"/>
      <point x="-50" y="22" type="line"/>
      <point x="-59" y="0" type="line"/>
      <point x="216" y="0" type="line"/>
      <point x="225" y="22" type="line"/>
      <point x="158" y="37" type="line" smooth="yes"/>
      <point x="125" y="44"/>
      <point x="113" y="59"/>
      <point x="126" y="92" type="curve" smooth="yes"/>
      <point x="310" y="546" type="line"/>
      <point x="581" y="4" type="line"/>
      <point x="548" y="-77" type="line" smooth="yes"/>
      <point x="514" y="-162"/>
      <point x="458" y="-191"/>
      <point x="419" y="-191" type="curve" smooth="yes"/>
      <point x="404" y="-191"/>
      <point x="394" y="-185"/>
      <point x="394" y="-174" type="curve" smooth="yes"/>
      <point x="394" y="-166"/>
      <point x="406" y="-157"/>
      <point x="417" y="-147" type="curve"/>
      <point x="430" y="-134"/>
      <point x="446" y="-118"/>
      <point x="446" y="-92" type="curve" smooth="yes"/>
      <point x="446" y="-51"/>
      <point x="417" y="-33"/>
      <point x="383" y="-33" type="curve" smooth="yes"/>
      <point x="338" y="-33"/>
      <point x="292" y="-58"/>
      <point x="292" y="-132" type="curve" smooth="yes"/>
      <point x="292" y="-192"/>
      <point x="346" y="-228"/>
    </contour>
  </outline>
</glyph>
<glyph name="eng" format="2">
  <advance width="523"/>
  <unicode hex="014B"/>
  <outline>
    <contour>
      <point x="133" y="-259" type="curve" smooth="yes"/>
      <point x="199" y="-259"/>
      <point x="239" y="-213"/>
      <point x="268" y="-174" type="curve" smooth="yes"/>
      <point x="287" y="-150"/>
      <point x="305" y="-128"/>
      <point x="322" y="-128" type="curve"/>
      <point x="535" y="362" type="line" smooth="yes"/>
      <point x="557" y="412"/>
      <point x="541" y="451"/>
      <point x="492" y="451" type="curve" smooth="yes"/>
      <point x="378" y="451"/>
      <point x="258" y="286"/>
      <point x="193" y="184" type="curve"/>
      <point x="191" y="184" type="line"/>
      <point x="266" y="361" type="line" smooth="yes"/>
      <point x="288" y="414"/>
      <point x="268" y="450"/>
      <point x="222" y="450" type="curve" smooth="yes"/>
      <point x="169" y="450"/>
      <point x="114" y="394"/>
      <point x="30" y="275" type="curve"/>
      <point x="50" y="262" type="line"/>
      <point x="82" y="311"/>
      <point x="138" y="379"/>
      <point x="156" y="379" type="curve" smooth="yes"/>
      <point x="167" y="379"/>
      <point x="169" y="370"/>
      <point x="161" y="350" type="curve" smooth="yes"/>
      <point x="17" y="-12" type="line"/>
      <point x="123" y="0" type="line"/>
      <point x="198" y="195"/>
      <point x="365" y="368"/>
      <point x="412" y="368" type="curve" smooth="yes"/>
      <point x="428" y="368"/>
      <point x="433" y="358"/>
      <point x="424" y="336" type="curve" smooth="yes"/>
      <point x="212" y="-149" type="line" smooth="yes"/>
      <point x="189" y="-201"/>
      <point x="177" y="-232"/>
      <point x="156" y="-232" type="curve" smooth="yes"/>
      <point x="143" y="-232"/>
      <point x="135" y="-223"/>
      <point x="135" y="-206" type="curve" smooth="yes"/>
      <point x="135" y="-155"/>
      <point x="109" y="-142"/>
      <point x="81" y="-142" type="curve" smooth="yes"/>
      <point x="56" y="-142"/>
      <point x="33" y="-162"/>
      <point x="33" y="-197" type="curve" smooth="yes"/>
      <point x="33" y="-233"/>
      <point x="75" y="-259"/>
    </contour>
  </outline>
</glyph>
<glyph name="oe" format="2">
  <advance width="658"/>
  <unicode hex="0153"/>
  <outline>
    <contour>
      <point x="189" y="-9" type="curve" smooth="yes"/>
      <point x="332" y="-9"/>
      <point x="429" y="153"/>
      <point x="429" y="310" type="curve" smooth="yes"/>
      <point x="429" y="405"/>
      <point x="374" y="451"/>
      <point x="293" y="451" type="curve" smooth="yes"/>
      <point x="183" y="451"/>
      <point x="35" y="333"/>
      <point x="35" y="131" type="curve" smooth="yes"/>
      <point x="35" y="38"/>
      <point x="97" y="-9"/>
    </contour>
    <contour>
      <point x="169" y="23" type="curve" smooth="yes"/>
      <point x="143" y="23"/>
      <point x="128" y="46"/>
      <point x="128" y="88" type="curve" smooth="yes"/>
      <point x="128" y="192"/>
      <point x="227" y="418"/>
      <point x="307" y="418" type="curve" smooth="yes"/>
      <point x="335" y="418"/>
      <point x="349" y="396"/>
      <point x="349" y="354" type="curve" smooth="yes"/>
      <point x="349" y="250"/>
      <point x="249" y="23"/>
    </contour>
    <contour>
      <point x="398" y="-8" type="curve" smooth="yes"/>
      <point x="470" y="-8"/>
      <point x="568" y="75"/>
      <point x="624" y="173" type="curve"/>
      <point x="605" y="185" type="line"/>
      <point x="562" y="113"/>
      <point x="514" y="80"/>
      <point x="473" y="80" type="curve" smooth="yes"/>
      <point x="433" y="80"/>
      <point x="412" y="106"/>
      <point x="412" y="158" type="curve" smooth="yes"/>
      <point x="412" y="264"/>
      <point x="485" y="393"/>
      <point x="556" y="393" type="curve" smooth="yes"/>
      <point x="575" y="393"/>
      <point x="582" y="382"/>
      <point x="582" y="366" type="curve" smooth="yes"/>
      <point x="582" y="321"/>
      <point x="517" y="250"/>
      <point x="385" y="241" type="curve"/>
      <point x="383" y="212" type="line"/>
      <point x="606" y="241"/>
      <point x="682" y="320"/>
      <point x="682" y="392" type="curve" smooth="yes"/>
      <point x="682" y="425"/>
      <point x="657" y="451"/>
      <point x="607" y="451" type="curve" smooth="yes"/>
      <point x="570" y="451"/>
      <point x="521" y="430"/>
      <point x="477" y="393" type="curve" smooth="yes"/>
      <point x="397" y="325"/>
      <point x="324" y="220"/>
      <point x="324" y="94" type="curve" smooth="yes"/>
      <point x="324" y="37"/>
      <point x="339" y="-8"/>
    </contour>
  </outline>
</glyph>
<glyph name="tbar" format="2">
  <advance width="345"/>
  <unicode hex="0167"/>
  <guideline x="75" y="330" angle="68"/>
  <guideline x="325" y="330" angle="68"/>
  <outline>
    <contour>
      <point x="34" y="228" type="line"/>
      <point x="284" y="228" type="line"/>
      <point x="306" y="283" type="line"/>
      <point x="57" y="283" type="line"/>
    </contour>
    <component base="t" xOffset="10"/>
  </outline>
</glyph>
<glyph name="jdotless" format="2">
  <advance width="265"/>
  <unicode hex="0237"/>
  <anchor x="239" y="470" name="top"/>
  <outline>
    <contour>
      <point x="-115" y="-259" type="curve" smooth="yes"/>
      <point x="-49" y="-259"/>
      <point x="-9" y="-213"/>
      <point x="20" y="-174" type="curve" smooth="yes"/>
      <point x="39" y="-150"/>
      <point x="57" y="-128"/>
      <point x="74" y="-128" type="curve"/>
      <point x="255" y="362" type="line" smooth="yes"/>
      <point x="273" y="411"/>
      <point x="262" y="451"/>
      <point x="212" y="451" type="curve" smooth="yes"/>
      <point x="153" y="451"/>
      <point x="103" y="395"/>
      <point x="19" y="276" type="curve"/>
      <point x="39" y="263" type="line"/>
      <point x="71" y="312"/>
      <point x="127" y="380"/>
      <point x="145" y="380" type="curve" smooth="yes"/>
      <point x="152" y="380"/>
      <point x="158" y="374"/>
      <point x="148" y="346" type="curve" smooth="yes"/>
      <point x="-36" y="-149" type="line" smooth="yes"/>
      <point x="-55" y="-201"/>
      <point x="-71" y="-232"/>
      <point x="-92" y="-232" type="curve" smooth="yes"/>
      <point x="-105" y="-232"/>
      <point x="-113" y="-223"/>
      <point x="-113" y="-206" type="curve" smooth="yes"/>
      <point x="-113" y="-155"/>
      <point x="-139" y="-142"/>
      <point x="-167" y="-142" type="curve" smooth="yes"/>
      <point x="-192" y="-142"/>
      <point x="-215" y="-162"/>
      <point x="-215" y="-197" type="curve" smooth="yes"/>
      <point x="-215" y="-233"/>
      <point x="-173" y="-259"/>
    </contour>
  </outline>
</glyph>
<glyph name="uni02C9" format="2">
  <advance width="570"/>
  <unicode hex="02C9"/>
  <outline>
    <contour>
      <point x="266" y="590" type="line"/>
      <point x="602" y="590" type="line"/>
      <point x="624" y="645" type="line"/>
      <point x="288" y="645" type="line"/>
    </contour>
  </outline>
</glyph>
<glyph name="acutecomb" format="2">
  <unicode hex="0301"/>
  <anchor x="347" y="470" name="_top"/>
  <outline>
    <contour>
      <point x="341" y="537" type="line"/>
      <point x="563" y="645" type="line" smooth="yes"/>
      <point x="585" y="656"/>
      <point x="596" y="673"/>
      <point x="596" y="691" type="curve" smooth="yes"/>
      <point x="596" y="715"/>
      <point x="577" y="734"/>
      <point x="553" y="734" type="curve" smooth="yes"/>
      <point x="537" y="734"/>
      <point x="526" y="727"/>
      <point x="512" y="715" type="curve" smooth="yes"/>
      <point x="326" y="556" type="line"/>
    </contour>
  </outline>
</glyph>
<glyph name="circumflexcomb" format="2">
  <unicode hex="0302"/>
  <guideline x="415" y="548" angle="68"/>
  <anchor x="382" y="470" name="_top"/>
  <outline>
    <contour>
      <point x="506" y="722" type="line"/>
      <point x="464" y="722" type="line"/>
      <point x="258" y="545" type="line"/>
      <point x="275" y="525" type="line"/>
      <point x="456" y="622" type="line"/>
      <point x="552" y="530" type="line"/>
      <point x="571" y="541" type="line"/>
    </contour>
  </outline>
</glyph>
<glyph name="tildecomb" format="2">
  <unicode hex="0303"/>
  <anchor x="398" y="470" name="_top"/>
  <outline>
    <contour>
      <point x="296" y="517" type="line"/>
      <point x="309" y="556"/>
      <point x="334" y="576"/>
      <point x="368" y="576" type="curve" smooth="yes"/>
      <point x="387" y="576"/>
      <point x="408" y="572"/>
      <point x="429" y="568" type="curve" smooth="yes"/>
      <point x="451" y="564"/>
      <point x="474" y="559"/>
      <point x="496" y="559" type="curve" smooth="yes"/>
      <point x="558" y="559"/>
      <point x="597" y="605"/>
      <point x="597" y="683" type="curve" smooth="yes"/>
      <point x="597" y="723"/>
      <point x="577" y="759"/>
      <point x="531" y="759" type="curve" smooth="yes"/>
      <point x="499" y="759"/>
      <point x="481" y="740"/>
      <point x="481" y="715" type="curve" smooth="yes"/>
      <point x="481" y="684"/>
      <point x="493" y="673"/>
      <point x="528" y="668" type="curve" smooth="yes"/>
      <point x="544" y="666"/>
      <point x="558" y="666"/>
      <point x="558" y="654" type="curve" smooth="yes"/>
      <point x="558" y="637"/>
      <point x="547" y="631"/>
      <point x="532" y="631" type="curve" smooth="yes"/>
      <point x="507" y="631"/>
      <point x="481" y="637"/>
      <point x="456" y="642" type="curve" smooth="yes"/>
      <point x="434" y="647"/>
      <point x="413" y="652"/>
      <point x="395" y="652" type="curve" smooth="yes"/>
      <point x="339" y="652"/>
      <point x="293" y="628"/>
      <point x="273" y="522" type="curve"/>
    </contour>
  </outline>
</glyph>
<glyph name="dotaccentcomb" format="2">
  <unicode hex="0307"/>
  <anchor x="407" y="470" name="_top"/>
  <outline>
    <contour>
      <point x="447" y="544" type="curve" smooth="yes"/>
      <point x="488" y="544"/>
      <point x="522" y="578"/>
      <point x="522" y="617" type="curve" smooth="yes"/>
      <point x="522" y="658"/>
      <point x="488" y="692"/>
      <point x="447" y="692" type="curve" smooth="yes"/>
      <point x="408" y="692"/>
      <point x="374" y="658"/>
      <point x="374" y="617" type="curve" smooth="yes"/>
      <point x="374" y="578"/>
      <point x="408" y="544"/>
    </contour>
  </outline>
</glyph>
<glyph name="dieresiscomb" format="2">
  <unicode hex="0308"/>
  <guideline x="417" y="548" angle="68"/>
  <anchor x="384" y="470" name="_top"/>
  <outline>
    <contour>
      <point x="545" y="555" type="curve" smooth="yes"/>
      <point x="583" y="555"/>
      <point x="614" y="586"/>
      <point x="614" y="622" type="curve" smooth="yes"/>
      <point x="614" y="660"/>
      <point x="583" y="691"/>
      <point x="545" y="691" type="curve" smooth="yes"/>
      <point x="509" y="691"/>
      <point x="478" y="660"/>
      <point x="478" y="622" type="curve" smooth="yes"/>
      <point x="478" y="586"/>
      <point x="509" y="555"/>
    </contour>
    <contour>
      <point x="346" y="555" type="curve" smooth="yes"/>
      <point x="384" y="555"/>
      <point x="415" y="586"/>
      <point x="415" y="622" type="curve" smooth="yes"/>
      <point x="415" y="660"/>
      <point x="384" y="691"/>
      <point x="346" y="691" type="curve" smooth="yes"/>
      <point x="310" y="691"/>
      <point x="279" y="660"/>
      <point x="279" y="622" type="curve" smooth="yes"/>
      <point x="279" y="586"/>
      <point x="310" y="555"/>
    </contour>
  </outline>
</glyph>
<glyph name="ringcomb" format="2">
  <unicode hex="030A"/>
  <anchor x="394" y="470" name="_top"/>
  <outline>
    <contour>
      <point x="575" y="630" type="curve" smooth="yes"/>
      <point x="575" y="699"/>
      <point x="519" y="755"/>
      <point x="450" y="755" type="curve" smooth="yes"/>
      <point x="381" y="755"/>
      <point x="325" y="699"/>
      <point x="325" y="630" type="curve" smooth="yes"/>
      <point x="325" y="561"/>
      <point x="381" y="505"/>
      <point x="450" y="505" type="curve" smooth="yes"/>
      <point x="519" y="505"/>
      <point x="575" y="561"/>
    </contour>
    <contour>
      <point x="523" y="630" type="curve" smooth="yes"/>
      <point x="523" y="590"/>
      <point x="491" y="557"/>
      <point x="451" y="557" type="curve" smooth="yes"/>
      <point x="411" y="557"/>
      <point x="377" y="590"/>
      <point x="377" y="630" type="curve" smooth="yes"/>
      <point x="377" y="670"/>
      <point x="411" y="703"/>
      <point x="451" y="703" type="curve" smooth="yes"/>
      <point x="491" y="703"/>
      <point x="523" y="670"/>
    </contour>
  </outline>
</glyph>
<glyph name="commaturnedabovecomb" format="2">
  <unicode hex="0312"/>
  <anchor x="398" y="470" name="_top"/>
  <outline>
    <contour>
      <point x="573" y="733" type="line"/>
      <point x="449" y="725"/>
      <point x="353" y="663"/>
      <point x="353" y="576" type="curve" smooth="yes"/>
      <point x="353" y="542"/>
      <point x="383" y="512"/>
      <point x="429" y="506" type="curve"/>
      <point x="456" y="534"/>
      <point x="470" y="553"/>
      <point x="513" y="565" type="curve"/>
      <point x="522" y="588" type="line"/>
      <point x="517" y="587"/>
      <point x="511" y="587"/>
      <point x="506" y="587" type="curve" smooth="yes"/>
      <point x="473" y="587"/>
      <point x="453" y="604"/>
      <point x="453" y="627" type="curve" smooth="yes"/>
      <point x="453" y="663"/>
      <point x="491" y="694"/>
      <point x="560" y="702" type="curve"/>
    </contour>
  </outline>
</glyph>
<glyph name="commaaccentcomb" format="2">
  <unicode hex="0326"/>
  <anchor x="162" y="-50" name="_bottom"/>
  <outline>
    <contour>
      <point x="15" y="-252" type="line"/>
      <point x="139" y="-244"/>
      <point x="235" y="-182"/>
      <point x="235" y="-95" type="curve" smooth="yes"/>
      <point x="235" y="-61"/>
      <point x="205" y="-31"/>
      <point x="159" y="-25" type="curve"/>
      <point x="132" y="-53"/>
      <point x="118" y="-72"/>
      <point x="75" y="-84" type="curve"/>
      <point x="66" y="-107" type="line"/>
      <point x="71" y="-106"/>
      <point x="77" y="-106"/>
      <point x="82" y="-106" type="curve" smooth="yes"/>
      <point x="115" y="-106"/>
      <point x="135" y="-123"/>
      <point x="135" y="-146" type="curve" smooth="yes"/>
      <point x="135" y="-182"/>
      <point x="97" y="-213"/>
      <point x="28" y="-221" type="curve"/>
    </contour>
  </outline>
</glyph>
<glyph name="cedillacomb" format="2">
  <unicode hex="0327"/>
  <anchor x="161" y="-53" name="_bottom"/>
  <outline>
    <contour>
      <point x="-14" y="-247" type="line"/>
      <point x="141" y="-240"/>
      <point x="256" y="-180"/>
      <point x="256" y="-110" type="curve" smooth="yes"/>
      <point x="256" y="-69"/>
      <point x="230" y="-46"/>
      <point x="157" y="-36" type="curve"/>
      <point x="181" y="0" type="line"/>
      <point x="139" y="0" type="line"/>
      <point x="75" y="-97" type="line"/>
      <point x="130" y="-98"/>
      <point x="161" y="-113"/>
      <point x="161" y="-138" type="curve" smooth="yes"/>
      <point x="161" y="-175"/>
      <point x="88" y="-210"/>
      <point x="1" y="-217" type="curve"/>
    </contour>
  </outline>
</glyph>
<glyph name="ogonekcomb" format="2">
  <unicode hex="0328"/>
  <guideline x="50" y="-77" angle="0"/>
  <anchor x="189" y="-50" name="_bottom"/>
  <outline>
    <contour>
      <point x="107" y="-225" type="curve" smooth="yes"/>
      <point x="145" y="-225"/>
      <point x="198" y="-201"/>
      <point x="252" y="-160" type="curve"/>
      <point x="243" y="-142" type="line"/>
      <point x="212" y="-161"/>
      <point x="183" y="-171"/>
      <point x="161" y="-171" type="curve" smooth="yes"/>
      <point x="137" y="-171"/>
      <point x="122" y="-159"/>
      <point x="122" y="-132" type="curve" smooth="yes"/>
      <point x="122" y="-113"/>
      <point x="132" y="-92"/>
      <point x="148" y="-73" type="curve" smooth="yes"/>
      <point x="174" y="-41"/>
      <point x="217" y="-11"/>
      <point x="258" y="6" type="curve"/>
      <point x="220" y="12" type="line"/>
      <point x="173" y="-5"/>
      <point x="123" y="-26"/>
      <point x="85" y="-53" type="curve" smooth="yes"/>
      <point x="48" y="-80"/>
      <point x="22" y="-112"/>
      <point x="22" y="-151" type="curve" smooth="yes"/>
      <point x="22" y="-196"/>
      <point x="56" y="-225"/>
    </contour>
  </outline>
</glyph>
<glyph name="pi" format="2">
  <advance width="681"/>
  <unicode hex="03C0"/>
  <outline>
    <contour>
      <point x="74" y="272" type="line"/>
      <point x="131" y="318"/>
      <point x="168" y="329"/>
      <point x="227" y="329" type="curve" smooth="yes"/>
      <point x="565" y="329" type="line"/>
      <point x="593" y="500" type="line"/>
      <point x="563" y="500" type="line"/>
      <point x="551" y="468" type="line" smooth="yes"/>
      <point x="547" y="457"/>
      <point x="537" y="441"/>
      <point x="518" y="441" type="curve" smooth="yes"/>
      <point x="245" y="441" type="line" smooth="yes"/>
      <point x="174" y="441"/>
      <point x="100" y="396"/>
      <point x="52" y="299" type="curve"/>
    </contour>
    <contour>
      <point x="115" y="0" type="line"/>
      <point x="229" y="0" type="line"/>
      <point x="275" y="86"/>
      <point x="278" y="270"/>
      <point x="282" y="390" type="curve"/>
      <point x="213" y="410" type="line"/>
      <point x="199" y="236"/>
      <point x="169" y="107"/>
      <point x="98" y="54" type="curve"/>
    </contour>
    <contour>
      <point x="438" y="-7" type="curve" smooth="yes"/>
      <point x="475" y="-7"/>
      <point x="546" y="15"/>
      <point x="575" y="34" type="curve"/>
      <point x="575" y="69" type="line"/>
      <point x="556" y="63"/>
      <point x="539" y="60"/>
      <point x="528" y="60" type="curve" smooth="yes"/>
      <point x="492" y="60"/>
      <point x="471" y="95"/>
      <point x="471" y="234" type="curve" smooth="yes"/>
      <point x="471" y="276"/>
      <point x="474" y="327"/>
      <point x="481" y="389" type="curve"/>
      <point x="404" y="378" type="line"/>
      <point x="392" y="276"/>
      <point x="384" y="189"/>
      <point x="384" y="132" type="curve" smooth="yes"/>
      <point x="384" y="35"/>
      <point x="393" y="-7"/>
    </contour>
  </outline>
</glyph>
<glyph name="endash" format="2">
  <advance width="570"/>
  <unicode hex="2013"/>
  <outline>
    <contour>
      <point x="12" y="223" type="line"/>
      <point x="582" y="223" type="line"/>
      <point x="582" y="278" type="line"/>
      <point x="12" y="278" type="line"/>
    </contour>
  </outline>
</glyph>
<glyph name="quoteleft" format="2">
  <advance width="285"/>
  <unicode hex="2018"/>
  <outline>
    <contour>
      <point x="427" y="681" type="line"/>
      <point x="283" y="668"/>
      <point x="150" y="571"/>
      <point x="150" y="456" type="curve" smooth="yes"/>
      <point x="150" y="412"/>
      <point x="176" y="371"/>
      <point x="217" y="359" type="curve"/>
      <point x="254" y="398"/>
      <point x="271" y="412"/>
      <point x="314" y="430" type="curve"/>
      <point x="323" y="459" type="line"/>
      <point x="284" y="464"/>
      <point x="263" y="486"/>
      <point x="263" y="515" type="curve" smooth="yes"/>
      <point x="263" y="588"/>
      <point x="345" y="643"/>
      <point x="415" y="653" type="curve"/>
    </contour>
  </outline>
</glyph>
<glyph name="bullet" format="2">
  <advance width="380"/>
  <unicode hex="2022"/>
  <outline>
    <contour>
      <point x="127" y="359" type="curve" smooth="yes"/>
      <point x="127" y="293"/>
      <point x="179" y="241"/>
      <point x="245" y="241" type="curve" smooth="yes"/>
      <point x="311" y="241"/>
      <point x="364" y="293"/>
      <point x="364" y="359" type="curve" smooth="yes"/>
      <point x="364" y="425"/>
      <point x="311" y="478"/>
      <point x="245" y="478" type="curve" smooth="yes"/>
      <point x="179" y="478"/>
      <point x="127" y="425"/>
    </contour>
  </outline>
</glyph>
<glyph name="guilsinglleft" format="2">
  <advance width="223"/>
  <unicode hex="2039"/>
  <outline>
    <contour>
      <point x="105" y="49" type="line"/>
      <point x="136" y="69" type="line"/>
      <point x="108" y="199" type="line"/>
      <point x="245" y="337" type="line"/>
      <point x="220" y="353" type="line"/>
      <point x="11" y="207" type="line"/>
      <point x="7" y="195" type="line"/>
    </contour>
  </outline>
</glyph>
<glyph name="guilsinglright" format="2">
  <advance width="224"/>
  <unicode hex="203A"/>
  <outline>
    <contour>
      <point x="102" y="353" type="line"/>
      <point x="71" y="333" type="line"/>
      <point x="99" y="203" type="line"/>
      <point x="-38" y="65" type="line"/>
      <point x="-13" y="49" type="line"/>
      <point x="196" y="195" type="line"/>
      <point x="200" y="207" type="line"/>
    </contour>
  </outline>
</glyph>
<glyph name="fraction" format="2">
  <advance width="442"/>
  <unicode hex="2044"/>
  <outline>
    <contour>
      <point x="-129" y="0" type="line"/>
      <point x="-50" y="0" type="line"/>
      <point x="665" y="673" type="line"/>
      <point x="587" y="673" type="line"/>
    </contour>
  </outline>
</glyph>
<glyph name="foursuperior" format="2">
  <advance width="328"/>
  <unicode hex="2074"/>
  <outline>
    <contour>
      <point x="164" y="349" type="line"/>
      <point x="352" y="349" type="line"/>
      <point x="357" y="361" type="line"/>
      <point x="332" y="367" type="line" smooth="yes"/>
      <point x="310" y="372"/>
      <point x="310" y="380"/>
      <point x="318" y="400" type="curve" smooth="yes"/>
      <point x="435" y="690" type="line"/>
      <point x="413" y="690" type="line"/>
      <point x="102" y="454" type="line"/>
      <point x="90" y="423" type="line"/>
      <point x="362" y="423" type="line"/>
      <point x="419" y="508" type="line"/>
      <point x="406" y="508" type="line"/>
      <point x="389" y="488" type="line" smooth="yes"/>
      <point x="379" y="476"/>
      <point x="367" y="470"/>
      <point x="355" y="470" type="curve" smooth="yes"/>
      <point x="144" y="470" type="line"/>
      <point x="140" y="459" type="line"/>
      <point x="338" y="608" type="line"/>
      <point x="325" y="607" type="line"/>
      <point x="240" y="400" type="line" smooth="yes"/>
      <point x="229" y="374"/>
      <point x="218" y="371"/>
      <point x="199" y="367" type="curve" smooth="yes"/>
      <point x="169" y="361" type="line"/>
    </contour>
  </outline>
</glyph>
<glyph name="euro" format="2">
  <advance width="703"/>
  <unicode hex="20AC"/>
  <outline>
    <contour>
      <point x="383" y="-8" type="curve" smooth="yes"/>
      <point x="436" y="-8"/>
      <point x="479" y="2"/>
      <point x="509" y="12" type="curve" smooth="yes"/>
      <point x="534" y="20"/>
      <point x="558" y="29"/>
      <point x="587" y="29" type="curve" smooth="yes"/>
      <point x="590" y="29"/>
      <point x="593" y="29"/>
      <point x="596" y="29" type="curve"/>
      <point x="607" y="92"/>
      <point x="634" y="160"/>
      <point x="679" y="224" type="curve"/>
      <point x="648" y="224" type="line"/>
      <point x="590" y="114"/>
      <point x="510" y="29"/>
      <point x="407" y="29" type="curve" smooth="yes"/>
      <point x="332" y="29"/>
      <point x="269" y="104"/>
      <point x="269" y="228" type="curve" smooth="yes"/>
      <point x="269" y="485"/>
      <point x="426" y="647"/>
      <point x="553" y="647" type="curve" smooth="yes"/>
      <point x="661" y="647"/>
      <point x="715" y="575"/>
      <point x="721" y="451" type="curve"/>
      <point x="746" y="451" type="line"/>
      <point x="759" y="514"/>
      <point x="767" y="585"/>
      <point x="802" y="640" type="curve"/>
      <point x="798" y="643" type="line"/>
      <point x="786" y="640"/>
      <point x="777" y="638"/>
      <point x="762" y="638" type="curve" smooth="yes"/>
      <point x="734" y="638"/>
      <point x="713" y="647"/>
      <point x="688" y="657" type="curve" smooth="yes"/>
      <point x="656" y="669"/>
      <point x="619" y="683"/>
      <point x="565" y="683" type="curve" smooth="yes"/>
      <point x="349" y="683"/>
      <point x="113" y="488"/>
      <point x="113" y="248" type="curve" smooth="yes"/>
      <point x="113" y="87"/>
      <point x="236" y="-8"/>
    </contour>
    <contour>
      <point x="30" y="268" type="line"/>
      <point x="464" y="268" type="line"/>
      <point x="498" y="308" type="line"/>
      <point x="62" y="308" type="line"/>
    </contour>
    <contour>
      <point x="74" y="379" type="line"/>
      <point x="558" y="379" type="line"/>
      <point x="592" y="419" type="line"/>
      <point x="107" y="419" type="line"/>
    </contour>
  </outline>
</glyph>
<glyph name="trademark" format="2">
  <advance width="785"/>
  <unicode hex="2122"/>
  <outline>
    <contour>
      <point x="156" y="409" type="line"/>
      <point x="309" y="409" type="line"/>
      <point x="313" y="423" type="line"/>
      <point x="295" y="427" type="line" smooth="yes"/>
      <point x="278" y="431"/>
      <point x="276" y="434"/>
      <point x="283" y="450" type="curve" smooth="yes"/>
      <point x="367" y="655" type="line"/>
      <point x="401" y="655" type="line" smooth="yes"/>
      <point x="435" y="655"/>
      <point x="447" y="625"/>
      <point x="442" y="591" type="curve"/>
      <point x="457" y="591" type="line"/>
      <point x="461" y="612"/>
      <point x="470" y="645"/>
      <point x="485" y="673" type="curve"/>
      <point x="192" y="673" type="line"/>
      <point x="184" y="645"/>
      <point x="167" y="612"/>
      <point x="154" y="591" type="curve"/>
      <point x="168" y="591" type="line"/>
      <point x="191" y="625"/>
      <point x="228" y="655"/>
      <point x="263" y="655" type="curve"/>
      <point x="297" y="655" type="line"/>
      <point x="212" y="450" type="line" smooth="yes"/>
      <point x="205" y="434"/>
      <point x="201" y="431"/>
      <point x="182" y="427" type="curve" smooth="yes"/>
      <point x="161" y="423" type="line"/>
    </contour>
    <contour>
      <point x="570" y="407" type="line"/>
      <point x="576" y="407" type="line"/>
      <point x="776" y="629" type="line"/>
      <point x="710" y="450" type="line" smooth="yes"/>
      <point x="704" y="434"/>
      <point x="699" y="431"/>
      <point x="679" y="427" type="curve" smooth="yes"/>
      <point x="658" y="423" type="line"/>
      <point x="653" y="409" type="line"/>
      <point x="806" y="409" type="line"/>
      <point x="810" y="423" type="line"/>
      <point x="792" y="427" type="line" smooth="yes"/>
      <point x="776" y="431"/>
      <point x="774" y="434"/>
      <point x="780" y="450" type="curve" smooth="yes"/>
      <point x="848" y="633" type="line" smooth="yes"/>
      <point x="854" y="649"/>
      <point x="859" y="652"/>
      <point x="879" y="656" type="curve" smooth="yes"/>
      <point x="900" y="660" type="line"/>
      <point x="905" y="673" type="line"/>
      <point x="795" y="673" type="line"/>
      <point x="629" y="491" type="line"/>
      <point x="618" y="673" type="line"/>
      <point x="511" y="673" type="line"/>
      <point x="506" y="660" type="line"/>
      <point x="523" y="656" type="line" smooth="yes"/>
      <point x="540" y="652"/>
      <point x="542" y="649"/>
      <point x="535" y="633" type="curve" smooth="yes"/>
      <point x="452" y="450" type="line" smooth="yes"/>
      <point x="446" y="436"/>
      <point x="437" y="431"/>
      <point x="422" y="428" type="curve" smooth="yes"/>
      <point x="398" y="423" type="line"/>
      <point x="393" y="409" type="line"/>
      <point x="507" y="409" type="line"/>
      <point x="512" y="423" type="line"/>
      <point x="485" y="429" type="line" smooth="yes"/>
      <point x="472" y="432"/>
      <point x="466" y="438"/>
      <point x="472" y="450" type="curve" smooth="yes"/>
      <point x="557" y="636" type="line"/>
    </contour>
  </outline>
</glyph>
<glyph name="partialdiff" format="2">
  <advance width="535"/>
  <unicode hex="2202"/>
  <outline>
    <contour>
      <point x="176" y="-14" type="curve" smooth="yes"/>
      <point x="414" y="-14"/>
      <point x="618" y="311"/>
      <point x="618" y="551" type="curve" smooth="yes"/>
      <point x="618" y="633"/>
      <point x="563" y="682"/>
      <point x="481" y="682" type="curve" smooth="yes"/>
      <point x="401" y="682"/>
      <point x="288" y="641"/>
      <point x="288" y="565" type="curve" smooth="yes"/>
      <point x="288" y="547"/>
      <point x="303" y="532"/>
      <point x="326" y="532" type="curve" smooth="yes"/>
      <point x="352" y="532"/>
      <point x="377" y="565"/>
      <point x="398" y="591" type="curve" smooth="yes"/>
      <point x="420" y="620"/>
      <point x="447" y="647"/>
      <point x="472" y="647" type="curve" smooth="yes"/>
      <point x="502" y="647"/>
      <point x="514" y="627"/>
      <point x="514" y="595" type="curve" smooth="yes"/>
      <point x="514" y="515"/>
      <point x="478" y="387"/>
      <point x="422" y="303" type="curve"/>
      <point x="416" y="303" type="line"/>
      <point x="428" y="381"/>
      <point x="367" y="428"/>
      <point x="292" y="428" type="curve" smooth="yes"/>
      <point x="112" y="428"/>
      <point x="14" y="268"/>
      <point x="14" y="138" type="curve" smooth="yes"/>
      <point x="14" y="55"/>
      <point x="63" y="-14"/>
    </contour>
    <contour>
      <point x="202" y="22" type="curve" smooth="yes"/>
      <point x="148" y="22"/>
      <point x="126" y="69"/>
      <point x="126" y="129" type="curve" smooth="yes"/>
      <point x="126" y="235"/>
      <point x="180" y="382"/>
      <point x="303" y="382" type="curve" smooth="yes"/>
      <point x="362" y="382"/>
      <point x="389" y="351"/>
      <point x="389" y="297" type="curve" smooth="yes"/>
      <point x="389" y="189"/>
      <point x="312" y="22"/>
    </contour>
  </outline>
</glyph>
<glyph name="product" format="2">
  <advance width="849"/>
  <unicode hex="220F"/>
  <outline>
    <contour>
      <point x="505" y="-107" type="line"/>
      <point x="855" y="-107" type="line"/>
      <point x="855" y="-85" type="line"/>
      <point x="804" y="-74" type="line" smooth="yes"/>
      <point x="758" y="-64"/>
      <point x="750" y="-57"/>
      <point x="750" y="-15" type="curve" smooth="yes"/>
      <point x="750" y="618" type="line" smooth="yes"/>
      <point x="750" y="660"/>
      <point x="758" y="667"/>
      <point x="804" y="677" type="curve" smooth="yes"/>
      <point x="855" y="688" type="line"/>
      <point x="855" y="710" type="line"/>
      <point x="505" y="710" type="line"/>
      <point x="505" y="688" type="line"/>
      <point x="610" y="688" type="line"/>
      <point x="610" y="-15" type="line" smooth="yes"/>
      <point x="610" y="-57"/>
      <point x="602" y="-64"/>
      <point x="556" y="-74" type="curve" smooth="yes"/>
      <point x="505" y="-85" type="line"/>
    </contour>
    <contour>
      <point x="66" y="-107" type="line"/>
      <point x="416" y="-107" type="line"/>
      <point x="416" y="-85" type="line"/>
      <point x="365" y="-74" type="line" smooth="yes"/>
      <point x="319" y="-64"/>
      <point x="311" y="-57"/>
      <point x="311" y="-15" type="curve" smooth="yes"/>
      <point x="311" y="688" type="line"/>
      <point x="416" y="688" type="line"/>
      <point x="416" y="710" type="line"/>
      <point x="66" y="710" type="line"/>
      <point x="66" y="688" type="line"/>
      <point x="117" y="677" type="line" smooth="yes"/>
      <point x="163" y="667"/>
      <point x="171" y="660"/>
      <point x="171" y="618" type="curve" smooth="yes"/>
      <point x="171" y="-15" type="line" smooth="yes"/>
      <point x="171" y="-57"/>
      <point x="163" y="-64"/>
      <point x="117" y="-74" type="curve" smooth="yes"/>
      <point x="66" y="-85" type="line"/>
    </contour>
    <contour>
      <point x="273" y="675" type="line"/>
      <point x="636" y="675" type="line"/>
      <point x="636" y="711" type="line"/>
      <point x="273" y="711" type="line"/>
    </contour>
  </outline>
</glyph>
<glyph name="radical" format="2">
  <advance width="490"/>
  <unicode hex="221A"/>
  <outline>
    <contour>
      <point x="342" y="0" type="line"/>
      <point x="386" y="0" type="line"/>
      <point x="578" y="711" type="line"/>
      <point x="534" y="711" type="line"/>
    </contour>
    <contour>
      <point x="272" y="0" type="line"/>
      <point x="386" y="0" type="line"/>
      <point x="268" y="410" type="line"/>
      <point x="151" y="410" type="line"/>
    </contour>
    <contour>
      <point x="98" y="310" type="line"/>
      <point x="268" y="310" type="line"/>
      <point x="268" y="410" type="line"/>
      <point x="98" y="410" type="line"/>
    </contour>
  </outline>
</glyph>
<glyph name="integral" format="2">
  <advance width="399"/>
  <unicode hex="222B"/>
  <outline>
    <contour>
      <point x="143" y="-219" type="curve" smooth="yes"/>
      <point x="247" y="-219"/>
      <point x="308" y="-111"/>
      <point x="308" y="28" type="curve" smooth="yes"/>
      <point x="308" y="120"/>
      <point x="275" y="219"/>
      <point x="255" y="312" type="curve" smooth="yes"/>
      <point x="232" y="418"/>
      <point x="222" y="490"/>
      <point x="222" y="557" type="curve" smooth="yes"/>
      <point x="222" y="656"/>
      <point x="244" y="678"/>
      <point x="265" y="678" type="curve" smooth="yes"/>
      <point x="284" y="678"/>
      <point x="296" y="666"/>
      <point x="309" y="638" type="curve" smooth="yes"/>
      <point x="323" y="610"/>
      <point x="337" y="587"/>
      <point x="363" y="587" type="curve" smooth="yes"/>
      <point x="390" y="587"/>
      <point x="406" y="601"/>
      <point x="406" y="631" type="curve" smooth="yes"/>
      <point x="406" y="678"/>
      <point x="344" y="711"/>
      <point x="269" y="711" type="curve" smooth="yes"/>
      <point x="165" y="711"/>
      <point x="103" y="604"/>
      <point x="103" y="465" type="curve" smooth="yes"/>
      <point x="103" y="373"/>
      <point x="136" y="274"/>
      <point x="156" y="181" type="curve" smooth="yes"/>
      <point x="179" y="75"/>
      <point x="197" y="-9"/>
      <point x="197" y="-58" type="curve" smooth="yes"/>
      <point x="197" y="-145"/>
      <point x="186" y="-167"/>
      <point x="159" y="-167" type="curve" smooth="yes"/>
      <point x="144" y="-167"/>
      <point x="134" y="-160"/>
      <point x="120" y="-134" type="curve" smooth="yes"/>
      <point x="109" y="-114"/>
      <point x="97" y="-92"/>
      <point x="72" y="-92" type="curve" smooth="yes"/>
      <point x="42" y="-92"/>
      <point x="27" y="-112"/>
      <point x="27" y="-139" type="curve" smooth="yes"/>
      <point x="27" y="-183"/>
      <point x="84" y="-219"/>
    </contour>
  </outline>
</glyph>
<glyph name="notequal" format="2">
  <advance width="570"/>
  <unicode hex="2260"/>
  <outline>
    <contour>
      <point x="123" y="64" type="line"/>
      <point x="184" y="64" type="line"/>
      <point x="542" y="597" type="line"/>
      <point x="481" y="597" type="line"/>
    </contour>
    <component base="equal"/>
  </outline>
</glyph>
<glyph name="lessequal" format="2">
  <advance width="570"/>
  <unicode hex="2264"/>
  <outline>
    <contour>
      <point x="502" y="479" type="line"/>
      <point x="502" y="540" type="line"/>
      <point x="82" y="375" type="line"/>
      <point x="81" y="343" type="line"/>
      <point x="506" y="177" type="line"/>
      <point x="506" y="239" type="line"/>
      <point x="146" y="369" type="line"/>
      <point x="146" y="349" type="line"/>
    </contour>
    <contour>
      <point x="506" y="100" type="line"/>
      <point x="506" y="157" type="line"/>
      <point x="88" y="157" type="line"/>
      <point x="88" y="100" type="line"/>
    </contour>
  </outline>
</glyph>
<glyph name="greaterequal" format="2">
  <advance width="570"/>
  <unicode hex="2265"/>
  <outline>
    <contour>
      <point x="121" y="479" type="line"/>
      <point x="477" y="349" type="line"/>
      <point x="477" y="369" type="line"/>
      <point x="117" y="239" type="line"/>
      <point x="117" y="177" type="line"/>
      <point x="542" y="343" type="line"/>
      <point x="541" y="375" type="line"/>
      <point x="121" y="540" type="line"/>
    </contour>
    <component base="minus" xOffset="-7" yOffset="-204"/>
  </outline>
</glyph>
<glyph name="lozenge" format="2">
  <advance width="444"/>
  <unicode hex="25CA"/>
  <outline>
    <contour>
      <point x="195" y="-106" type="line"/>
      <point x="249" y="-106" type="line"/>
      <point x="434" y="295" type="line"/>
      <point x="249" y="696" type="line"/>
      <point x="195" y="696" type="line"/>
      <point x="10" y="295" type="line"/>
    </contour>
    <contour>
      <point x="217" y="38" type="line"/>
      <point x="227" y="38" type="line"/>
      <point x="111" y="295" type="line"/>
      <point x="227" y="552" type="line"/>
      <point x="217" y="552" type="line"/>
      <point x="333" y="295" type="line"/>
    </contour>
  </outline>
</glyph>
<glyph name="zero.onum" format="2">
  <advance width="535"/>
  <unicode hex="F643"/>
  <outline>
    <contour>
      <point x="259" y="-9" type="curve" smooth="yes"/>
      <point x="386" y="-9"/>
      <point x="488" y="110"/>
      <point x="488" y="236" type="curve" smooth="yes"/>
      <point x="488" y="355"/>
      <point x="392" y="450"/>
      <point x="276" y="450" type="curve" smooth="yes"/>
      <point x="149" y="450"/>
      <point x="47" y="330"/>
      <point x="47" y="204" type="curve" smooth="yes"/>
      <point x="47" y="84"/>
      <point x="142" y="-9"/>
    </contour>
    <contour>
      <point x="227" y="39" type="curve" smooth="yes"/>
      <point x="172" y="39"/>
      <point x="138" y="85"/>
      <point x="138" y="149" type="curve" smooth="yes"/>
      <point x="138" y="242"/>
      <point x="214" y="402"/>
      <point x="306" y="402" type="curve" smooth="yes"/>
      <point x="360" y="402"/>
      <point x="399" y="359"/>
      <point x="399" y="293" type="curve" smooth="yes"/>
      <point x="399" y="198"/>
      <point x="321" y="39"/>
    </contour>
  </outline>
</glyph>
<glyph name="two.onum" format="2">
  <advance width="479"/>
  <unicode hex="F645"/>
  <outline>
    <contour>
      <point x="-65" y="0" type="line"/>
      <point x="317" y="0" type="line"/>
      <point x="415" y="165" type="line"/>
      <point x="393" y="165" type="line"/>
      <point x="381" y="149" type="line" smooth="yes"/>
      <point x="352" y="112"/>
      <point x="330" y="91"/>
      <point x="295" y="91" type="curve" smooth="yes"/>
      <point x="154" y="91" type="line"/>
      <point x="156" y="94" type="line"/>
      <point x="261" y="130"/>
      <point x="444" y="241"/>
      <point x="444" y="348" type="curve" smooth="yes"/>
      <point x="444" y="410"/>
      <point x="386" y="450"/>
      <point x="292" y="450" type="curve" smooth="yes"/>
      <point x="198" y="450"/>
      <point x="65" y="402"/>
      <point x="65" y="308" type="curve" smooth="yes"/>
      <point x="65" y="275"/>
      <point x="92" y="258"/>
      <point x="119" y="258" type="curve" smooth="yes"/>
      <point x="148" y="258"/>
      <point x="181" y="275"/>
      <point x="181" y="308" type="curve" smooth="yes"/>
      <point x="181" y="321"/>
      <point x="178" y="330"/>
      <point x="175" y="341" type="curve" smooth="yes"/>
      <point x="172" y="350"/>
      <point x="170" y="361"/>
      <point x="170" y="368" type="curve" smooth="yes"/>
      <point x="170" y="395"/>
      <point x="215" y="420"/>
      <point x="265" y="420" type="curve" smooth="yes"/>
      <point x="304" y="420"/>
      <point x="331" y="402"/>
      <point x="331" y="350" type="curve" smooth="yes"/>
      <point x="331" y="213"/>
      <point x="120" y="94"/>
      <point x="-54" y="29" type="curve"/>
    </contour>
  </outline>
</glyph>
<glyph name="three.onum" format="2">
  <advance width="535"/>
  <unicode hex="F646"/>
  <outline>
    <contour>
      <point x="78" y="-259" type="curve" smooth="yes"/>
      <point x="231" y="-259"/>
      <point x="400" y="-161"/>
      <point x="400" y="20" type="curve" smooth="yes"/>
      <point x="400" y="92"/>
      <point x="345" y="153"/>
      <point x="262" y="163" type="curve"/>
      <point x="263" y="165" type="line"/>
      <point x="364" y="191"/>
      <point x="472" y="248"/>
      <point x="472" y="339" type="curve" smooth="yes"/>
      <point x="472" y="406"/>
      <point x="421" y="451"/>
      <point x="327" y="451" type="curve" smooth="yes"/>
      <point x="222" y="451"/>
      <point x="105" y="399"/>
      <point x="105" y="323" type="curve" smooth="yes"/>
      <point x="105" y="288"/>
      <point x="136" y="269"/>
      <point x="163" y="269" type="curve" smooth="yes"/>
      <point x="197" y="269"/>
      <point x="230" y="289"/>
      <point x="230" y="320" type="curve" smooth="yes"/>
      <point x="230" y="348"/>
      <point x="213" y="356"/>
      <point x="213" y="378" type="curve" smooth="yes"/>
      <point x="213" y="397"/>
      <point x="235" y="419"/>
      <point x="296" y="419" type="curve" smooth="yes"/>
      <point x="340" y="419"/>
      <point x="372" y="391"/>
      <point x="372" y="353" type="curve" smooth="yes"/>
      <point x="372" y="247"/>
      <point x="201" y="159"/>
      <point x="125" y="130" type="curve" smooth="yes"/>
      <point x="94" y="118" type="line"/>
      <point x="103" y="97" type="line"/>
      <point x="173" y="117" type="line"/>
      <point x="242" y="116"/>
      <point x="289" y="64"/>
      <point x="289" y="5" type="curve" smooth="yes"/>
      <point x="289" y="-164"/>
      <point x="172" y="-226"/>
      <point x="77" y="-228" type="curve" smooth="yes"/>
      <point x="17" y="-229"/>
      <point x="-18" y="-210"/>
      <point x="-18" y="-178" type="curve" smooth="yes"/>
      <point x="-18" y="-155"/>
      <point x="22" y="-142"/>
      <point x="22" y="-106" type="curve" smooth="yes"/>
      <point x="22" y="-88"/>
      <point x="9" y="-60"/>
      <point x="-36" y="-60" type="curve" smooth="yes"/>
      <point x="-75" y="-60"/>
      <point x="-97" y="-99"/>
      <point x="-97" y="-133" type="curve" smooth="yes"/>
      <point x="-97" y="-219"/>
      <point x="-23" y="-259"/>
    </contour>
  </outline>
</glyph>
<glyph name="four.onum" format="2">
  <advance width="552"/>
  <unicode hex="F647"/>
  <outline>
    <contour>
      <point x="124" y="-250" type="line"/>
      <point x="229" y="-235" type="line"/>
      <point x="507" y="451" type="line"/>
      <point x="474" y="451" type="line"/>
      <point x="-85" y="-26" type="line"/>
      <point x="-105" y="-75" type="line"/>
      <point x="365" y="-75" type="line"/>
      <point x="471" y="90" type="line"/>
      <point x="448" y="90" type="line"/>
      <point x="415" y="50" type="line" smooth="yes"/>
      <point x="396" y="26"/>
      <point x="377" y="15"/>
      <point x="353" y="15" type="curve" smooth="yes"/>
      <point x="-22" y="15" type="line"/>
      <point x="-28" y="-17" type="line"/>
      <point x="382" y="327" type="line"/>
      <point x="356" y="324" type="line"/>
    </contour>
  </outline>
</glyph>
<glyph name="seven.onum" format="2">
  <advance width="520"/>
  <unicode hex="F64A"/>
  <outline>
    <contour>
      <point x="60" y="-257" type="curve" smooth="yes"/>
      <point x="105" y="-257"/>
      <point x="138" y="-222"/>
      <point x="138" y="-187" type="curve" smooth="yes"/>
      <point x="138" y="-167"/>
      <point x="127" y="-157"/>
      <point x="115" y="-147" type="curve" smooth="yes"/>
      <point x="105" y="-137"/>
      <point x="95" y="-128"/>
      <point x="95" y="-112" type="curve" smooth="yes"/>
      <point x="95" y="-105"/>
      <point x="109" y="-87"/>
      <point x="124" y="-71" type="curve" smooth="yes"/>
      <point x="537" y="375" type="line"/>
      <point x="564" y="442" type="line"/>
      <point x="151" y="442" type="line"/>
      <point x="48" y="275" type="line"/>
      <point x="71" y="275" type="line"/>
      <point x="104" y="315" type="line" smooth="yes"/>
      <point x="123" y="339"/>
      <point x="147" y="350"/>
      <point x="166" y="350" type="curve" smooth="yes"/>
      <point x="463" y="350" type="line"/>
      <point x="71" y="-75" type="line" smooth="yes"/>
      <point x="25" y="-125"/>
      <point x="-3" y="-163"/>
      <point x="-3" y="-194" type="curve" smooth="yes"/>
      <point x="-3" y="-231"/>
      <point x="18" y="-257"/>
    </contour>
  </outline>
</glyph>
<glyph name="eight.onum" format="2">
  <advance width="542"/>
  <unicode hex="F64B"/>
  <outline>
    <contour>
      <point x="206" y="-12" type="curve" smooth="yes"/>
      <point x="340" y="-12"/>
      <point x="480" y="65"/>
      <point x="480" y="205" type="curve" smooth="yes"/>
      <point x="480" y="294"/>
      <point x="426" y="345"/>
      <point x="372" y="390" type="curve" smooth="yes"/>
      <point x="326" y="428"/>
      <point x="282" y="470"/>
      <point x="282" y="526" type="curve" smooth="yes"/>
      <point x="282" y="602"/>
      <point x="354" y="639"/>
      <point x="423" y="639" type="curve" smooth="yes"/>
      <point x="473" y="639"/>
      <point x="512" y="616"/>
      <point x="512" y="567" type="curve" smooth="yes"/>
      <point x="512" y="486"/>
      <point x="439" y="428"/>
      <point x="360" y="391" type="curve"/>
      <point x="373" y="359" type="line"/>
      <point x="480" y="389"/>
      <point x="607" y="462"/>
      <point x="607" y="565" type="curve" smooth="yes"/>
      <point x="607" y="635"/>
      <point x="532" y="679"/>
      <point x="438" y="679" type="curve" smooth="yes"/>
      <point x="308" y="679"/>
      <point x="186" y="604"/>
      <point x="186" y="496" type="curve" smooth="yes"/>
      <point x="186" y="424"/>
      <point x="258" y="372"/>
      <point x="306" y="328" type="curve" smooth="yes"/>
      <point x="352" y="286"/>
      <point x="381" y="249"/>
      <point x="381" y="181" type="curve" smooth="yes"/>
      <point x="381" y="82"/>
      <point x="288" y="24"/>
      <point x="215" y="24" type="curve" smooth="yes"/>
      <point x="164" y="24"/>
      <point x="119" y="52"/>
      <point x="119" y="117" type="curve" smooth="yes"/>
      <point x="119" y="191"/>
      <point x="167" y="293"/>
      <point x="315" y="336" type="curve"/>
      <point x="286" y="356" type="line"/>
      <point x="142" y="321"/>
      <point x="19" y="254"/>
      <point x="19" y="138" type="curve" smooth="yes"/>
      <point x="19" y="39"/>
      <point x="105" y="-12"/>
    </contour>
  </outline>
</glyph>
<glyph name="fi" format="2">
  <advance width="615"/>
  <unicode hex="FB01"/>
  <anchor x="235" y="0" name="caret_1"/>
  <outline>
    <contour>
      <point x="-76" y="-247" type="curve" smooth="yes"/>
      <point x="-17" y="-247"/>
      <point x="21" y="-211"/>
      <point x="43" y="-178" type="curve" smooth="yes"/>
      <point x="58" y="-156"/>
      <point x="68" y="-138"/>
      <point x="86" y="-138" type="curve"/>
      <point x="284" y="517" type="line" smooth="yes"/>
      <point x="326" y="657"/>
      <point x="363" y="680"/>
      <point x="445" y="680" type="curve" smooth="yes"/>
      <point x="475" y="680"/>
      <point x="499" y="668"/>
      <point x="499" y="646" type="curve" smooth="yes"/>
      <point x="499" y="643"/>
      <point x="498" y="636"/>
      <point x="498" y="629" type="curve" smooth="yes"/>
      <point x="498" y="596"/>
      <point x="519" y="576"/>
      <point x="560" y="576" type="curve" smooth="yes"/>
      <point x="597" y="576"/>
      <point x="612" y="603"/>
      <point x="612" y="629" type="curve" smooth="yes"/>
      <point x="612" y="675"/>
      <point x="554" y="712"/>
      <point x="450" y="712" type="curve" smooth="yes"/>
      <point x="311" y="712"/>
      <point x="231" y="654"/>
      <point x="180" y="487" type="curve" smooth="yes"/>
      <point x="-11" y="-137" type="line" smooth="yes"/>
      <point x="-27" y="-190"/>
      <point x="-42" y="-216"/>
      <point x="-63" y="-216" type="curve" smooth="yes"/>
      <point x="-76" y="-216"/>
      <point x="-85" y="-207"/>
      <point x="-85" y="-187" type="curve" smooth="yes"/>
      <point x="-85" y="-130"/>
      <point x="-111" y="-116"/>
      <point x="-140" y="-116" type="curve" smooth="yes"/>
      <point x="-168" y="-116"/>
      <point x="-194" y="-135"/>
      <point x="-194" y="-173" type="curve" smooth="yes"/>
      <point x="-194" y="-213"/>
      <point x="-135" y="-247"/>
    </contour>
    <contour>
      <point x="396" y="-8" type="curve" smooth="yes"/>
      <point x="449" y="-8"/>
      <point x="504" y="48"/>
      <point x="588" y="167" type="curve"/>
      <point x="568" y="180" type="line"/>
      <point x="536" y="131"/>
      <point x="479" y="63"/>
      <point x="461" y="63" type="curve" smooth="yes"/>
      <point x="450" y="63"/>
      <point x="441" y="75"/>
      <point x="453" y="105" type="curve" smooth="yes"/>
      <point x="551" y="353" type="line" smooth="yes"/>
      <point x="570" y="402"/>
      <point x="558" y="442"/>
      <point x="508" y="442" type="curve" smooth="yes"/>
      <point x="99" y="442" type="line"/>
      <point x="85" y="407" type="line"/>
      <point x="453" y="407" type="line" smooth="yes"/>
      <point x="463" y="407"/>
      <point x="470" y="401"/>
      <point x="459" y="373" type="curve" smooth="yes"/>
      <point x="341" y="76" type="line" smooth="yes"/>
      <point x="322" y="28"/>
      <point x="349" y="-8"/>
    </contour>
  </outline>
</glyph>
